Padauk-Bold.ufo
<glyph name="exclam" format="2">
  <advance width="273"/>
  <unicode hex="0021"/>
  <outline>
    <contour>
      <point x="137" y="813" type="curve" smooth="yes"/>
      <point x="167" y="813"/>
      <point x="187" y="788"/>
      <point x="189" y="753" type="curve" smooth="yes"/>
      <point x="191" y="730"/>
      <point x="192" y="702"/>
      <point x="192" y="670" type="curve" smooth="yes"/>
      <point x="192" y="517"/>
      <point x="180" y="365"/>
      <point x="166" y="267" type="curve" smooth="yes"/>
      <point x="159" y="216"/>
      <point x="155" y="200"/>
      <point x="137" y="200" type="curve" smooth="yes"/>
      <point x="119" y="200"/>
      <point x="115" y="216"/>
      <point x="108" y="268" type="curve" smooth="yes"/>
      <point x="95" y="365"/>
      <point x="83" y="517"/>
      <point x="83" y="670" type="curve" smooth="yes"/>
      <point x="83" y="702"/>
      <point x="84" y="730"/>
      <point x="86" y="753" type="curve" smooth="yes"/>
      <point x="88" y="788"/>
      <point x="107" y="813"/>
    </contour>
    <contour>
      <point x="218" y="59" type="curve" smooth="yes"/>
      <point x="218" y="15"/>
      <point x="181" y="-20"/>
      <point x="137" y="-20" type="curve" smooth="yes"/>
      <point x="93" y="-20"/>
      <point x="56" y="15"/>
      <point x="56" y="59" type="curve" smooth="yes"/>
      <point x="56" y="102"/>
      <point x="93" y="138"/>
      <point x="137" y="138" type="curve" smooth="yes"/>
      <point x="181" y="138"/>
      <point x="218" y="102"/>
    </contour>
  </outline>
</glyph>
<glyph name="dollar" format="2">
  <advance width="507"/>
  <unicode hex="0024"/>
  <outline>
    <contour>
      <point x="371" y="172" type="curve" smooth="yes"/>
      <point x="371" y="228"/>
      <point x="337" y="249"/>
      <point x="277" y="269" type="curve"/>
      <point x="277" y="83" type="line"/>
      <point x="330" y="88"/>
      <point x="371" y="114"/>
    </contour>
    <contour>
      <point x="231" y="386" type="curve"/>
      <point x="231" y="555" type="line"/>
      <point x="167" y="546"/>
      <point x="149" y="513"/>
      <point x="149" y="468" type="curve" smooth="yes"/>
      <point x="149" y="422"/>
      <point x="177" y="406"/>
    </contour>
    <contour>
      <point x="479" y="182" type="curve" smooth="yes"/>
      <point x="479" y="60"/>
      <point x="378" y="-2"/>
      <point x="277" y="-12" type="curve"/>
      <point x="277" y="-92" type="line"/>
      <point x="231" y="-92" type="line"/>
      <point x="231" y="-13" type="line"/>
      <point x="103" y="-3"/>
      <point x="27" y="73"/>
      <point x="27" y="197" type="curve"/>
      <point x="137" y="197" type="line"/>
      <point x="137" y="130"/>
      <point x="164" y="87"/>
      <point x="231" y="82" type="curve"/>
      <point x="231" y="279" type="line"/>
      <point x="125" y="311"/>
      <point x="41" y="336"/>
      <point x="41" y="459" type="curve" smooth="yes"/>
      <point x="41" y="568"/>
      <point x="130" y="648"/>
      <point x="231" y="648" type="curve"/>
      <point x="231" y="708" type="line"/>
      <point x="277" y="708" type="line"/>
      <point x="277" y="649" type="line"/>
      <point x="387" y="649"/>
      <point x="460" y="571"/>
      <point x="460" y="464" type="curve"/>
      <point x="349" y="464" type="line"/>
      <point x="349" y="524"/>
      <point x="328" y="551"/>
      <point x="277" y="557" type="curve"/>
      <point x="277" y="372" type="line"/>
      <point x="372" y="345"/>
      <point x="479" y="320"/>
    </contour>
  </outline>
</glyph>
<glyph name="percent" format="2">
  <advance width="743"/>
  <unicode hex="0025"/>
  <outline>
    <contour>
      <point x="613" y="84" type="curve" smooth="yes"/>
      <point x="613" y="113"/>
      <point x="587" y="140"/>
      <point x="560" y="140" type="curve" smooth="yes"/>
      <point x="527" y="140"/>
      <point x="504" y="113"/>
      <point x="504" y="84" type="curve" smooth="yes"/>
      <point x="504" y="54"/>
      <point x="528" y="27"/>
      <point x="560" y="27" type="curve" smooth="yes"/>
      <point x="587" y="27"/>
      <point x="613" y="54"/>
    </contour>
    <contour>
      <point x="238" y="346" type="curve" smooth="yes"/>
      <point x="238" y="376"/>
      <point x="213" y="403"/>
      <point x="186" y="403" type="curve" smooth="yes"/>
      <point x="154" y="403"/>
      <point x="129" y="376"/>
      <point x="129" y="346" type="curve" smooth="yes"/>
      <point x="129" y="317"/>
      <point x="154" y="290"/>
      <point x="186" y="290" type="curve" smooth="yes"/>
      <point x="213" y="290"/>
      <point x="238" y="317"/>
    </contour>
    <contour>
      <point x="691" y="84" type="curve" smooth="yes"/>
      <point x="691" y="15"/>
      <point x="630" y="-49"/>
      <point x="560" y="-49" type="curve" smooth="yes"/>
      <point x="487" y="-49"/>
      <point x="426" y="15"/>
      <point x="426" y="84" type="curve" smooth="yes"/>
      <point x="426" y="156"/>
      <point x="487" y="218"/>
      <point x="560" y="218" type="curve" smooth="yes"/>
      <point x="630" y="218"/>
      <point x="691" y="156"/>
    </contour>
    <contour>
      <point x="316" y="346" type="curve" smooth="yes"/>
      <point x="316" y="278"/>
      <point x="255" y="214"/>
      <point x="186" y="214" type="curve" smooth="yes"/>
      <point x="112" y="214"/>
      <point x="51" y="278"/>
      <point x="51" y="346" type="curve" smooth="yes"/>
      <point x="51" y="419"/>
      <point x="112" y="481"/>
      <point x="186" y="481" type="curve" smooth="yes"/>
      <point x="255" y="481"/>
      <point x="316" y="419"/>
    </contour>
    <contour>
      <point x="587" y="440" type="line"/>
      <point x="227" y="-69" type="line"/>
      <point x="156" y="-9" type="line"/>
      <point x="511" y="497" type="line"/>
    </contour>
  </outline>
</glyph>
<glyph name="ampersand" format="2">
  <advance width="696"/>
  <unicode hex="0026"/>
  <outline>
    <contour>
      <point x="421" y="115" type="curve"/>
      <point x="346" y="181"/>
      <point x="284" y="246"/>
      <point x="236" y="305" type="curve"/>
      <point x="192" y="272"/>
      <point x="163" y="227"/>
      <point x="163" y="186" type="curve" smooth="yes"/>
      <point x="163" y="122"/>
      <point x="224" y="72"/>
      <point x="292" y="72" type="curve" smooth="yes"/>
      <point x="344" y="72"/>
      <point x="388" y="84"/>
    </contour>
    <contour>
      <point x="361" y="517" type="curve" smooth="yes"/>
      <point x="361" y="545"/>
      <point x="327" y="574"/>
      <point x="292" y="574" type="curve" smooth="yes"/>
      <point x="243" y="574"/>
      <point x="214" y="547"/>
      <point x="214" y="513" type="curve" smooth="yes"/>
      <point x="214" y="485"/>
      <point x="234" y="451"/>
      <point x="272" y="409" type="curve"/>
      <point x="318" y="435"/>
      <point x="361" y="477"/>
    </contour>
    <contour>
      <point x="688" y="0" type="curve"/>
      <point x="543" y="0" type="line"/>
      <point x="488" y="51" type="line"/>
      <point x="443" y="13"/>
      <point x="375" y="-12"/>
      <point x="289" y="-12" type="curve" smooth="yes"/>
      <point x="168" y="-12"/>
      <point x="49" y="48"/>
      <point x="49" y="177" type="curve" smooth="yes"/>
      <point x="49" y="270"/>
      <point x="101" y="329"/>
      <point x="185" y="369" type="curve"/>
      <point x="136" y="412"/>
      <point x="107" y="463"/>
      <point x="107" y="520" type="curve" smooth="yes"/>
      <point x="107" y="613"/>
      <point x="203" y="655"/>
      <point x="285" y="655" type="curve" smooth="yes"/>
      <point x="370" y="655"/>
      <point x="459" y="617"/>
      <point x="459" y="531" type="curve" smooth="yes"/>
      <point x="459" y="441"/>
      <point x="385" y="393"/>
      <point x="324" y="353" type="curve"/>
      <point x="365" y="301"/>
      <point x="415" y="250"/>
      <point x="475" y="193" type="curve"/>
      <point x="489" y="230"/>
      <point x="494" y="268"/>
      <point x="494" y="310" type="curve" smooth="yes"/>
      <point x="494" y="322"/>
      <point x="494" y="335"/>
      <point x="493" y="348" type="curve"/>
      <point x="605" y="348" type="line"/>
      <point x="601" y="266"/>
      <point x="585" y="190"/>
      <point x="551" y="121" type="curve"/>
      <point x="578" y="88"/>
      <point x="634" y="39"/>
    </contour>
  </outline>
</glyph>
<glyph name="quotesingle" format="2">
  <advance width="353"/>
  <unicode hex="0027"/>
  <outline>
    <contour>
      <point x="236" y="643" type="line"/>
      <point x="214" y="385" type="line"/>
      <point x="138" y="385" type="line"/>
      <point x="116" y="643" type="line"/>
    </contour>
  </outline>
</glyph>
<glyph name="asterisk" format="2">
  <advance width="568"/>
  <unicode hex="002A"/>
  <outline>
    <contour>
      <point x="512" y="383" type="line"/>
      <point x="464" y="301" type="line"/>
      <point x="332" y="380" type="line"/>
      <point x="332" y="225" type="line"/>
      <point x="239" y="225" type="line"/>
      <point x="239" y="380" type="line"/>
      <point x="106" y="301" type="line"/>
      <point x="55" y="382" type="line"/>
      <point x="192" y="461" type="line"/>
      <point x="55" y="539" type="line"/>
      <point x="106" y="619" type="line"/>
      <point x="237" y="543" type="line"/>
      <point x="237" y="696" type="line"/>
      <point x="332" y="696" type="line"/>
      <point x="332" y="544" type="line"/>
      <point x="464" y="619" type="line"/>
      <point x="512" y="538" type="line"/>
      <point x="379" y="461" type="line"/>
    </contour>
  </outline>
</glyph>
<glyph name="plus" format="2">
  <advance width="578"/>
  <unicode hex="002B"/>
  <outline>
    <contour>
      <point x="485" y="271" type="line"/>
      <point x="485" y="178" type="line"/>
      <point x="335" y="178" type="line"/>
      <point x="335" y="28" type="line"/>
      <point x="242" y="28" type="line"/>
      <point x="242" y="178" type="line"/>
      <point x="93" y="178" type="line"/>
      <point x="93" y="271" type="line"/>
      <point x="242" y="271" type="line"/>
      <point x="242" y="422" type="line"/>
      <point x="335" y="422" type="line"/>
      <point x="335" y="271" type="line"/>
    </contour>
  </outline>
</glyph>
<glyph name="hyphen" format="2">
  <advance width="503"/>
  <unicode hex="002D"/>
  <outline>
    <contour>
      <point x="447" y="267" type="line"/>
      <point x="447" y="174" type="line"/>
      <point x="55" y="174" type="line"/>
      <point x="55" y="267" type="line"/>
    </contour>
  </outline>
</glyph>
<glyph name="period" format="2">
  <advance width="243"/>
  <unicode hex="002E"/>
  <outline>
    <contour>
      <point x="203" y="59" type="curve" smooth="yes"/>
      <point x="203" y="15"/>
      <point x="164" y="-20"/>
      <point x="122" y="-20" type="curve" smooth="yes"/>
      <point x="79" y="-20"/>
      <point x="40" y="15"/>
      <point x="40" y="59" type="curve" smooth="yes"/>
      <point x="40" y="102"/>
      <point x="79" y="138"/>
      <point x="122" y="138" type="curve" smooth="yes"/>
      <point x="164" y="138"/>
      <point x="203" y="102"/>
    </contour>
  </outline>
</glyph>
<glyph name="zero" format="2">
  <advance width="507"/>
  <unicode hex="0030"/>
  <outline>
    <contour>
      <point x="356" y="326" type="curve" smooth="yes"/>
      <point x="356" y="449"/>
      <point x="349" y="571"/>
      <point x="254" y="571" type="curve" smooth="yes"/>
      <point x="157" y="571"/>
      <point x="149" y="447"/>
      <point x="149" y="326" type="curve" smooth="yes"/>
      <point x="149" y="204"/>
      <point x="157" y="71"/>
      <point x="254" y="71" type="curve" smooth="yes"/>
      <point x="349" y="71"/>
      <point x="356" y="204"/>
    </contour>
    <contour>
      <point x="471" y="326" type="curve" smooth="yes"/>
      <point x="471" y="127"/>
      <point x="414" y="-13"/>
      <point x="254" y="-13" type="curve" smooth="yes"/>
      <point x="93" y="-13"/>
      <point x="36" y="127"/>
      <point x="36" y="326" type="curve" smooth="yes"/>
      <point x="36" y="525"/>
      <point x="93" y="655"/>
      <point x="254" y="655" type="curve" smooth="yes"/>
      <point x="414" y="655"/>
      <point x="471" y="525"/>
    </contour>
  </outline>
</glyph>
<glyph name="one" format="2">
  <advance width="507"/>
  <unicode hex="0031"/>
  <outline>
    <contour>
      <point x="353" y="0" type="line"/>
      <point x="246" y="0" type="line"/>
      <point x="246" y="523" type="line"/>
      <point x="202" y="485"/>
      <point x="151" y="458"/>
      <point x="97" y="443" type="curve"/>
      <point x="97" y="540" type="line"/>
      <point x="159" y="563"/>
      <point x="210" y="599"/>
      <point x="249" y="643" type="curve"/>
      <point x="353" y="643" type="line"/>
    </contour>
  </outline>
</glyph>
<glyph name="four" format="2">
  <advance width="507"/>
  <unicode hex="0034"/>
  <outline>
    <contour>
      <point x="297" y="239" type="line"/>
      <point x="297" y="531" type="line"/>
      <point x="118" y="239" type="line"/>
    </contour>
    <contour>
      <point x="485" y="146" type="line"/>
      <point x="404" y="146" type="line"/>
      <point x="404" y="0" type="line"/>
      <point x="297" y="0" type="line"/>
      <point x="297" y="146" type="line"/>
      <point x="21" y="146" type="line"/>
      <point x="21" y="254" type="line"/>
      <point x="269" y="643" type="line"/>
      <point x="404" y="643" type="line"/>
      <point x="404" y="239" type="line"/>
      <point x="485" y="239" type="line"/>
    </contour>
  </outline>
</glyph>
<glyph name="six" format="2">
  <advance width="507"/>
  <unicode hex="0036"/>
  <outline>
    <contour>
      <point x="356" y="200" type="curve" smooth="yes"/>
      <point x="356" y="282"/>
      <point x="326" y="324"/>
      <point x="260" y="324" type="curve" smooth="yes"/>
      <point x="194" y="324"/>
      <point x="163" y="282"/>
      <point x="163" y="200" type="curve" smooth="yes"/>
      <point x="163" y="118"/>
      <point x="194" y="75"/>
      <point x="260" y="75" type="curve" smooth="yes"/>
      <point x="326" y="75"/>
      <point x="356" y="118"/>
    </contour>
    <contour>
      <point x="473" y="209" type="curve" smooth="yes"/>
      <point x="473" y="110"/>
      <point x="417" y="-13"/>
      <point x="255" y="-13" type="curve" smooth="yes"/>
      <point x="74" y="-13"/>
      <point x="34" y="126"/>
      <point x="34" y="297" type="curve" smooth="yes"/>
      <point x="34" y="462"/>
      <point x="74" y="655"/>
      <point x="266" y="655" type="curve" smooth="yes"/>
      <point x="375" y="655"/>
      <point x="448" y="591"/>
      <point x="459" y="485" type="curve"/>
      <point x="347" y="485" type="line"/>
      <point x="345" y="537"/>
      <point x="313" y="567"/>
      <point x="268" y="567" type="curve" smooth="yes"/>
      <point x="164" y="567"/>
      <point x="146" y="398"/>
      <point x="146" y="328" type="curve"/>
      <point x="177" y="373"/>
      <point x="212" y="407"/>
      <point x="293" y="407" type="curve" smooth="yes"/>
      <point x="423" y="407"/>
      <point x="473" y="298"/>
    </contour>
  </outline>
</glyph>
<glyph name="eight" format="2">
  <advance width="507"/>
  <unicode hex="0038"/>
  <outline>
    <contour>
      <point x="358" y="187" type="curve" smooth="yes"/>
      <point x="358" y="249"/>
      <point x="321" y="297"/>
      <point x="254" y="297" type="curve" smooth="yes"/>
      <point x="188" y="297"/>
      <point x="150" y="247"/>
      <point x="150" y="187" type="curve" smooth="yes"/>
      <point x="150" y="125"/>
      <point x="186" y="76"/>
      <point x="254" y="76" type="curve" smooth="yes"/>
      <point x="324" y="76"/>
      <point x="358" y="127"/>
    </contour>
    <contour>
      <point x="344" y="477" type="curve" smooth="yes"/>
      <point x="344" y="533"/>
      <point x="308" y="567"/>
      <point x="254" y="567" type="curve" smooth="yes"/>
      <point x="199" y="567"/>
      <point x="163" y="533"/>
      <point x="163" y="477" type="curve" smooth="yes"/>
      <point x="163" y="420"/>
      <point x="202" y="386"/>
      <point x="254" y="386" type="curve" smooth="yes"/>
      <point x="305" y="386"/>
      <point x="344" y="420"/>
    </contour>
    <contour>
      <point x="473" y="166" type="curve" smooth="yes"/>
      <point x="473" y="34"/>
      <point x="359" y="-12"/>
      <point x="254" y="-12" type="curve" smooth="yes"/>
      <point x="143" y="-12"/>
      <point x="34" y="36"/>
      <point x="34" y="166" type="curve" smooth="yes"/>
      <point x="34" y="268"/>
      <point x="95" y="320"/>
      <point x="155" y="343" type="curve"/>
      <point x="100" y="365"/>
      <point x="47" y="408"/>
      <point x="47" y="493" type="curve" smooth="yes"/>
      <point x="47" y="613"/>
      <point x="155" y="655"/>
      <point x="254" y="655" type="curve" smooth="yes"/>
      <point x="353" y="655"/>
      <point x="460" y="617"/>
      <point x="460" y="490" type="curve" smooth="yes"/>
      <point x="460" y="409"/>
      <point x="401" y="364"/>
      <point x="345" y="343" type="curve"/>
      <point x="404" y="324"/>
      <point x="473" y="270"/>
    </contour>
  </outline>
</glyph>
<glyph name="less" format="2">
  <advance width="891"/>
  <unicode hex="003C"/>
  <outline>
    <contour>
      <point x="712" y="110" type="line"/>
      <point x="712" y="34" type="line"/>
      <point x="178" y="238" type="line"/>
      <point x="178" y="295" type="line"/>
      <point x="712" y="499" type="line"/>
      <point x="712" y="424" type="line"/>
      <point x="291" y="267" type="line"/>
    </contour>
  </outline>
</glyph>
<glyph name="greater" format="2">
  <advance width="891"/>
  <unicode hex="003E"/>
  <outline>
    <contour>
      <point x="712" y="295" type="line"/>
      <point x="712" y="238" type="line"/>
      <point x="178" y="34" type="line"/>
      <point x="178" y="110" type="line"/>
      <point x="599" y="267" type="line"/>
      <point x="178" y="424" type="line"/>
      <point x="178" y="499" type="line"/>
    </contour>
  </outline>
</glyph>
<glyph name="question" format="2">
  <advance width="447"/>
  <unicode hex="003F"/>
  <outline>
    <contour>
      <point x="392" y="584" type="curve" smooth="yes"/>
      <point x="392" y="430"/>
      <point x="252" y="448"/>
      <point x="252" y="346" type="curve" smooth="yes"/>
      <point x="252" y="200" type="line"/>
      <point x="159" y="200" type="line"/>
      <point x="159" y="362" type="line" smooth="yes"/>
      <point x="159" y="484"/>
      <point x="300" y="479"/>
      <point x="300" y="584" type="curve" smooth="yes"/>
      <point x="300" y="631"/>
      <point x="253" y="678"/>
      <point x="206" y="678" type="curve" smooth="yes"/>
      <point x="151" y="678"/>
      <point x="113" y="626"/>
      <point x="113" y="578" type="curve" smooth="yes"/>
      <point x="113" y="555" type="line"/>
      <point x="20" y="555" type="line"/>
      <point x="20" y="578" type="line" smooth="yes"/>
      <point x="20" y="656"/>
      <point x="84" y="773"/>
      <point x="206" y="773" type="curve" smooth="yes"/>
      <point x="320" y="773"/>
      <point x="392" y="678"/>
    </contour>
    <contour>
      <point x="269" y="57" type="curve" smooth="yes"/>
      <point x="269" y="21"/>
      <point x="239" y="-7"/>
      <point x="205" y="-7" type="curve" smooth="yes"/>
      <point x="170" y="-7"/>
      <point x="143" y="24"/>
      <point x="143" y="57" type="curve" smooth="yes"/>
      <point x="143" y="91"/>
      <point x="170" y="118"/>
      <point x="205" y="118" type="curve" smooth="yes"/>
      <point x="239" y="118"/>
      <point x="269" y="91"/>
    </contour>
  </outline>
</glyph>
<glyph name="at" format="2">
  <advance width="915"/>
  <unicode hex="0040"/>
  <outline>
    <contour>
      <point x="543" y="236" type="curve" smooth="yes"/>
      <point x="543" y="315"/>
      <point x="513" y="363"/>
      <point x="451" y="363" type="curve" smooth="yes"/>
      <point x="385" y="363"/>
      <point x="359" y="288"/>
      <point x="359" y="230" type="curve" smooth="yes"/>
      <point x="359" y="168"/>
      <point x="381" y="95"/>
      <point x="449" y="95" type="curve" smooth="yes"/>
      <point x="518" y="95"/>
      <point x="543" y="174"/>
    </contour>
    <contour>
      <point x="873" y="270" type="curve" smooth="yes"/>
      <point x="873" y="148"/>
      <point x="809" y="8"/>
      <point x="685" y="8" type="curve" smooth="yes"/>
      <point x="626" y="8"/>
      <point x="585" y="34"/>
      <point x="560" y="84" type="curve"/>
      <point x="526" y="37"/>
      <point x="485" y="12"/>
      <point x="429" y="12" type="curve" smooth="yes"/>
      <point x="321" y="12"/>
      <point x="247" y="115"/>
      <point x="247" y="226" type="curve" smooth="yes"/>
      <point x="247" y="345"/>
      <point x="313" y="446"/>
      <point x="424" y="446" type="curve" smooth="yes"/>
      <point x="472" y="446"/>
      <point x="509" y="429"/>
      <point x="544" y="387" type="curve"/>
      <point x="544" y="435" type="line"/>
      <point x="652" y="435" type="line"/>
      <point x="652" y="139" type="line" smooth="yes"/>
      <point x="652" y="107"/>
      <point x="675" y="96"/>
      <point x="694" y="96" type="curve" smooth="yes"/>
      <point x="728" y="96"/>
      <point x="763" y="150"/>
      <point x="763" y="247" type="curve" smooth="yes"/>
      <point x="763" y="444"/>
      <point x="649" y="555"/>
      <point x="466" y="555" type="curve" smooth="yes"/>
      <point x="292" y="555"/>
      <point x="152" y="423"/>
      <point x="152" y="228" type="curve" smooth="yes"/>
      <point x="152" y="49"/>
      <point x="287" y="-82"/>
      <point x="455" y="-82" type="curve" smooth="yes"/>
      <point x="544" y="-82"/>
      <point x="602" y="-76"/>
      <point x="654" y="-58" type="curve"/>
      <point x="654" y="-161" type="line"/>
      <point x="577" y="-175"/>
      <point x="528" y="-179"/>
      <point x="485" y="-179" type="curve" smooth="yes"/>
      <point x="247" y="-179"/>
      <point x="41" y="-43"/>
      <point x="41" y="237" type="curve" smooth="yes"/>
      <point x="41" y="488"/>
      <point x="244" y="649"/>
      <point x="468" y="649" type="curve" smooth="yes"/>
      <point x="701" y="649"/>
      <point x="873" y="502"/>
    </contour>
  </outline>
</glyph>
<glyph name="A" format="2">
  <advance width="644"/>
  <unicode hex="0041"/>
  <outline>
    <contour>
      <point x="420" y="241" type="line"/>
      <point x="321" y="514" type="line"/>
      <point x="220" y="241" type="line"/>
    </contour>
    <contour>
      <point x="634" y="0" type="line"/>
      <point x="515" y="0" type="line"/>
      <point x="457" y="149" type="line"/>
      <point x="183" y="149" type="line"/>
      <point x="127" y="0" type="line"/>
      <point x="10" y="0" type="line"/>
      <point x="261" y="643" type="line"/>
      <point x="382" y="643" type="line"/>
    </contour>
  </outline>
</glyph>
<glyph name="D" format="2">
  <advance width="646"/>
  <unicode hex="0044"/>
  <outline>
    <contour>
      <point x="478" y="322" type="curve" smooth="yes"/>
      <point x="478" y="472"/>
      <point x="403" y="549"/>
      <point x="263" y="549" type="curve" smooth="yes"/>
      <point x="183" y="549" type="line"/>
      <point x="183" y="94" type="line"/>
      <point x="263" y="94" type="line" smooth="yes"/>
      <point x="403" y="94"/>
      <point x="478" y="172"/>
    </contour>
    <contour>
      <point x="596" y="322" type="curve" smooth="yes"/>
      <point x="596" y="128"/>
      <point x="473" y="0"/>
      <point x="262" y="0" type="curve" smooth="yes"/>
      <point x="66" y="0" type="line"/>
      <point x="66" y="643" type="line"/>
      <point x="262" y="643" type="line" smooth="yes"/>
      <point x="480" y="643"/>
      <point x="596" y="511"/>
    </contour>
  </outline>
</glyph>
<glyph name="J" format="2">
  <advance width="541"/>
  <unicode hex="004A"/>
  <outline>
    <contour>
      <point x="476" y="191" type="line" smooth="yes"/>
      <point x="476" y="65"/>
      <point x="373" y="-13"/>
      <point x="258" y="-13" type="curve" smooth="yes"/>
      <point x="113" y="-13"/>
      <point x="49" y="63"/>
      <point x="49" y="192" type="curve"/>
      <point x="169" y="192" type="line"/>
      <point x="169" y="114"/>
      <point x="203" y="82"/>
      <point x="257" y="82" type="curve" smooth="yes"/>
      <point x="323" y="82"/>
      <point x="357" y="117"/>
      <point x="357" y="196" type="curve" smooth="yes"/>
      <point x="357" y="644" type="line"/>
      <point x="476" y="644" type="line"/>
    </contour>
  </outline>
</glyph>
<glyph name="K" format="2">
  <advance width="610"/>
  <unicode hex="004B"/>
  <outline>
    <contour>
      <point x="582" y="0" type="line"/>
      <point x="435" y="0" type="line"/>
      <point x="183" y="328" type="line"/>
      <point x="183" y="0" type="line"/>
      <point x="66" y="0" type="line"/>
      <point x="66" y="643" type="line"/>
      <point x="183" y="643" type="line"/>
      <point x="183" y="368" type="line"/>
      <point x="415" y="643" type="line"/>
      <point x="553" y="643" type="line"/>
      <point x="311" y="359" type="line"/>
    </contour>
  </outline>
</glyph>
<glyph name="M" format="2">
  <advance width="818"/>
  <unicode hex="004D"/>
  <outline>
    <contour>
      <point x="753" y="0" type="line"/>
      <point x="640" y="0" type="line"/>
      <point x="640" y="542" type="line"/>
      <point x="463" y="0" type="line"/>
      <point x="354" y="0" type="line"/>
      <point x="178" y="540" type="line"/>
      <point x="178" y="0" type="line"/>
      <point x="66" y="0" type="line"/>
      <point x="66" y="643" type="line"/>
      <point x="255" y="643" type="line"/>
      <point x="409" y="160" type="line"/>
      <point x="563" y="645" type="line"/>
      <point x="753" y="645" type="line"/>
    </contour>
  </outline>
</glyph>
<glyph name="O" format="2">
  <advance width="701"/>
  <unicode hex="004F"/>
  <outline>
    <contour>
      <point x="530" y="326" type="curve" smooth="yes"/>
      <point x="530" y="474"/>
      <point x="478" y="561"/>
      <point x="351" y="561" type="curve" smooth="yes"/>
      <point x="224" y="561"/>
      <point x="171" y="474"/>
      <point x="171" y="326" type="curve" smooth="yes"/>
      <point x="171" y="178"/>
      <point x="224" y="82"/>
      <point x="351" y="82" type="curve" smooth="yes"/>
      <point x="478" y="82"/>
      <point x="530" y="178"/>
    </contour>
    <contour>
      <point x="651" y="326" type="curve" smooth="yes"/>
      <point x="651" y="135"/>
      <point x="547" y="-13"/>
      <point x="351" y="-13" type="curve" smooth="yes"/>
      <point x="148" y="-13"/>
      <point x="49" y="142"/>
      <point x="49" y="326" type="curve" smooth="yes"/>
      <point x="49" y="516"/>
      <point x="155" y="655"/>
      <point x="351" y="655" type="curve" smooth="yes"/>
      <point x="553" y="655"/>
      <point x="651" y="508"/>
    </contour>
  </outline>
</glyph>
<glyph name="P" format="2">
  <advance width="575"/>
  <unicode hex="0050"/>
  <outline>
    <contour>
      <point x="406" y="447" type="curve" smooth="yes"/>
      <point x="406" y="523"/>
      <point x="352" y="549"/>
      <point x="257" y="549" type="curve" smooth="yes"/>
      <point x="183" y="549" type="line"/>
      <point x="183" y="348" type="line"/>
      <point x="257" y="348" type="line" smooth="yes"/>
      <point x="348" y="348"/>
      <point x="406" y="371"/>
    </contour>
    <contour>
      <point x="524" y="447" type="curve" smooth="yes"/>
      <point x="524" y="298"/>
      <point x="401" y="254"/>
      <point x="278" y="254" type="curve" smooth="yes"/>
      <point x="183" y="254" type="line"/>
      <point x="183" y="0" type="line"/>
      <point x="66" y="0" type="line"/>
      <point x="66" y="643" type="line"/>
      <point x="278" y="643" type="line" smooth="yes"/>
      <point x="407" y="643"/>
      <point x="524" y="593"/>
    </contour>
  </outline>
</glyph>
<glyph name="R" format="2">
  <advance width="592"/>
  <unicode hex="0052"/>
  <outline>
    <contour>
      <point x="423" y="455" type="curve" smooth="yes"/>
      <point x="423" y="521"/>
      <point x="362" y="549"/>
      <point x="299" y="549" type="curve" smooth="yes"/>
      <point x="183" y="549" type="line"/>
      <point x="183" y="366" type="line"/>
      <point x="293" y="366" type="line" smooth="yes"/>
      <point x="355" y="366"/>
      <point x="423" y="395"/>
    </contour>
    <contour>
      <point x="557" y="0" type="curve"/>
      <point x="436" y="0" type="line"/>
      <point x="418" y="65"/>
      <point x="418" y="101"/>
      <point x="409" y="154" type="curve" smooth="yes"/>
      <point x="393" y="242"/>
      <point x="369" y="272"/>
      <point x="288" y="272" type="curve" smooth="yes"/>
      <point x="183" y="272" type="line"/>
      <point x="183" y="0" type="line"/>
      <point x="66" y="0" type="line"/>
      <point x="66" y="643" type="line"/>
      <point x="299" y="643" type="line" smooth="yes"/>
      <point x="460" y="643"/>
      <point x="542" y="590"/>
      <point x="542" y="469" type="curve" smooth="yes"/>
      <point x="542" y="393"/>
      <point x="474" y="349"/>
      <point x="411" y="322" type="curve"/>
      <point x="452" y="313"/>
      <point x="487" y="298"/>
      <point x="503" y="258" type="curve" smooth="yes"/>
      <point x="526" y="201"/>
      <point x="528" y="64"/>
    </contour>
  </outline>
</glyph>
<glyph name="X" format="2">
  <advance width="621"/>
  <unicode hex="0058"/>
  <outline>
    <contour>
      <point x="606" y="0" type="line"/>
      <point x="467" y="0" type="line"/>
      <point x="300" y="256" type="line"/>
      <point x="137" y="0" type="line"/>
      <point x="13" y="0" type="line"/>
      <point x="241" y="337" type="line"/>
      <point x="36" y="643" type="line"/>
      <point x="174" y="643" type="line"/>
      <point x="317" y="419" type="line"/>
      <point x="458" y="643" type="line"/>
      <point x="585" y="643" type="line"/>
      <point x="376" y="337" type="line"/>
    </contour>
  </outline>
</glyph>
<glyph name="Y" format="2">
  <advance width="587"/>
  <unicode hex="0059"/>
  <outline>
    <contour>
      <point x="575" y="643" type="line"/>
      <point x="352" y="247" type="line"/>
      <point x="352" y="0" type="line"/>
      <point x="234" y="0" type="line"/>
      <point x="234" y="247" type="line"/>
      <point x="10" y="643" type="line"/>
      <point x="145" y="643" type="line"/>
      <point x="294" y="360" type="line"/>
      <point x="443" y="643" type="line"/>
    </contour>
  </outline>
</glyph>
<glyph name="bracketleft" format="2">
  <advance width="349"/>
  <unicode hex="005B"/>
  <outline>
    <contour>
      <point x="269" y="-177" type="line"/>
      <point x="80" y="-177" type="line"/>
      <point x="80" y="643" type="line"/>
      <point x="269" y="643" type="line"/>
      <point x="269" y="574" type="line"/>
      <point x="178" y="574" type="line"/>
      <point x="178" y="-108" type="line"/>
      <point x="269" y="-108" type="line"/>
    </contour>
  </outline>
</glyph>
<glyph name="backslash" format="2">
  <advance width="537"/>
  <unicode hex="005C"/>
  <outline>
    <contour>
      <point x="481" y="-182" type="line"/>
      <point x="410" y="-254" type="line"/>
      <point x="55" y="756" type="line"/>
      <point x="128" y="825" type="line"/>
    </contour>
  </outline>
</glyph>
<glyph name="asciicircum" format="2">
  <advance width="536"/>
  <unicode hex="005E"/>
  <anchor x="270" y="475" name="_U"/>
  <anchor x="226" y="495" name="UM"/>
  <outline>
    <contour>
      <point x="499" y="619" type="line"/>
      <point x="449" y="569" type="line"/>
      <point x="268" y="749" type="line"/>
      <point x="87" y="569" type="line"/>
      <point x="37" y="619" type="line"/>
      <point x="268" y="851" type="line"/>
    </contour>
  </outline>
</glyph>
<glyph name="c" format="2">
  <advance width="461"/>
  <unicode hex="0063"/>
  <outline>
    <contour>
      <point x="421" y="159" type="line"/>
      <point x="421" y="54"/>
      <point x="365" y="-12"/>
      <point x="238" y="-12" type="curve" smooth="yes"/>
      <point x="107" y="-12"/>
      <point x="42" y="65"/>
      <point x="42" y="219" type="curve" smooth="yes"/>
      <point x="42" y="375"/>
      <point x="108" y="457"/>
      <point x="235" y="457" type="curve" smooth="yes"/>
      <point x="359" y="457"/>
      <point x="419" y="400"/>
      <point x="419" y="302" type="curve" smooth="yes"/>
      <point x="419" y="300"/>
      <point x="419" y="297"/>
      <point x="419" y="295" type="curve" smooth="yes"/>
      <point x="314" y="295" type="line"/>
      <point x="315" y="359"/>
      <point x="280" y="387"/>
      <point x="237" y="387" type="curve" smooth="yes"/>
      <point x="176" y="387"/>
      <point x="144" y="348"/>
      <point x="144" y="221" type="curve" smooth="yes"/>
      <point x="144" y="101"/>
      <point x="169" y="58"/>
      <point x="235" y="58" type="curve" smooth="yes"/>
      <point x="299" y="58"/>
      <point x="313" y="111"/>
      <point x="314" y="159" type="curve"/>
    </contour>
  </outline>
</glyph>
<glyph name="d" format="2">
  <advance width="539"/>
  <unicode hex="0064"/>
  <outline>
    <contour>
      <point x="373" y="220" type="curve" smooth="yes"/>
      <point x="373" y="324"/>
      <point x="332" y="389"/>
      <point x="261" y="389" type="curve" smooth="yes"/>
      <point x="175" y="389"/>
      <point x="148" y="290"/>
      <point x="148" y="219" type="curve" smooth="yes"/>
      <point x="148" y="143"/>
      <point x="185" y="62"/>
      <point x="262" y="62" type="curve" smooth="yes"/>
      <point x="342" y="62"/>
      <point x="373" y="155"/>
    </contour>
    <contour>
      <point x="479" y="0" type="line"/>
      <point x="373" y="0" type="line"/>
      <point x="373" y="58" type="line"/>
      <point x="338" y="15"/>
      <point x="296" y="-12"/>
      <point x="248" y="-12" type="curve" smooth="yes"/>
      <point x="122" y="-12"/>
      <point x="42" y="91"/>
      <point x="42" y="215" type="curve" smooth="yes"/>
      <point x="42" y="353"/>
      <point x="108" y="457"/>
      <point x="234" y="457" type="curve" smooth="yes"/>
      <point x="294" y="457"/>
      <point x="337" y="441"/>
      <point x="373" y="399" type="curve"/>
      <point x="373" y="643" type="line"/>
      <point x="479" y="643" type="line"/>
    </contour>
  </outline>
</glyph>
<glyph name="e" format="2">
  <advance width="493"/>
  <unicode hex="0065"/>
  <outline>
    <contour>
      <point x="339" y="272" type="line"/>
      <point x="339" y="341.971"/>
      <point x="316.603" y="388"/>
      <point x="247" y="388" type="curve" smooth="yes"/>
      <point x="181" y="388"/>
      <point x="155" y="337"/>
      <point x="152" y="272" type="curve"/>
    </contour>
    <contour>
      <point x="445" y="139" type="line"/>
      <point x="434" y="48"/>
      <point x="372" y="-12"/>
      <point x="246" y="-12" type="curve" smooth="yes"/>
      <point x="95" y="-12"/>
      <point x="42" y="101"/>
      <point x="42" y="221" type="curve" smooth="yes"/>
      <point x="42" y="350"/>
      <point x="106" y="457"/>
      <point x="253" y="457" type="curve" smooth="yes"/>
      <point x="408" y="457"/>
      <point x="452" y="339"/>
      <point x="452" y="239" type="curve" smooth="yes"/>
      <point x="452" y="226"/>
      <point x="451" y="214"/>
      <point x="450" y="202" type="curve"/>
      <point x="152" y="202" type="line"/>
      <point x="153" y="116"/>
      <point x="172" y="57"/>
      <point x="249" y="57" type="curve" smooth="yes"/>
      <point x="305" y="57"/>
      <point x="330" y="93"/>
      <point x="336" y="139" type="curve"/>
    </contour>
  </outline>
</glyph>
<glyph name="g" format="2">
  <advance width="539"/>
  <unicode hex="0067"/>
  <outline>
    <contour>
      <point x="373" y="225" type="curve" smooth="yes"/>
      <point x="373" y="329"/>
      <point x="338" y="388"/>
      <point x="262" y="388" type="curve" smooth="yes"/>
      <point x="174" y="388"/>
      <point x="148" y="297"/>
      <point x="148" y="223" type="curve" smooth="yes"/>
      <point x="148" y="143"/>
      <point x="183" y="78"/>
      <point x="261" y="78" type="curve" smooth="yes"/>
      <point x="342" y="78"/>
      <point x="373" y="156"/>
    </contour>
    <contour>
      <point x="479" y="11" type="line" smooth="yes"/>
      <point x="479" y="-105"/>
      <point x="401" y="-177"/>
      <point x="260" y="-177" type="curve" smooth="yes"/>
      <point x="103" y="-177"/>
      <point x="65" y="-100"/>
      <point x="65" y="-43" type="curve"/>
      <point x="173" y="-43" type="line"/>
      <point x="173" y="-84"/>
      <point x="212" y="-108"/>
      <point x="266" y="-108" type="curve" smooth="yes"/>
      <point x="348" y="-108"/>
      <point x="372" y="-65"/>
      <point x="372" y="77" type="curve"/>
      <point x="338" y="30"/>
      <point x="291" y="5"/>
      <point x="244" y="5" type="curve" smooth="yes"/>
      <point x="115" y="5"/>
      <point x="42" y="89"/>
      <point x="42" y="223" type="curve" smooth="yes"/>
      <point x="42" y="366"/>
      <point x="118" y="457"/>
      <point x="235" y="457" type="curve" smooth="yes"/>
      <point x="299" y="457"/>
      <point x="339" y="439"/>
      <point x="372" y="402" type="curve"/>
      <point x="372" y="445" type="line"/>
      <point x="479" y="445" type="line"/>
    </contour>
  </outline>
</glyph>
<glyph name="h" format="2">
  <advance width="524"/>
  <unicode hex="0068"/>
  <outline>
    <contour>
      <point x="465" y="0" type="line"/>
      <point x="357" y="0" type="line"/>
      <point x="357" y="271" type="line" smooth="yes"/>
      <point x="357" y="352"/>
      <point x="325" y="390"/>
      <point x="273" y="390" type="curve" smooth="yes"/>
      <point x="204" y="390"/>
      <point x="166" y="320"/>
      <point x="166" y="273" type="curve" smooth="yes"/>
      <point x="166" y="0" type="line"/>
      <point x="59" y="0" type="line"/>
      <point x="59" y="643" type="line"/>
      <point x="166" y="643" type="line"/>
      <point x="166" y="395" type="line"/>
      <point x="197" y="436"/>
      <point x="241" y="457"/>
      <point x="310" y="457" type="curve" smooth="yes"/>
      <point x="417" y="457"/>
      <point x="465" y="394"/>
      <point x="465" y="294" type="curve" smooth="yes"/>
    </contour>
  </outline>
</glyph>
<glyph name="m" format="2">
  <advance width="808"/>
  <unicode hex="006D"/>
  <outline>
    <contour>
      <point x="748" y="0" type="line"/>
      <point x="641" y="0" type="line"/>
      <point x="641" y="286" type="line" smooth="yes"/>
      <point x="641" y="344"/>
      <point x="609" y="388"/>
      <point x="557" y="388" type="curve" smooth="yes"/>
      <point x="501" y="388"/>
      <point x="458" y="327"/>
      <point x="458" y="272" type="curve" smooth="yes"/>
      <point x="458" y="0" type="line"/>
      <point x="351" y="0" type="line"/>
      <point x="351" y="286" type="line" smooth="yes"/>
      <point x="351" y="340"/>
      <point x="319" y="388"/>
      <point x="268" y="388" type="curve" smooth="yes"/>
      <point x="205" y="388"/>
      <point x="166" y="320"/>
      <point x="166" y="268" type="curve" smooth="yes"/>
      <point x="166" y="0" type="line"/>
      <point x="59" y="0" type="line"/>
      <point x="59" y="445" type="line"/>
      <point x="166" y="445" type="line"/>
      <point x="166" y="383" type="line"/>
      <point x="201" y="434"/>
      <point x="242" y="457"/>
      <point x="303" y="457" type="curve" smooth="yes"/>
      <point x="376" y="457"/>
      <point x="413" y="436"/>
      <point x="445" y="376" type="curve"/>
      <point x="488" y="438"/>
      <point x="527" y="457"/>
      <point x="592" y="457" type="curve" smooth="yes"/>
      <point x="708" y="457"/>
      <point x="748" y="378"/>
      <point x="748" y="291" type="curve" smooth="yes"/>
    </contour>
  </outline>
</glyph>
<glyph name="n" format="2">
  <advance width="524"/>
  <unicode hex="006E"/>
  <outline>
    <contour>
      <point x="457" y="0" type="line"/>
      <point x="350" y="0" type="line"/>
      <point x="350" y="276" type="line" smooth="yes"/>
      <point x="350" y="349"/>
      <point x="315" y="391"/>
      <point x="260" y="391" type="curve" smooth="yes"/>
      <point x="200" y="391"/>
      <point x="158" y="339"/>
      <point x="158" y="259" type="curve" smooth="yes"/>
      <point x="158" y="0" type="line"/>
      <point x="51" y="0" type="line"/>
      <point x="51" y="445" type="line"/>
      <point x="158" y="445" type="line"/>
      <point x="158" y="389" type="line"/>
      <point x="191" y="438"/>
      <point x="230" y="457"/>
      <point x="300" y="457" type="curve" smooth="yes"/>
      <point x="406" y="457"/>
      <point x="457" y="395"/>
      <point x="457" y="299" type="curve" smooth="yes"/>
    </contour>
  </outline>
</glyph>
<glyph name="o" format="2">
  <advance width="535"/>
  <unicode hex="006F"/>
  <outline>
    <contour>
      <point x="385" y="222" type="curve" smooth="yes"/>
      <point x="385" y="321"/>
      <point x="347" y="387"/>
      <point x="268" y="387" type="curve" smooth="yes"/>
      <point x="189" y="387"/>
      <point x="149" y="317"/>
      <point x="149" y="222" type="curve" smooth="yes"/>
      <point x="149" y="127"/>
      <point x="189" y="58"/>
      <point x="268" y="58" type="curve" smooth="yes"/>
      <point x="347" y="58"/>
      <point x="385" y="124"/>
    </contour>
    <contour>
      <point x="494" y="222" type="curve" smooth="yes"/>
      <point x="494" y="77"/>
      <point x="397" y="-12"/>
      <point x="268" y="-12" type="curve" smooth="yes"/>
      <point x="135" y="-12"/>
      <point x="42" y="82"/>
      <point x="42" y="222" type="curve" smooth="yes"/>
      <point x="42" y="367"/>
      <point x="138" y="457"/>
      <point x="268" y="457" type="curve" smooth="yes"/>
      <point x="401" y="457"/>
      <point x="494" y="363"/>
    </contour>
  </outline>
</glyph>
<glyph name="p" format="2">
  <advance width="542"/>
  <unicode hex="0070"/>
  <outline>
    <contour>
      <point x="392" y="227" type="curve" smooth="yes"/>
      <point x="392" y="303"/>
      <point x="360" y="385"/>
      <point x="278" y="385" type="curve" smooth="yes"/>
      <point x="194" y="385"/>
      <point x="165" y="294"/>
      <point x="165" y="224" type="curve" smooth="yes"/>
      <point x="165" y="121"/>
      <point x="199" y="57"/>
      <point x="275" y="57" type="curve" smooth="yes"/>
      <point x="363" y="57"/>
      <point x="392" y="152"/>
    </contour>
    <contour>
      <point x="501" y="227" type="curve" smooth="yes"/>
      <point x="501" y="82"/>
      <point x="430" y="-13"/>
      <point x="300" y="-13" type="curve" smooth="yes"/>
      <point x="240" y="-13"/>
      <point x="206" y="5"/>
      <point x="166" y="42" type="curve"/>
      <point x="166" y="-177" type="line"/>
      <point x="59" y="-177" type="line"/>
      <point x="59" y="445" type="line"/>
      <point x="166" y="445" type="line"/>
      <point x="166" y="385" type="line"/>
      <point x="205" y="431"/>
      <point x="246" y="457"/>
      <point x="295" y="457" type="curve" smooth="yes"/>
      <point x="433" y="457"/>
      <point x="501" y="356"/>
    </contour>
  </outline>
</glyph>
<glyph name="q" format="2">
  <advance width="542"/>
  <unicode hex="0071"/>
  <outline>
    <contour>
      <point x="376" y="224" type="curve" smooth="yes"/>
      <point x="376" y="298"/>
      <point x="345" y="385"/>
      <point x="264" y="385" type="curve" smooth="yes"/>
      <point x="179" y="385"/>
      <point x="149" y="299"/>
      <point x="149" y="227" type="curve" smooth="yes"/>
      <point x="149" y="148"/>
      <point x="180" y="57"/>
      <point x="267" y="57" type="curve" smooth="yes"/>
      <point x="342" y="57"/>
      <point x="376" y="121"/>
    </contour>
    <contour>
      <point x="482" y="-177" type="line"/>
      <point x="375" y="-177" type="line"/>
      <point x="375" y="42" type="line"/>
      <point x="333" y="5"/>
      <point x="301" y="-13"/>
      <point x="241" y="-13" type="curve" smooth="yes"/>
      <point x="111" y="-13"/>
      <point x="42" y="82"/>
      <point x="42" y="227" type="curve" smooth="yes"/>
      <point x="42" y="358"/>
      <point x="109" y="457"/>
      <point x="247" y="457" type="curve" smooth="yes"/>
      <point x="302" y="457"/>
      <point x="342" y="431"/>
      <point x="375" y="385" type="curve"/>
      <point x="375" y="445" type="line"/>
      <point x="482" y="445" type="line"/>
    </contour>
  </outline>
</glyph>
<glyph name="r" format="2">
  <advance width="338"/>
  <unicode hex="0072"/>
  <outline>
    <contour>
      <point x="322" y="361" type="line"/>
      <point x="216" y="361"/>
      <point x="166" y="317"/>
      <point x="166" y="235" type="curve" smooth="yes"/>
      <point x="166" y="0" type="line"/>
      <point x="59" y="0" type="line"/>
      <point x="59" y="445" type="line"/>
      <point x="166" y="445" type="line"/>
      <point x="166" y="379" type="line"/>
      <point x="194" y="432"/>
      <point x="226" y="453"/>
      <point x="322" y="453" type="curve"/>
    </contour>
  </outline>
</glyph>
<glyph name="s" format="2">
  <advance width="458"/>
  <unicode hex="0073"/>
  <outline>
    <contour>
      <point x="416" y="136" type="curve" smooth="yes"/>
      <point x="416" y="28"/>
      <point x="317" y="-12"/>
      <point x="220" y="-12" type="curve" smooth="yes"/>
      <point x="119" y="-12"/>
      <point x="42" y="28"/>
      <point x="42" y="135" type="curve"/>
      <point x="149" y="135" type="line"/>
      <point x="150" y="77"/>
      <point x="178" y="57"/>
      <point x="231" y="57" type="curve" smooth="yes"/>
      <point x="272" y="57"/>
      <point x="312" y="82"/>
      <point x="312" y="123" type="curve" smooth="yes"/>
      <point x="312" y="224"/>
      <point x="52" y="154"/>
      <point x="52" y="327" type="curve" smooth="yes"/>
      <point x="52" y="398"/>
      <point x="114" y="457"/>
      <point x="229" y="457" type="curve" smooth="yes"/>
      <point x="340" y="457"/>
      <point x="405" y="418"/>
      <point x="405" y="318" type="curve"/>
      <point x="298" y="318" type="line"/>
      <point x="297" y="361"/>
      <point x="284" y="388"/>
      <point x="224" y="388" type="curve" smooth="yes"/>
      <point x="185" y="388"/>
      <point x="157" y="362"/>
      <point x="157" y="331" type="curve" smooth="yes"/>
      <point x="157" y="245"/>
      <point x="416" y="305"/>
    </contour>
  </outline>
</glyph>
<glyph name="t" format="2">
  <advance width="353"/>
  <unicode hex="0074"/>
  <outline>
    <contour>
      <point x="329" y="3" type="line"/>
      <point x="302" y="-7"/>
      <point x="275" y="-11"/>
      <point x="246" y="-11" type="curve" smooth="yes"/>
      <point x="172" y="-11"/>
      <point x="112" y="28"/>
      <point x="112" y="111" type="curve" smooth="yes"/>
      <point x="112" y="375" type="line"/>
      <point x="26" y="375" type="line"/>
      <point x="26" y="445" type="line"/>
      <point x="112" y="445" type="line"/>
      <point x="112" y="521" type="line"/>
      <point x="219" y="574" type="line"/>
      <point x="219" y="445" type="line"/>
      <point x="323" y="445" type="line"/>
      <point x="323" y="375" type="line"/>
      <point x="219" y="375" type="line"/>
      <point x="219" y="134" type="line" smooth="yes"/>
      <point x="219" y="84"/>
      <point x="241" y="64"/>
      <point x="283" y="64" type="curve" smooth="yes"/>
      <point x="299" y="64"/>
      <point x="315" y="67"/>
      <point x="329" y="72" type="curve"/>
    </contour>
  </outline>
</glyph>
<glyph name="u" format="2">
  <advance width="524"/>
  <unicode hex="0075"/>
  <outline>
    <contour>
      <point x="465" y="0" type="line"/>
      <point x="357" y="0" type="line"/>
      <point x="357" y="59" type="line"/>
      <point x="325" y="8"/>
      <point x="288" y="-12"/>
      <point x="216" y="-12" type="curve" smooth="yes"/>
      <point x="112" y="-12"/>
      <point x="59" y="45"/>
      <point x="59" y="145" type="curve" smooth="yes"/>
      <point x="59" y="445" type="line"/>
      <point x="166" y="445" type="line"/>
      <point x="166" y="169" type="line" smooth="yes"/>
      <point x="166" y="95"/>
      <point x="201" y="54"/>
      <point x="255" y="54" type="curve" smooth="yes"/>
      <point x="318" y="54"/>
      <point x="357" y="99"/>
      <point x="357" y="184" type="curve" smooth="yes"/>
      <point x="357" y="445" type="line"/>
      <point x="465" y="445" type="line"/>
    </contour>
  </outline>
</glyph>
<glyph name="w" format="2">
  <advance width="750"/>
  <unicode hex="0077"/>
  <outline>
    <contour>
      <point x="739" y="445" type="line"/>
      <point x="599" y="0" type="line"/>
      <point x="477" y="0" type="line"/>
      <point x="375" y="331" type="line"/>
      <point x="273" y="0" type="line"/>
      <point x="151" y="0" type="line"/>
      <point x="10" y="445" type="line"/>
      <point x="122" y="445" type="line"/>
      <point x="214" y="133" type="line"/>
      <point x="311" y="445" type="line"/>
      <point x="438" y="445" type="line"/>
      <point x="536" y="133" type="line"/>
      <point x="629" y="445" type="line"/>
    </contour>
  </outline>
</glyph>
<glyph name="braceleft" format="2">
  <advance width="430"/>
  <unicode hex="007B"/>
  <outline>
    <contour>
      <point x="375" y="-413" type="line"/>
      <point x="184" y="-413"/>
      <point x="171" y="-203"/>
      <point x="171" y="61" type="curve" smooth="yes"/>
      <point x="171" y="144"/>
      <point x="70" y="165"/>
      <point x="70" y="226" type="curve" smooth="yes"/>
      <point x="70" y="285"/>
      <point x="171" y="308"/>
      <point x="171" y="390" type="curve" smooth="yes"/>
      <point x="171" y="654"/>
      <point x="184" y="864"/>
      <point x="375" y="864" type="curve"/>
      <point x="375" y="773" type="line"/>
      <point x="279" y="773"/>
      <point x="264" y="630"/>
      <point x="264" y="376" type="curve" smooth="yes"/>
      <point x="264" y="270"/>
      <point x="177" y="238"/>
      <point x="177" y="226" type="curve" smooth="yes"/>
      <point x="177" y="214"/>
      <point x="264" y="183"/>
      <point x="264" y="74" type="curve" smooth="yes"/>
      <point x="264" y="-179"/>
      <point x="279" y="-322"/>
      <point x="375" y="-322" type="curve"/>
    </contour>
  </outline>
</glyph>
<glyph name="bar" format="2">
  <advance width="336"/>
  <unicode hex="007C"/>
  <outline>
    <contour>
      <point x="212" y="-230" type="line"/>
      <point x="124" y="-230" type="line"/>
      <point x="124" y="709" type="line"/>
      <point x="212" y="709" type="line"/>
    </contour>
  </outline>
</glyph>
<glyph name="multiply" format="2">
  <advance width="530"/>
  <unicode hex="00D7"/>
  <outline>
    <contour>
      <point x="438" y="118" type="line"/>
      <point x="371" y="52" type="line"/>
      <point x="266" y="158" type="line"/>
      <point x="160" y="52" type="line"/>
      <point x="94" y="117" type="line"/>
      <point x="200" y="224" type="line"/>
      <point x="95" y="329" type="line"/>
      <point x="160" y="395" type="line"/>
      <point x="266" y="289" type="line"/>
      <point x="372" y="397" type="line"/>
      <point x="439" y="330" type="line"/>
      <point x="333" y="224" type="line"/>
    </contour>
  </outline>
</glyph>
<glyph name="u1003" format="2">
  <advance width="979"/>
  <unicode hex="1003"/>
  <anchor x="0" y="0" name="_R"/>
  <anchor x="684" y="-53" name="BS"/>
  <anchor x="684" y="-53" name="L"/>
  <anchor x="488" y="-53" name="BD"/>
  <anchor x="684" y="495" name="U"/>
  <outline>
    <contour>
      <point x="924" y="222" type="curve" smooth="yes"/>
      <point x="924" y="90"/>
      <point x="814" y="-20"/>
      <point x="684" y="-20" type="curve" smooth="yes"/>
      <point x="599" y="-20"/>
      <point x="530" y="30"/>
      <point x="490" y="93" type="curve"/>
      <point x="446" y="21"/>
      <point x="372" y="-20"/>
      <point x="290" y="-20" type="curve" smooth="yes"/>
      <point x="146" y="-20"/>
      <point x="55" y="83"/>
      <point x="55" y="167" type="curve" smooth="yes"/>
      <point x="55" y="311"/>
      <point x="194" y="286"/>
      <point x="194" y="341" type="curve" smooth="yes"/>
      <point x="194" y="369"/>
      <point x="177" y="380"/>
      <point x="159" y="380" type="curve" smooth="yes"/>
      <point x="141" y="380"/>
      <point x="129" y="365"/>
      <point x="126" y="353" type="curve"/>
      <point x="55" y="395" type="line"/>
      <point x="64" y="433"/>
      <point x="114" y="463"/>
      <point x="159" y="463" type="curve" smooth="yes"/>
      <point x="217" y="463"/>
      <point x="277" y="423"/>
      <point x="277" y="341" type="curve" smooth="yes"/>
      <point x="277" y="234"/>
      <point x="148" y="243"/>
      <point x="148" y="167" type="curve" smooth="yes"/>
      <point x="148" y="137"/>
      <point x="196" y="73"/>
      <point x="290" y="73" type="curve" smooth="yes"/>
      <point x="376" y="73"/>
      <point x="438" y="143"/>
      <point x="438" y="244" type="curve" smooth="yes"/>
      <point x="438" y="300"/>
      <point x="420" y="354"/>
      <point x="385" y="387" type="curve"/>
      <point x="439" y="463" type="line"/>
      <point x="502" y="415"/>
      <point x="532" y="338"/>
      <point x="532" y="236" type="curve" smooth="yes"/>
      <point x="532" y="166"/>
      <point x="605" y="73"/>
      <point x="684" y="73" type="curve" smooth="yes"/>
      <point x="765" y="73"/>
      <point x="831" y="141"/>
      <point x="831" y="222" type="curve" smooth="yes"/>
      <point x="831" y="302"/>
      <point x="765" y="370"/>
      <point x="684" y="370" type="curve" smooth="yes"/>
      <point x="674" y="370"/>
      <point x="660" y="368"/>
      <point x="650" y="364" type="curve"/>
      <point x="613" y="450" type="line"/>
      <point x="632" y="460"/>
      <point x="658" y="464"/>
      <point x="684" y="464" type="curve" smooth="yes"/>
      <point x="814" y="464"/>
      <point x="924" y="356"/>
    </contour>
  </outline>
</glyph>
<glyph name="u1004" format="2">
  <advance width="574"/>
  <unicode hex="1004"/>
  <anchor x="0" y="0" name="_R"/>
  <anchor x="296" y="-53" name="BS"/>
  <anchor x="296" y="-53" name="L"/>
  <anchor x="296" y="495" name="U"/>
  <anchor x="292" y="-53" name="BD"/>
  <outline>
    <contour>
      <point x="519" y="112" type="line"/>
      <point x="476" y="28"/>
      <point x="387" y="-20"/>
      <point x="296" y="-20" type="curve" smooth="yes"/>
      <point x="165" y="-20"/>
      <point x="55" y="88"/>
      <point x="55" y="222" type="curve" smooth="yes"/>
      <point x="55" y="354"/>
      <point x="165" y="464"/>
      <point x="296" y="464" type="curve" smooth="yes"/>
      <point x="382" y="464"/>
      <point x="478" y="419"/>
      <point x="519" y="331" type="curve"/>
      <point x="436" y="288" type="line"/>
      <point x="403" y="344"/>
      <point x="353" y="370"/>
      <point x="296" y="370" type="curve" smooth="yes"/>
      <point x="216" y="370"/>
      <point x="148" y="302"/>
      <point x="148" y="222" type="curve" smooth="yes"/>
      <point x="148" y="141"/>
      <point x="216" y="73"/>
      <point x="296" y="73" type="curve" smooth="yes"/>
      <point x="356" y="73"/>
      <point x="407" y="102"/>
      <point x="436" y="156" type="curve"/>
    </contour>
  </outline>
</glyph>
<glyph name="u1007" format="2">
  <advance width="635"/>
  <unicode hex="1007"/>
  <anchor x="0" y="0" name="_R"/>
  <anchor x="293" y="-53" name="BS"/>
  <anchor x="293" y="-53" name="L"/>
  <anchor x="295" y="495" name="U"/>
  <anchor x="286" y="-53" name="BD"/>
  <outline>
    <contour>
      <point x="432" y="252" type="curve"/>
      <point x="414" y="272"/>
      <point x="401" y="276"/>
      <point x="373" y="276" type="curve" smooth="yes"/>
      <point x="352" y="276"/>
      <point x="337" y="265"/>
      <point x="337" y="243" type="curve" smooth="yes"/>
      <point x="337" y="223"/>
      <point x="361" y="216"/>
      <point x="377" y="216" type="curve" smooth="yes"/>
      <point x="405" y="216"/>
      <point x="428" y="226"/>
    </contour>
    <contour>
      <point x="594" y="152" type="curve"/>
      <point x="527" y="103" type="line"/>
      <point x="515" y="126"/>
      <point x="494" y="165"/>
      <point x="480" y="185" type="curve"/>
      <point x="454" y="156"/>
      <point x="415" y="143"/>
      <point x="377" y="143" type="curve" smooth="yes"/>
      <point x="319" y="143"/>
      <point x="264" y="180"/>
      <point x="264" y="243" type="curve" smooth="yes"/>
      <point x="264" y="289"/>
      <point x="292" y="337"/>
      <point x="356" y="345" type="curve" smooth="yes"/>
      <point x="362" y="345"/>
      <point x="370" y="344"/>
      <point x="377" y="340" type="curve"/>
      <point x="360" y="358"/>
      <point x="334" y="374"/>
      <point x="294" y="374" type="curve" smooth="yes"/>
      <point x="220" y="374"/>
      <point x="148" y="300"/>
      <point x="148" y="222" type="curve" smooth="yes"/>
      <point x="148" y="139"/>
      <point x="212" y="73"/>
      <point x="293" y="73" type="curve" smooth="yes"/>
      <point x="346" y="73"/>
      <point x="381" y="86"/>
      <point x="410" y="109" type="curve"/>
      <point x="475" y="43" type="line"/>
      <point x="433" y="1"/>
      <point x="386" y="-20"/>
      <point x="293" y="-20" type="curve" smooth="yes"/>
      <point x="163" y="-20"/>
      <point x="55" y="88"/>
      <point x="55" y="222" type="curve" smooth="yes"/>
      <point x="55" y="353"/>
      <point x="167" y="464"/>
      <point x="293" y="464" type="curve" smooth="yes"/>
      <point x="396" y="464"/>
      <point x="497" y="406"/>
      <point x="509" y="295" type="curve"/>
      <point x="535" y="264"/>
      <point x="570" y="202"/>
    </contour>
  </outline>
</glyph>
<glyph name="u1008" format="2">
  <advance width="799"/>
  <unicode hex="1008"/>
  <anchor x="0" y="0" name="_R"/>
  <anchor x="873" y="-53" name="BS"/>
  <anchor x="183" y="-53" name="LL"/>
  <anchor x="873" y="-53" name="L"/>
  <anchor x="534" y="492" name="U"/>
  <anchor x="810" y="-53" name="BD"/>
  <outline>
    <contour>
      <point x="247" y="223" type="curve" smooth="yes"/>
      <point x="247" y="259"/>
      <point x="236" y="300"/>
      <point x="202" y="338" type="curve"/>
      <point x="169" y="311"/>
      <point x="148" y="269"/>
      <point x="148" y="223" type="curve" smooth="yes"/>
      <point x="148" y="174"/>
      <point x="169" y="134"/>
      <point x="201" y="107" type="curve"/>
      <point x="233" y="145"/>
      <point x="247" y="186"/>
    </contour>
    <contour>
      <point x="437" y="223" type="curve" smooth="yes"/>
      <point x="437" y="302"/>
      <point x="375" y="368"/>
      <point x="300" y="372" type="curve" smooth="yes"/>
      <point x="292" y="372"/>
      <point x="284" y="370"/>
      <point x="277" y="367" type="curve"/>
      <point x="316" y="320"/>
      <point x="326" y="265"/>
      <point x="326" y="223" type="curve" smooth="yes"/>
      <point x="326" y="179"/>
      <point x="314" y="124"/>
      <point x="276" y="77" type="curve"/>
      <point x="283" y="74"/>
      <point x="290" y="73"/>
      <point x="299" y="73" type="curve" smooth="yes"/>
      <point x="375" y="78"/>
      <point x="437" y="144"/>
    </contour>
    <contour>
      <point x="718" y="-464" type="line"/>
      <point x="339" y="-372" type="line"/>
      <point x="339" y="-14" type="line"/>
      <point x="322" y="-18"/>
      <point x="309" y="-19"/>
      <point x="294" y="-19" type="curve" smooth="yes"/>
      <point x="160" y="-19"/>
      <point x="55" y="88"/>
      <point x="55" y="223" type="curve" smooth="yes"/>
      <point x="55" y="354"/>
      <point x="161" y="465"/>
      <point x="291" y="465" type="curve" smooth="yes"/>
      <point x="426" y="465"/>
      <point x="530" y="354"/>
      <point x="530" y="223" type="curve" smooth="yes"/>
      <point x="530" y="140"/>
      <point x="493" y="69"/>
      <point x="432" y="26" type="curve"/>
      <point x="432" y="-299" type="line"/>
      <point x="625" y="-344" type="line"/>
      <point x="625" y="459" type="line"/>
      <point x="718" y="459" type="line"/>
    </contour>
  </outline>
</glyph>
<glyph name="u100C" format="2">
  <advance width="574"/>
  <unicode hex="100C"/>
  <anchor x="0" y="0" name="_R"/>
  <anchor x="675" y="-53" name="BS"/>
  <anchor x="675" y="-53" name="L"/>
  <anchor x="296" y="495" name="U"/>
  <anchor x="657" y="-53" name="BD"/>
  <outline>
    <contour>
      <point x="519" y="112" type="line"/>
      <point x="519" y="-270" type="line" smooth="yes"/>
      <point x="519" y="-335"/>
      <point x="495" y="-375"/>
      <point x="465" y="-407" type="curve" smooth="yes"/>
      <point x="434" y="-438"/>
      <point x="394" y="-464"/>
      <point x="334" y="-464" type="curve" smooth="yes"/>
      <point x="198" y="-464" type="line" smooth="yes"/>
      <point x="107" y="-464"/>
      <point x="69" y="-382"/>
      <point x="69" y="-324" type="curve" smooth="yes"/>
      <point x="69" y="-248"/>
      <point x="129" y="-187"/>
      <point x="209" y="-187" type="curve" smooth="yes"/>
      <point x="255" y="-187"/>
      <point x="281" y="-197"/>
      <point x="302" y="-213" type="curve"/>
      <point x="256" y="-294" type="line"/>
      <point x="241" y="-286"/>
      <point x="228" y="-280"/>
      <point x="209" y="-280" type="curve" smooth="yes"/>
      <point x="187" y="-280"/>
      <point x="163" y="-293"/>
      <point x="163" y="-324" type="curve" smooth="yes"/>
      <point x="163" y="-354"/>
      <point x="185" y="-371"/>
      <point x="216" y="-371" type="curve" smooth="yes"/>
      <point x="309" y="-371" type="line" smooth="yes"/>
      <point x="358" y="-371"/>
      <point x="378" y="-363"/>
      <point x="399" y="-342" type="curve" smooth="yes"/>
      <point x="417" y="-324"/>
      <point x="426" y="-295"/>
      <point x="426" y="-259" type="curve" smooth="yes"/>
      <point x="426" y="17" type="line"/>
      <point x="385" y="-8"/>
      <point x="339" y="-20"/>
      <point x="296" y="-20" type="curve" smooth="yes"/>
      <point x="165" y="-20"/>
      <point x="55" y="88"/>
      <point x="55" y="222" type="curve" smooth="yes"/>
      <point x="55" y="354"/>
      <point x="165" y="464"/>
      <point x="296" y="464" type="curve" smooth="yes"/>
      <point x="375" y="464"/>
      <point x="472" y="425"/>
      <point x="519" y="331" type="curve"/>
      <point x="436" y="288" type="line"/>
      <point x="402" y="344"/>
      <point x="352" y="370"/>
      <point x="296" y="370" type="curve" smooth="yes"/>
      <point x="216" y="370"/>
      <point x="148" y="302"/>
      <point x="148" y="222" type="curve" smooth="yes"/>
      <point x="148" y="141"/>
      <point x="216" y="73"/>
      <point x="296" y="73" type="curve" smooth="yes"/>
      <point x="352" y="73"/>
      <point x="401" y="97"/>
      <point x="436" y="156" type="curve"/>
    </contour>
  </outline>
</glyph>
<glyph name="u100F" format="2">
  <advance width="1047"/>
  <unicode hex="100F"/>
  <anchor x="0" y="0" name="_R"/>
  <anchor x="767" y="-53" name="BS"/>
  <anchor x="767" y="-53" name="L"/>
  <anchor x="526" y="-53" name="BD"/>
  <anchor x="767" y="495" name="U"/>
  <outline>
    <contour>
      <point x="591" y="349" type="curve"/>
      <point x="575" y="360"/>
      <point x="547" y="370"/>
      <point x="526" y="370" type="curve" smooth="yes"/>
      <point x="504" y="370"/>
      <point x="476" y="361"/>
      <point x="459" y="350" type="curve"/>
      <point x="478" y="314"/>
      <point x="489" y="272"/>
      <point x="489" y="222" type="curve" smooth="yes"/>
      <point x="489" y="195"/>
      <point x="472" y="148"/>
      <point x="472" y="129" type="curve" smooth="yes"/>
      <point x="472" y="88"/>
      <point x="495" y="73"/>
      <point x="526" y="73" type="curve" smooth="yes"/>
      <point x="552" y="73"/>
      <point x="578" y="88"/>
      <point x="578" y="129" type="curve" smooth="yes"/>
      <point x="578" y="153"/>
      <point x="563" y="195"/>
      <point x="563" y="222" type="curve" smooth="yes"/>
      <point x="563" y="271"/>
      <point x="572" y="314"/>
    </contour>
    <contour>
      <point x="991" y="222" type="curve" smooth="yes"/>
      <point x="991" y="88"/>
      <point x="903" y="-20"/>
      <point x="772" y="-20" type="curve" smooth="yes"/>
      <point x="755" y="-20"/>
      <point x="732" y="-18"/>
      <point x="719" y="-11" type="curve"/>
      <point x="751" y="77" type="line"/>
      <point x="757" y="75"/>
      <point x="765" y="73"/>
      <point x="772" y="73" type="curve" smooth="yes"/>
      <point x="853" y="73"/>
      <point x="898" y="141"/>
      <point x="898" y="222" type="curve" smooth="yes"/>
      <point x="898" y="302"/>
      <point x="848" y="370"/>
      <point x="767" y="370" type="curve" smooth="yes"/>
      <point x="694" y="370"/>
      <point x="655" y="301"/>
      <point x="655" y="222" type="curve" smooth="yes"/>
      <point x="655" y="170"/>
      <point x="673" y="150"/>
      <point x="673" y="106" type="curve" smooth="yes"/>
      <point x="673" y="24"/>
      <point x="591" y="-20"/>
      <point x="526" y="-20" type="curve" smooth="yes"/>
      <point x="462" y="-20"/>
      <point x="378" y="24"/>
      <point x="378" y="106" type="curve" smooth="yes"/>
      <point x="378" y="156"/>
      <point x="397" y="171"/>
      <point x="397" y="222" type="curve" smooth="yes"/>
      <point x="397" y="302"/>
      <point x="354" y="370"/>
      <point x="280" y="370" type="curve" smooth="yes"/>
      <point x="199" y="370"/>
      <point x="148" y="302"/>
      <point x="148" y="222" type="curve" smooth="yes"/>
      <point x="148" y="141"/>
      <point x="193" y="73"/>
      <point x="275" y="73" type="curve" smooth="yes"/>
      <point x="284" y="73"/>
      <point x="291" y="75"/>
      <point x="296" y="77" type="curve"/>
      <point x="327" y="-11" type="line"/>
      <point x="315" y="-18"/>
      <point x="291" y="-20"/>
      <point x="275" y="-20" type="curve" smooth="yes"/>
      <point x="143" y="-20"/>
      <point x="55" y="88"/>
      <point x="55" y="222" type="curve" smooth="yes"/>
      <point x="55" y="354"/>
      <point x="148" y="464"/>
      <point x="280" y="464" type="curve" smooth="yes"/>
      <point x="319" y="464"/>
      <point x="364" y="449"/>
      <point x="401" y="422" type="curve"/>
      <point x="436" y="447"/>
      <point x="473" y="464"/>
      <point x="526" y="464" type="curve" smooth="yes"/>
      <point x="576" y="464"/>
      <point x="616" y="447"/>
      <point x="649" y="423" type="curve"/>
      <point x="689" y="450"/>
      <point x="731" y="464"/>
      <point x="767" y="464" type="curve" smooth="yes"/>
      <point x="898" y="464"/>
      <point x="991" y="354"/>
    </contour>
  </outline>
</glyph>
<glyph name="u1010" format="2">
  <advance width="976"/>
  <unicode hex="1010"/>
  <anchor x="0" y="0" name="_R"/>
  <anchor x="681" y="-53" name="BS"/>
  <anchor x="681" y="-53" name="L"/>
  <anchor x="489" y="-53" name="BD"/>
  <anchor x="681" y="495" name="U"/>
  <outline>
    <contour>
      <point x="437" y="220" type="curve" smooth="yes"/>
      <point x="437" y="301"/>
      <point x="374" y="370"/>
      <point x="294" y="370" type="curve" smooth="yes"/>
      <point x="213" y="370"/>
      <point x="148" y="302"/>
      <point x="148" y="222" type="curve" smooth="yes"/>
      <point x="148" y="141"/>
      <point x="213" y="73"/>
      <point x="291" y="73" type="curve" smooth="yes"/>
      <point x="373" y="73"/>
      <point x="437" y="143"/>
    </contour>
    <contour>
      <point x="922" y="222" type="curve" smooth="yes"/>
      <point x="922" y="88"/>
      <point x="812" y="-20"/>
      <point x="681" y="-20" type="curve" smooth="yes"/>
      <point x="656" y="-20"/>
      <point x="630" y="-17"/>
      <point x="611" y="-7" type="curve"/>
      <point x="648" y="78" type="line"/>
      <point x="658" y="75"/>
      <point x="670" y="73"/>
      <point x="681" y="73" type="curve" smooth="yes"/>
      <point x="762" y="73"/>
      <point x="829" y="141"/>
      <point x="829" y="222" type="curve" smooth="yes"/>
      <point x="829" y="302"/>
      <point x="762" y="370"/>
      <point x="681" y="370" type="curve" smooth="yes"/>
      <point x="596" y="370"/>
      <point x="536" y="275"/>
      <point x="530" y="217" type="curve"/>
      <point x="530" y="99"/>
      <point x="432" y="-20"/>
      <point x="294" y="-20" type="curve" smooth="yes"/>
      <point x="160" y="-20"/>
      <point x="55" y="88"/>
      <point x="55" y="222" type="curve" smooth="yes"/>
      <point x="55" y="354"/>
      <point x="161" y="464"/>
      <point x="291" y="464" type="curve" smooth="yes"/>
      <point x="374" y="464"/>
      <point x="448" y="419"/>
      <point x="489" y="354" type="curve"/>
      <point x="529" y="414"/>
      <point x="599" y="464"/>
      <point x="681" y="464" type="curve" smooth="yes"/>
      <point x="812" y="464"/>
      <point x="922" y="354"/>
    </contour>
  </outline>
</glyph>
<glyph name="u1013" format="2">
  <advance width="586"/>
  <unicode hex="1013"/>
  <anchor x="0" y="0" name="_R"/>
  <anchor x="294" y="-53" name="BS"/>
  <anchor x="294" y="-53" name="L"/>
  <anchor x="294" y="495" name="U"/>
  <anchor x="288" y="-53" name="BD"/>
  <outline>
    <contour>
      <point x="406" y="131" type="curve"/>
      <point x="370" y="161"/>
      <point x="331" y="173"/>
      <point x="294" y="173" type="curve" smooth="yes"/>
      <point x="259" y="173"/>
      <point x="218" y="161"/>
      <point x="179" y="128" type="curve"/>
      <point x="207" y="95"/>
      <point x="246" y="73"/>
      <point x="291" y="73" type="curve" smooth="yes"/>
      <point x="338" y="73"/>
      <point x="379" y="97"/>
    </contour>
    <contour>
      <point x="436" y="229" type="curve" smooth="yes"/>
      <point x="432" y="305"/>
      <point x="369" y="370"/>
      <point x="294" y="370" type="curve" smooth="yes"/>
      <point x="217" y="370"/>
      <point x="151" y="307"/>
      <point x="148" y="228" type="curve" smooth="yes"/>
      <point x="148" y="220"/>
      <point x="150" y="212"/>
      <point x="153" y="205" type="curve"/>
      <point x="195" y="243"/>
      <point x="250" y="252"/>
      <point x="293" y="252" type="curve" smooth="yes"/>
      <point x="335" y="252"/>
      <point x="390" y="241"/>
      <point x="432" y="205" type="curve"/>
      <point x="435" y="213"/>
      <point x="436" y="221"/>
    </contour>
    <contour>
      <point x="530" y="222" type="curve" smooth="yes"/>
      <point x="530" y="88"/>
      <point x="425" y="-20"/>
      <point x="294" y="-20" type="curve" smooth="yes"/>
      <point x="160" y="-20"/>
      <point x="55" y="88"/>
      <point x="55" y="222" type="curve" smooth="yes"/>
      <point x="55" y="354"/>
      <point x="161" y="464"/>
      <point x="291" y="464" type="curve" smooth="yes"/>
      <point x="425" y="464"/>
      <point x="530" y="354"/>
    </contour>
  </outline>
</glyph>
<glyph name="u1015" format="2">
  <advance width="595"/>
  <unicode hex="1015"/>
  <anchor x="0" y="0" name="_R"/>
  <anchor x="297" y="-53" name="BS"/>
  <anchor x="297" y="-53" name="L"/>
  <anchor x="297" y="495" name="U"/>
  <anchor x="292" y="-53" name="BD"/>
  <outline>
    <contour>
      <point x="539" y="238" type="curve" smooth="yes"/>
      <point x="539" y="95"/>
      <point x="434" y="-20"/>
      <point x="297" y="-20" type="curve" smooth="yes"/>
      <point x="160" y="-20"/>
      <point x="55" y="95"/>
      <point x="55" y="238" type="curve" smooth="yes"/>
      <point x="55" y="338"/>
      <point x="81" y="405"/>
      <point x="148" y="463" type="curve"/>
      <point x="202" y="387" type="line"/>
      <point x="165" y="344"/>
      <point x="148" y="312"/>
      <point x="148" y="238" type="curve" smooth="yes"/>
      <point x="148" y="151"/>
      <point x="207" y="73"/>
      <point x="297" y="73" type="curve" smooth="yes"/>
      <point x="387" y="73"/>
      <point x="446" y="151"/>
      <point x="446" y="238" type="curve" smooth="yes"/>
      <point x="446" y="312"/>
      <point x="430" y="344"/>
      <point x="393" y="387" type="curve"/>
      <point x="447" y="463" type="line"/>
      <point x="514" y="405"/>
      <point x="539" y="338"/>
    </contour>
  </outline>
</glyph>
<glyph name="u1017" format="2">
  <advance width="595"/>
  <unicode hex="1017"/>
  <anchor x="0" y="0" name="_R"/>
  <anchor x="297" y="-53" name="BS"/>
  <anchor x="297" y="-53" name="L"/>
  <anchor x="297" y="495" name="U"/>
  <anchor x="292" y="-53" name="BD"/>
  <outline>
    <contour>
      <point x="446" y="232" type="curve" smooth="yes"/>
      <point x="446" y="267"/>
      <point x="439" y="291"/>
      <point x="426" y="314" type="curve"/>
      <point x="397" y="279"/>
      <point x="354" y="260"/>
      <point x="297" y="260" type="curve" smooth="yes"/>
      <point x="240" y="260"/>
      <point x="197" y="280"/>
      <point x="168" y="315" type="curve"/>
      <point x="154" y="291"/>
      <point x="148" y="268"/>
      <point x="148" y="232" type="curve" smooth="yes"/>
      <point x="148" y="151"/>
      <point x="208" y="73"/>
      <point x="297" y="73" type="curve" smooth="yes"/>
      <point x="387" y="73"/>
      <point x="446" y="151"/>
    </contour>
    <contour>
      <point x="539" y="232" type="curve" smooth="yes"/>
      <point x="539" y="96"/>
      <point x="433" y="-20"/>
      <point x="297" y="-20" type="curve" smooth="yes"/>
      <point x="161" y="-20"/>
      <point x="55" y="96"/>
      <point x="55" y="232" type="curve" smooth="yes"/>
      <point x="55" y="329"/>
      <point x="80" y="416"/>
      <point x="147" y="463" type="curve"/>
      <point x="197" y="379"/>
      <point x="247" y="353"/>
      <point x="297" y="353" type="curve" smooth="yes"/>
      <point x="347" y="353"/>
      <point x="398" y="379"/>
      <point x="447" y="463" type="curve"/>
      <point x="514" y="416"/>
      <point x="539" y="327"/>
    </contour>
  </outline>
</glyph>
<glyph name="u1018" format="2">
  <advance width="965"/>
  <unicode hex="1018"/>
  <anchor x="0" y="0" name="_R"/>
  <anchor x="670" y="-53" name="BS"/>
  <anchor x="670" y="-53" name="L"/>
  <anchor x="477" y="-53" name="BD"/>
  <anchor x="670" y="495" name="U"/>
  <outline>
    <contour>
      <point x="910" y="222" type="curve" smooth="yes"/>
      <point x="910" y="88"/>
      <point x="800" y="-20"/>
      <point x="670" y="-20" type="curve" smooth="yes"/>
      <point x="642" y="-20"/>
      <point x="618" y="-17"/>
      <point x="599" y="-7" type="curve"/>
      <point x="635" y="78" type="line"/>
      <point x="646" y="75"/>
      <point x="659" y="73"/>
      <point x="670" y="73" type="curve" smooth="yes"/>
      <point x="750" y="73"/>
      <point x="817" y="140"/>
      <point x="817" y="222" type="curve" smooth="yes"/>
      <point x="817" y="302"/>
      <point x="750" y="370"/>
      <point x="670" y="370" type="curve" smooth="yes"/>
      <point x="591" y="370"/>
      <point x="522" y="282"/>
      <point x="518" y="210" type="curve"/>
      <point x="518" y="99"/>
      <point x="417" y="-20"/>
      <point x="279" y="-20" type="curve" smooth="yes"/>
      <point x="197" y="-20"/>
      <point x="101" y="20"/>
      <point x="55" y="112" type="curve"/>
      <point x="138" y="156" type="line"/>
      <point x="179" y="85"/>
      <point x="243" y="73"/>
      <point x="279" y="73" type="curve" smooth="yes"/>
      <point x="363" y="73"/>
      <point x="426" y="142"/>
      <point x="426" y="220" type="curve" smooth="yes"/>
      <point x="426" y="301"/>
      <point x="362" y="370"/>
      <point x="279" y="370" type="curve" smooth="yes"/>
      <point x="243" y="370"/>
      <point x="179" y="356"/>
      <point x="138" y="288" type="curve"/>
      <point x="55" y="331" type="line"/>
      <point x="102" y="425"/>
      <point x="198" y="464"/>
      <point x="279" y="464" type="curve" smooth="yes"/>
      <point x="362" y="464"/>
      <point x="436" y="420"/>
      <point x="477" y="354" type="curve"/>
      <point x="518" y="414"/>
      <point x="585" y="464"/>
      <point x="670" y="464" type="curve" smooth="yes"/>
      <point x="800" y="464"/>
      <point x="910" y="354"/>
    </contour>
  </outline>
</glyph>
<glyph name="u1019" format="2">
  <advance width="595"/>
  <unicode hex="1019"/>
  <anchor x="0" y="0" name="_R"/>
  <anchor x="298" y="-53" name="BS"/>
  <anchor x="298" y="-53" name="L"/>
  <anchor x="297" y="495" name="U"/>
  <anchor x="294" y="-53" name="BD"/>
  <outline>
    <contour>
      <point x="411" y="129" type="curve"/>
      <point x="375" y="161"/>
      <point x="336" y="173"/>
      <point x="297" y="173" type="curve" smooth="yes"/>
      <point x="262" y="173"/>
      <point x="221" y="161"/>
      <point x="184" y="129" type="curve"/>
      <point x="209" y="96"/>
      <point x="249" y="73"/>
      <point x="297" y="73" type="curve" smooth="yes"/>
      <point x="347" y="73"/>
      <point x="384" y="95"/>
    </contour>
    <contour>
      <point x="539" y="238" type="curve" smooth="yes"/>
      <point x="539" y="94"/>
      <point x="434" y="-20"/>
      <point x="297" y="-20" type="curve" smooth="yes"/>
      <point x="160" y="-20"/>
      <point x="55" y="94"/>
      <point x="55" y="238" type="curve" smooth="yes"/>
      <point x="55" y="338"/>
      <point x="81" y="405"/>
      <point x="148" y="463" type="curve"/>
      <point x="202" y="387" type="line"/>
      <point x="164" y="344"/>
      <point x="148" y="306"/>
      <point x="148" y="238" type="curve" smooth="yes"/>
      <point x="148" y="228"/>
      <point x="150" y="215"/>
      <point x="154" y="205" type="curve"/>
      <point x="195" y="241"/>
      <point x="248" y="252"/>
      <point x="297" y="252" type="curve" smooth="yes"/>
      <point x="348" y="252"/>
      <point x="397" y="240"/>
      <point x="441" y="204" type="curve"/>
      <point x="444" y="215"/>
      <point x="446" y="227"/>
      <point x="446" y="238" type="curve" smooth="yes"/>
      <point x="446" y="305"/>
      <point x="430" y="343"/>
      <point x="393" y="387" type="curve"/>
      <point x="447" y="463" type="line"/>
      <point x="514" y="405"/>
      <point x="539" y="338"/>
    </contour>
  </outline>
</glyph>
<glyph name="u101D" format="2">
  <advance width="585"/>
  <unicode hex="101D"/>
  <anchor x="0" y="0" name="_R"/>
  <anchor x="293" y="-53" name="BS"/>
  <anchor x="293" y="-53" name="L"/>
  <anchor x="293" y="495" name="U"/>
  <anchor x="286" y="-53" name="BD"/>
  <outline>
    <contour>
      <point x="437" y="222" type="curve" smooth="yes"/>
      <point x="437" y="303"/>
      <point x="371" y="370"/>
      <point x="294" y="370" type="curve" smooth="yes"/>
      <point x="212" y="370"/>
      <point x="148" y="303"/>
      <point x="148" y="222" type="curve" smooth="yes"/>
      <point x="148" y="141"/>
      <point x="212" y="73"/>
      <point x="292" y="73" type="curve" smooth="yes"/>
      <point x="373" y="73"/>
      <point x="437" y="141"/>
    </contour>
    <contour>
      <point x="530" y="222" type="curve" smooth="yes"/>
      <point x="530" y="88"/>
      <point x="424" y="-20"/>
      <point x="294" y="-20" type="curve" smooth="yes"/>
      <point x="171" y="-20"/>
      <point x="55" y="88"/>
      <point x="55" y="222" type="curve" smooth="yes"/>
      <point x="55" y="354"/>
      <point x="161" y="464"/>
      <point x="292" y="464" type="curve" smooth="yes"/>
      <point x="424" y="464"/>
      <point x="530" y="354"/>
    </contour>
  </outline>
</glyph>
<glyph name="u1021" format="2">
  <advance width="932"/>
  <unicode hex="1021"/>
  <anchor x="0" y="0" name="_R"/>
  <anchor x="637" y="-53" name="BS"/>
  <anchor x="637" y="-53" name="L"/>
  <anchor x="454" y="-53" name="BD"/>
  <anchor x="637" y="495" name="U"/>
  <outline>
    <contour>
      <point x="783" y="213" type="curve"/>
      <point x="751" y="212"/>
      <point x="714" y="196"/>
      <point x="690" y="177" type="curve" smooth="yes"/>
      <point x="657" y="154"/>
      <point x="639" y="117"/>
      <point x="627" y="74" type="curve"/>
      <point x="671.669" y="74"/>
      <point x="699.613" y="82.3443"/>
      <point x="734" y="111" type="curve" smooth="yes"/>
      <point x="761" y="133"/>
      <point x="778" y="167"/>
    </contour>
    <contour>
      <point x="877" y="222" type="curve" smooth="yes"/>
      <point x="877" y="85"/>
      <point x="766" y="-20"/>
      <point x="635" y="-20" type="curve" smooth="yes"/>
      <point x="599" y="-20"/>
      <point x="565" y="-15"/>
      <point x="536" y="4" type="curve"/>
      <point x="536" y="90"/>
      <point x="569" y="172"/>
      <point x="632" y="228" type="curve" smooth="yes"/>
      <point x="664" y="257"/>
      <point x="714" y="278"/>
      <point x="759" y="286" type="curve"/>
      <point x="745" y="333"/>
      <point x="693" y="370"/>
      <point x="637" y="370" type="curve" smooth="yes"/>
      <point x="585" y="370"/>
      <point x="526" y="348"/>
      <point x="490" y="306" type="curve"/>
      <point x="485" y="268"/>
      <point x="468" y="238"/>
      <point x="438" y="221" type="curve"/>
      <point x="471" y="200"/>
      <point x="490" y="166"/>
      <point x="490" y="130" type="curve" smooth="yes"/>
      <point x="490" y="89"/>
      <point x="472" y="53"/>
      <point x="438" y="24" type="curve" smooth="yes"/>
      <point x="404" y="-6"/>
      <point x="349" y="-20"/>
      <point x="273" y="-20" type="curve" smooth="yes"/>
      <point x="126" y="-20"/>
      <point x="55" y="38"/>
      <point x="55" y="119" type="curve"/>
      <point x="144" y="152" type="line"/>
      <point x="150" y="100"/>
      <point x="200" y="73"/>
      <point x="273" y="73" type="curve" smooth="yes"/>
      <point x="342" y="73"/>
      <point x="398" y="90"/>
      <point x="398" y="131" type="curve" smooth="yes"/>
      <point x="398" y="164"/>
      <point x="342" y="182"/>
      <point x="273" y="183" type="curve"/>
      <point x="273" y="260" type="line"/>
      <point x="340" y="262"/>
      <point x="398" y="278"/>
      <point x="398" y="314" type="curve" smooth="yes"/>
      <point x="398" y="353"/>
      <point x="342" y="370"/>
      <point x="273" y="370" type="curve" smooth="yes"/>
      <point x="197" y="370"/>
      <point x="151" y="342"/>
      <point x="144" y="291" type="curve"/>
      <point x="55" y="324" type="line"/>
      <point x="55" y="405"/>
      <point x="131" y="464"/>
      <point x="273" y="464" type="curve" smooth="yes"/>
      <point x="363" y="464"/>
      <point x="420" y="439"/>
      <point x="454" y="402" type="curve"/>
      <point x="499" y="439"/>
      <point x="556" y="464"/>
      <point x="637" y="464" type="curve" smooth="yes"/>
      <point x="769" y="464"/>
      <point x="877" y="354"/>
    </contour>
  </outline>
</glyph>
<glyph name="u1026" format="2">
  <advance width="574"/>
  <unicode hex="1026"/>
  <anchor x="279" y="0" name="BS"/>
  <anchor x="279" y="-53" name="L"/>
  <anchor x="279" y="495" name="U"/>
  <anchor x="276" y="0" name="BD"/>
  <outline>
    <contour>
      <point x="510" y="-282" type="line"/>
      <point x="510" y="-346" type="line" smooth="yes"/>
      <point x="510" y="-377"/>
      <point x="506" y="-413"/>
      <point x="487" y="-435" type="curve" smooth="yes"/>
      <point x="467" y="-456"/>
      <point x="441" y="-464"/>
      <point x="390" y="-464" type="curve" smooth="yes"/>
      <point x="240" y="-464" type="line" smooth="yes"/>
      <point x="167" y="-464"/>
      <point x="126" y="-425"/>
      <point x="108" y="-407" type="curve" smooth="yes"/>
      <point x="85" y="-384"/>
      <point x="55" y="-337"/>
      <point x="55" y="-280" type="curve" smooth="yes"/>
      <point x="55" y="112" type="line"/>
      <point x="138" y="156" type="line"/>
      <point x="171" y="97"/>
      <point x="224" y="73"/>
      <point x="279" y="73" type="curve" smooth="yes"/>
      <point x="361" y="73"/>
      <point x="426" y="141"/>
      <point x="426" y="222" type="curve" smooth="yes"/>
      <point x="426" y="302"/>
      <point x="361" y="370"/>
      <point x="279" y="370" type="curve" smooth="yes"/>
      <point x="224" y="370"/>
      <point x="171" y="344"/>
      <point x="138" y="288" type="curve"/>
      <point x="55" y="331" type="line"/>
      <point x="102" y="425"/>
      <point x="199" y="464"/>
      <point x="279" y="464" type="curve" smooth="yes"/>
      <point x="410" y="464"/>
      <point x="520" y="354"/>
      <point x="520" y="222" type="curve" smooth="yes"/>
      <point x="520" y="88"/>
      <point x="410" y="-20"/>
      <point x="279" y="-20" type="curve" smooth="yes"/>
      <point x="235" y="-20"/>
      <point x="189" y="-8"/>
      <point x="150" y="18" type="curve"/>
      <point x="150" y="-270" type="line" smooth="yes"/>
      <point x="150" y="-296"/>
      <point x="157" y="-326"/>
      <point x="176" y="-342" type="curve" smooth="yes"/>
      <point x="198" y="-359"/>
      <point x="222" y="-371"/>
      <point x="252" y="-371" type="curve" smooth="yes"/>
      <point x="377" y="-371" type="line" smooth="yes"/>
      <point x="410" y="-371"/>
      <point x="417" y="-360"/>
      <point x="417" y="-330" type="curve" smooth="yes"/>
      <point x="417" y="-282" type="line"/>
    </contour>
    <contour>
      <point x="367" y="660" type="curve"/>
      <point x="340" y="684"/>
      <point x="306" y="695"/>
      <point x="279" y="695" type="curve" smooth="yes"/>
      <point x="252" y="695"/>
      <point x="219" y="684"/>
      <point x="190" y="659" type="curve"/>
      <point x="210" y="633"/>
      <point x="242" y="614"/>
      <point x="277" y="614" type="curve" smooth="yes"/>
      <point x="314" y="614"/>
      <point x="346" y="632"/>
    </contour>
    <contour>
      <point x="389" y="735" type="curve" smooth="yes"/>
      <point x="386" y="793"/>
      <point x="339" y="846"/>
      <point x="279" y="846" type="curve" smooth="yes"/>
      <point x="219" y="846"/>
      <point x="168" y="794"/>
      <point x="166" y="735" type="curve" smooth="yes"/>
      <point x="166" y="729"/>
      <point x="167" y="723"/>
      <point x="170" y="717" type="curve"/>
      <point x="207" y="746"/>
      <point x="244" y="753"/>
      <point x="279" y="753" type="curve" smooth="yes"/>
      <point x="311" y="753"/>
      <point x="351" y="744"/>
      <point x="386" y="717" type="curve"/>
      <point x="388" y="723"/>
      <point x="389" y="729"/>
    </contour>
    <contour>
      <point x="460" y="730" type="curve" smooth="yes"/>
      <point x="460" y="627"/>
      <point x="379" y="543"/>
      <point x="279" y="543" type="curve" smooth="yes"/>
      <point x="178" y="543"/>
      <point x="95" y="627"/>
      <point x="95" y="730" type="curve" smooth="yes"/>
      <point x="95" y="832"/>
      <point x="178" y="917"/>
      <point x="277" y="917" type="curve" smooth="yes"/>
      <point x="379" y="917"/>
      <point x="460" y="832"/>
    </contour>
  </outline>
</glyph>
<glyph name="u102B" format="2">
  <advance width="215"/>
  <unicode hex="102B"/>
  <anchor x="113" y="-53" name="BS"/>
  <anchor x="113" y="-53" name="L"/>
  <anchor x="96" y="-53" name="BD"/>
  <outline>
    <contour>
      <point x="161" y="0" type="line"/>
      <point x="67" y="0" type="line"/>
      <point x="67" y="719" type="line" smooth="yes"/>
      <point x="67" y="792"/>
      <point x="36" y="817"/>
      <point x="-11" y="817" type="curve" smooth="yes"/>
      <point x="-57" y="817"/>
      <point x="-94" y="795"/>
      <point x="-94" y="723" type="curve"/>
      <point x="-186" y="723" type="line"/>
      <point x="-186" y="810"/>
      <point x="-141" y="910"/>
      <point x="-11" y="910" type="curve" smooth="yes"/>
      <point x="80" y="910"/>
      <point x="161" y="852"/>
      <point x="161" y="719" type="curve" smooth="yes"/>
    </contour>
  </outline>
</glyph>
<glyph name="u102C" format="2">
  <advance width="426"/>
  <unicode hex="102C"/>
  <anchor x="0" y="0" name="_R"/>
  <anchor x="133" y="-53" name="BS"/>
  <anchor x="133" y="-53" name="L"/>
  <anchor x="133" y="495" name="U"/>
  <anchor x="133" y="-53" name="BD"/>
  <outline>
    <contour>
      <point x="371" y="222" type="curve" smooth="yes"/>
      <point x="371" y="88"/>
      <point x="262" y="-20"/>
      <point x="133" y="-20" type="curve" smooth="yes"/>
      <point x="103" y="-20"/>
      <point x="74" y="-15"/>
      <point x="44" y="-1" type="curve"/>
      <point x="80" y="83" type="line"/>
      <point x="95" y="75"/>
      <point x="117" y="73"/>
      <point x="132" y="73" type="curve" smooth="yes"/>
      <point x="214" y="73"/>
      <point x="277" y="140"/>
      <point x="277" y="222" type="curve" smooth="yes"/>
      <point x="277" y="302"/>
      <point x="214" y="370"/>
      <point x="133" y="370" type="curve" smooth="yes"/>
      <point x="69" y="370"/>
      <point x="14" y="327"/>
      <point x="-68" y="257" type="curve"/>
      <point x="-122" y="339" type="line"/>
      <point x="-23" y="419"/>
      <point x="32" y="464"/>
      <point x="133" y="464" type="curve" smooth="yes"/>
      <point x="262" y="464"/>
      <point x="371" y="354"/>
    </contour>
  </outline>
</glyph>
<glyph name="u102D" format="2">
  <advance width="0"/>
  <unicode hex="102D"/>
  <anchor x="-90" y="495" name="_Y"/>
  <anchor x="-236" y="495" name="_U"/>
  <anchor x="-234" y="495" name="UM"/>
  <outline>
    <contour>
      <point x="-126" y="730" type="curve" smooth="yes"/>
      <point x="-126" y="791"/>
      <point x="-175" y="846"/>
      <point x="-236" y="846" type="curve" smooth="yes"/>
      <point x="-299" y="846"/>
      <point x="-348" y="791"/>
      <point x="-348" y="730" type="curve" smooth="yes"/>
      <point x="-348" y="668"/>
      <point x="-298" y="614"/>
      <point x="-238" y="614" type="curve" smooth="yes"/>
      <point x="-175" y="614"/>
      <point x="-126" y="668"/>
    </contour>
    <contour>
      <point x="-55" y="730" type="curve" smooth="yes"/>
      <point x="-55" y="626"/>
      <point x="-136" y="543"/>
      <point x="-236" y="543" type="curve" smooth="yes"/>
      <point x="-337" y="543"/>
      <point x="-419" y="626"/>
      <point x="-419" y="730" type="curve" smooth="yes"/>
      <point x="-419" y="832"/>
      <point x="-337" y="917"/>
      <point x="-238" y="917" type="curve" smooth="yes"/>
      <point x="-136" y="917"/>
      <point x="-55" y="832"/>
    </contour>
  </outline>
</glyph>
<glyph name="u102F" format="2">
  <advance width="190"/>
  <unicode hex="102F"/>
  <anchor x="364" y="-53" name="BS"/>
  <anchor x="87" y="495" name="Y"/>
  <anchor x="319" y="-53" name="L"/>
  <anchor x="87" y="495" name="U"/>
  <anchor x="290" y="-53" name="BD"/>
  <outline>
    <contour>
      <point x="216" y="-464" type="line"/>
      <point x="40" y="-464" type="line"/>
      <point x="40" y="444" type="line"/>
      <point x="133" y="444" type="line"/>
      <point x="133" y="-371" type="line"/>
      <point x="216" y="-371" type="line"/>
    </contour>
  </outline>
</glyph>
<glyph name="u1030" format="2">
  <advance width="357"/>
  <unicode hex="1030"/>
  <anchor x="513" y="-53" name="BS"/>
  <anchor x="258" y="495" name="Y"/>
  <anchor x="513" y="-53" name="L"/>
  <anchor x="258" y="495" name="U"/>
  <anchor x="384" y="-53" name="BD"/>
  <outline>
    <contour>
      <point x="133" y="-464" type="line"/>
      <point x="39" y="-464" type="line"/>
      <point x="39" y="444" type="line"/>
      <point x="133" y="444" type="line"/>
    </contour>
    <contour>
      <point x="384" y="-464" type="line"/>
      <point x="211" y="-464" type="line"/>
      <point x="211" y="444" type="line"/>
      <point x="304" y="444" type="line"/>
      <point x="304" y="-371" type="line"/>
      <point x="384" y="-371" type="line"/>
    </contour>
  </outline>
</glyph>
<glyph name="u1032" format="2">
  <advance width="0"/>
  <unicode hex="1032"/>
  <anchor x="-93" y="534" name="_Y"/>
  <anchor x="-279" y="534" name="_U"/>
  <anchor x="-247" y="537" name="UM"/>
  <outline>
    <contour>
      <point x="-55" y="626" type="line"/>
      <point x="-99" y="568" type="line"/>
      <point x="-402" y="809" type="line"/>
      <point x="-361" y="867" type="line"/>
    </contour>
  </outline>
</glyph>
<glyph name="u1033" format="2">
  <advance width="0"/>
  <unicode hex="1033"/>
  <anchor x="-90" y="495" name="_Y"/>
  <anchor x="-236" y="495" name="_U"/>
  <anchor x="-234" y="495" name="UM"/>
  <outline>
    <contour>
      <point x="-220" y="730" type="curve" smooth="yes"/>
      <point x="-220" y="738"/>
      <point x="-227" y="746"/>
      <point x="-235" y="746" type="curve" smooth="yes"/>
      <point x="-244" y="746"/>
      <point x="-252" y="738"/>
      <point x="-252" y="730" type="curve" smooth="yes"/>
      <point x="-252" y="721"/>
      <point x="-244" y="714"/>
      <point x="-235" y="714" type="curve" smooth="yes"/>
      <point x="-227" y="714"/>
      <point x="-220" y="721"/>
    </contour>
    <contour>
      <point x="-178" y="730" type="curve" smooth="yes"/>
      <point x="-178" y="699"/>
      <point x="-203" y="670"/>
      <point x="-235" y="670" type="curve" smooth="yes"/>
      <point x="-268" y="670"/>
      <point x="-294" y="699"/>
      <point x="-294" y="730" type="curve" smooth="yes"/>
      <point x="-294" y="761"/>
      <point x="-268" y="790"/>
      <point x="-235" y="790" type="curve" smooth="yes"/>
      <point x="-203" y="790"/>
      <point x="-178" y="761"/>
    </contour>
    <contour>
      <point x="-126" y="730" type="curve" smooth="yes"/>
      <point x="-126" y="791"/>
      <point x="-175" y="846"/>
      <point x="-235" y="846" type="curve" smooth="yes"/>
      <point x="-299" y="846"/>
      <point x="-348" y="791"/>
      <point x="-348" y="730" type="curve" smooth="yes"/>
      <point x="-348" y="668"/>
      <point x="-298" y="615"/>
      <point x="-238" y="615" type="curve" smooth="yes"/>
      <point x="-175" y="615"/>
      <point x="-126" y="668"/>
    </contour>
    <contour>
      <point x="-55" y="730" type="curve" smooth="yes"/>
      <point x="-55" y="627"/>
      <point x="-135" y="543"/>
      <point x="-235" y="543" type="curve" smooth="yes"/>
      <point x="-338" y="543"/>
      <point x="-420" y="627"/>
      <point x="-420" y="730" type="curve" smooth="yes"/>
      <point x="-420" y="831"/>
      <point x="-338" y="917"/>
      <point x="-238" y="917" type="curve" smooth="yes"/>
      <point x="-135" y="917"/>
      <point x="-55" y="831"/>
    </contour>
  </outline>
</glyph>
<glyph name="u1034" format="2">
  <advance width="0"/>
  <unicode hex="1034"/>
  <anchor x="-90" y="520" name="_Y"/>
  <anchor x="-218" y="520" name="_U"/>
  <anchor x="-193" y="495" name="UM"/>
  <outline>
    <contour>
      <point x="-55" y="800" type="line"/>
      <point x="-359" y="559" type="line"/>
      <point x="-403" y="616" type="line"/>
      <point x="-97" y="858" type="line"/>
    </contour>
  </outline>
</glyph>
<glyph name="u1037" format="2">
  <advance width="55"/>
  <unicode hex="1037"/>
  <anchor x="-96" y="-53" name="_L"/>
  <anchor x="-96" y="-53" name="_LM"/>
  <anchor x="-96" y="-53" name="_LLM"/>
  <outline>
    <contour>
      <point x="-54" y="-235" type="curve" smooth="yes"/>
      <point x="-54" y="-212"/>
      <point x="-74" y="-191"/>
      <point x="-99" y="-191" type="curve" smooth="yes"/>
      <point x="-126" y="-191"/>
      <point x="-144" y="-212"/>
      <point x="-144" y="-235" type="curve" smooth="yes"/>
      <point x="-144" y="-257"/>
      <point x="-126" y="-282"/>
      <point x="-99" y="-282" type="curve" smooth="yes"/>
      <point x="-74" y="-282"/>
      <point x="-54" y="-259"/>
    </contour>
    <contour>
      <point x="0" y="-235" type="curve" smooth="yes"/>
      <point x="0" y="-288"/>
      <point x="-46" y="-333"/>
      <point x="-99" y="-333" type="curve" smooth="yes"/>
      <point x="-152" y="-333"/>
      <point x="-198" y="-288"/>
      <point x="-198" y="-235" type="curve" smooth="yes"/>
      <point x="-198" y="-182"/>
      <point x="-152" y="-137"/>
      <point x="-99" y="-137" type="curve" smooth="yes"/>
      <point x="-46" y="-137"/>
      <point x="0" y="-182"/>
    </contour>
  </outline>
</glyph>
<glyph name="u1039" format="2">
  <advance width="55"/>
  <unicode hex="1039"/>
  <anchor x="-182" y="-53" name="_BS"/>
  <anchor x="-521" y="-53" name="LLM"/>
  <anchor x="-182" y="-53" name="_BSM"/>
  <anchor x="155" y="-53" name="LM"/>
  <anchor x="144" y="-53" name="BSM"/>
  <outline>
    <contour>
      <point x="-14" y="-343" type="curve" smooth="yes"/>
      <point x="-14" y="-354"/>
      <point x="-20" y="-360"/>
      <point x="-30" y="-360" type="curve" smooth="yes"/>
      <point x="-42" y="-360"/>
      <point x="-47" y="-354"/>
      <point x="-47" y="-343" type="curve" smooth="yes"/>
      <point x="-47" y="-330"/>
      <point x="-42" y="-325"/>
      <point x="-30" y="-325" type="curve" smooth="yes"/>
      <point x="-20" y="-325"/>
      <point x="-14" y="-330"/>
    </contour>
    <contour>
      <point x="-50" y="-398" type="curve" smooth="yes"/>
      <point x="-50" y="-410"/>
      <point x="-56" y="-415"/>
      <point x="-67" y="-415" type="curve" smooth="yes"/>
      <point x="-79" y="-415"/>
      <point x="-85" y="-410"/>
      <point x="-85" y="-398" type="curve" smooth="yes"/>
      <point x="-85" y="-386"/>
      <point x="-79" y="-381"/>
      <point x="-67" y="-381" type="curve" smooth="yes"/>
      <point x="-56" y="-381"/>
      <point x="-50" y="-386"/>
    </contour>
    <contour>
      <point x="-106" y="-434" type="curve" smooth="yes"/>
      <point x="-106" y="-445"/>
      <point x="-111" y="-451"/>
      <point x="-123" y="-451" type="curve" smooth="yes"/>
      <point x="-134" y="-451"/>
      <point x="-140" y="-445"/>
      <point x="-140" y="-434" type="curve" smooth="yes"/>
      <point x="-140" y="-422"/>
      <point x="-134" y="-417"/>
      <point x="-123" y="-417" type="curve" smooth="yes"/>
      <point x="-111" y="-417"/>
      <point x="-106" y="-422"/>
    </contour>
    <contour>
      <point x="-171" y="-448" type="curve" smooth="yes"/>
      <point x="-171" y="-458"/>
      <point x="-177" y="-464"/>
      <point x="-187" y="-464" type="curve" smooth="yes"/>
      <point x="-200" y="-464"/>
      <point x="-205" y="-458"/>
      <point x="-205" y="-448" type="curve" smooth="yes"/>
      <point x="-205" y="-436"/>
      <point x="-200" y="-431"/>
      <point x="-187" y="-431" type="curve" smooth="yes"/>
      <point x="-177" y="-431"/>
      <point x="-171" y="-436"/>
    </contour>
    <contour>
      <point x="-236" y="-434" type="curve" smooth="yes"/>
      <point x="-236" y="-445"/>
      <point x="-241" y="-451"/>
      <point x="-253" y="-451" type="curve" smooth="yes"/>
      <point x="-265" y="-451"/>
      <point x="-270" y="-445"/>
      <point x="-270" y="-434" type="curve" smooth="yes"/>
      <point x="-270" y="-422"/>
      <point x="-265" y="-417"/>
      <point x="-253" y="-417" type="curve" smooth="yes"/>
      <point x="-241" y="-417"/>
      <point x="-236" y="-422"/>
    </contour>
    <contour>
      <point x="-291" y="-398" type="curve" smooth="yes"/>
      <point x="-291" y="-410"/>
      <point x="-296" y="-415"/>
      <point x="-309" y="-415" type="curve" smooth="yes"/>
      <point x="-321" y="-415"/>
      <point x="-326" y="-410"/>
      <point x="-326" y="-398" type="curve" smooth="yes"/>
      <point x="-326" y="-386"/>
      <point x="-321" y="-381"/>
      <point x="-309" y="-381" type="curve" smooth="yes"/>
      <point x="-296" y="-381"/>
      <point x="-291" y="-386"/>
    </contour>
    <contour>
      <point x="-329" y="-343" type="curve" smooth="yes"/>
      <point x="-329" y="-354"/>
      <point x="-335" y="-360"/>
      <point x="-345" y="-360" type="curve" smooth="yes"/>
      <point x="-356" y="-360"/>
      <point x="-362" y="-354"/>
      <point x="-362" y="-343" type="curve" smooth="yes"/>
      <point x="-362" y="-330"/>
      <point x="-356" y="-325"/>
      <point x="-345" y="-325" type="curve" smooth="yes"/>
      <point x="-335" y="-325"/>
      <point x="-329" y="-330"/>
    </contour>
    <contour>
      <point x="-342" y="-277" type="curve" smooth="yes"/>
      <point x="-342" y="-289"/>
      <point x="-347" y="-294"/>
      <point x="-358" y="-294" type="curve" smooth="yes"/>
      <point x="-370" y="-294"/>
      <point x="-376" y="-289"/>
      <point x="-376" y="-277" type="curve" smooth="yes"/>
      <point x="-376" y="-266"/>
      <point x="-370" y="-260"/>
      <point x="-358" y="-260" type="curve" smooth="yes"/>
      <point x="-347" y="-260"/>
      <point x="-342" y="-266"/>
    </contour>
    <contour>
      <point x="-329" y="-212" type="curve" smooth="yes"/>
      <point x="-329" y="-223"/>
      <point x="-335" y="-229"/>
      <point x="-345" y="-229" type="curve" smooth="yes"/>
      <point x="-356" y="-229"/>
      <point x="-362" y="-223"/>
      <point x="-362" y="-212" type="curve" smooth="yes"/>
      <point x="-362" y="-201"/>
      <point x="-356" y="-195"/>
      <point x="-345" y="-195" type="curve" smooth="yes"/>
      <point x="-335" y="-195"/>
      <point x="-329" y="-201"/>
    </contour>
    <contour>
      <point x="-291" y="-158" type="curve" smooth="yes"/>
      <point x="-291" y="-169"/>
      <point x="-296" y="-175"/>
      <point x="-309" y="-175" type="curve" smooth="yes"/>
      <point x="-321" y="-175"/>
      <point x="-326" y="-169"/>
      <point x="-326" y="-158" type="curve" smooth="yes"/>
      <point x="-326" y="-145"/>
      <point x="-321" y="-140"/>
      <point x="-309" y="-140" type="curve" smooth="yes"/>
      <point x="-296" y="-140"/>
      <point x="-291" y="-145"/>
    </contour>
    <contour>
      <point x="-236" y="-119" type="curve" smooth="yes"/>
      <point x="-236" y="-131"/>
      <point x="-241" y="-137"/>
      <point x="-253" y="-137" type="curve" smooth="yes"/>
      <point x="-265" y="-137"/>
      <point x="-270" y="-131"/>
      <point x="-270" y="-119" type="curve" smooth="yes"/>
      <point x="-270" y="-107"/>
      <point x="-265" y="-102"/>
      <point x="-253" y="-102" type="curve" smooth="yes"/>
      <point x="-241" y="-102"/>
      <point x="-236" y="-107"/>
    </contour>
    <contour>
      <point x="-171" y="-107" type="curve" smooth="yes"/>
      <point x="-171" y="-118"/>
      <point x="-177" y="-124"/>
      <point x="-187" y="-124" type="curve" smooth="yes"/>
      <point x="-200" y="-124"/>
      <point x="-205" y="-118"/>
      <point x="-205" y="-107" type="curve" smooth="yes"/>
      <point x="-205" y="-95"/>
      <point x="-200" y="-90"/>
      <point x="-187" y="-90" type="curve" smooth="yes"/>
      <point x="-177" y="-90"/>
      <point x="-171" y="-95"/>
    </contour>
    <contour>
      <point x="-106" y="-119" type="curve" smooth="yes"/>
      <point x="-106" y="-131"/>
      <point x="-111" y="-137"/>
      <point x="-123" y="-137" type="curve" smooth="yes"/>
      <point x="-134" y="-137"/>
      <point x="-140" y="-131"/>
      <point x="-140" y="-119" type="curve" smooth="yes"/>
      <point x="-140" y="-107"/>
      <point x="-134" y="-102"/>
      <point x="-123" y="-102" type="curve" smooth="yes"/>
      <point x="-111" y="-102"/>
      <point x="-106" y="-107"/>
    </contour>
    <contour>
      <point x="-50" y="-158" type="curve" smooth="yes"/>
      <point x="-50" y="-169"/>
      <point x="-56" y="-175"/>
      <point x="-67" y="-175" type="curve" smooth="yes"/>
      <point x="-79" y="-175"/>
      <point x="-85" y="-169"/>
      <point x="-85" y="-158" type="curve" smooth="yes"/>
      <point x="-85" y="-145"/>
      <point x="-79" y="-140"/>
      <point x="-67" y="-140" type="curve" smooth="yes"/>
      <point x="-56" y="-140"/>
      <point x="-50" y="-145"/>
    </contour>
    <contour>
      <point x="-14" y="-212" type="curve" smooth="yes"/>
      <point x="-14" y="-223"/>
      <point x="-20" y="-229"/>
      <point x="-30" y="-229" type="curve" smooth="yes"/>
      <point x="-42" y="-229"/>
      <point x="-47" y="-223"/>
      <point x="-47" y="-212" type="curve" smooth="yes"/>
      <point x="-47" y="-201"/>
      <point x="-42" y="-195"/>
      <point x="-30" y="-195" type="curve" smooth="yes"/>
      <point x="-20" y="-195"/>
      <point x="-14" y="-201"/>
    </contour>
    <contour>
      <point x="0" y="-277" type="curve" smooth="yes"/>
      <point x="0" y="-289"/>
      <point x="-5" y="-294"/>
      <point x="-18" y="-294" type="curve" smooth="yes"/>
      <point x="-29" y="-294"/>
      <point x="-35" y="-289"/>
      <point x="-35" y="-277" type="curve" smooth="yes"/>
      <point x="-35" y="-266"/>
      <point x="-29" y="-260"/>
      <point x="-18" y="-260" type="curve" smooth="yes"/>
      <point x="-5" y="-260"/>
      <point x="0" y="-266"/>
    </contour>
  </outline>
</glyph>
<glyph name="u103A" format="2">
  <advance width="55"/>
  <unicode hex="103A"/>
  <anchor x="-231" y="483" name="_U"/>
  <anchor x="-231" y="495" name="UM"/>
  <outline>
    <contour>
      <point x="0" y="841" type="curve"/>
      <point x="-51" y="799" type="line"/>
      <point x="-69" y="828"/>
      <point x="-101" y="849"/>
      <point x="-135" y="849" type="curve" smooth="yes"/>
      <point x="-193" y="849"/>
      <point x="-251" y="805"/>
      <point x="-251" y="733" type="curve" smooth="yes"/>
      <point x="-251" y="649"/>
      <point x="-168" y="611"/>
      <point x="-135" y="611" type="curve"/>
      <point x="-135" y="540" type="line"/>
      <point x="-222" y="540"/>
      <point x="-322" y="621"/>
      <point x="-322" y="733" type="curve" smooth="yes"/>
      <point x="-322" y="847"/>
      <point x="-229" y="920"/>
      <point x="-135" y="920" type="curve" smooth="yes"/>
      <point x="-89" y="920"/>
      <point x="-32" y="897"/>
    </contour>
  </outline>
</glyph>
<glyph name="u103B" format="2">
  <advance width="204"/>
  <unicode hex="103B"/>
  <anchor x="304" y="-53" name="BS"/>
  <anchor x="-374" y="-53" name="LL"/>
  <anchor x="304" y="-53" name="L"/>
  <anchor x="102" y="495" name="Y"/>
  <anchor x="-261" y="-53" name="dot"/>
  <anchor x="-25" y="495" name="U"/>
  <anchor x="250" y="-53" name="BD"/>
  <outline>
    <contour>
      <point x="148" y="-464" type="line"/>
      <point x="-219" y="-371" type="line"/>
      <point x="-219" y="65" type="line"/>
      <point x="-126" y="65" type="line"/>
      <point x="-126" y="-298" type="line"/>
      <point x="55" y="-344" type="line"/>
      <point x="55" y="444" type="line"/>
      <point x="148" y="444" type="line"/>
    </contour>
  </outline>
</glyph>
<glyph name="u103D" format="2">
  <advance width="0"/>
  <unicode hex="103D"/>
  <anchor x="-237" y="-53" name="_BS"/>
  <anchor x="-576" y="-53" name="LLM"/>
  <anchor x="-237" y="-53" name="_BSM"/>
  <anchor x="100" y="-53" name="LM"/>
  <anchor x="144" y="-53" name="BSM"/>
  <outline>
    <contour>
      <point x="-126" y="-277" type="curve" smooth="yes"/>
      <point x="-126" y="-215"/>
      <point x="-176" y="-161"/>
      <point x="-236" y="-161" type="curve" smooth="yes"/>
      <point x="-299" y="-161"/>
      <point x="-349" y="-216"/>
      <point x="-349" y="-277" type="curve" smooth="yes"/>
      <point x="-349" y="-338"/>
      <point x="-299" y="-393"/>
      <point x="-238" y="-393" type="curve" smooth="yes"/>
      <point x="-176" y="-393"/>
      <point x="-126" y="-340"/>
    </contour>
    <contour>
      <point x="-55" y="-277" type="curve" smooth="yes"/>
      <point x="-55" y="-380"/>
      <point x="-136" y="-464"/>
      <point x="-236" y="-464" type="curve" smooth="yes"/>
      <point x="-338" y="-464"/>
      <point x="-420" y="-380"/>
      <point x="-420" y="-277" type="curve" smooth="yes"/>
      <point x="-420" y="-177"/>
      <point x="-339" y="-90"/>
      <point x="-238" y="-90" type="curve" smooth="yes"/>
      <point x="-136" y="-90"/>
      <point x="-55" y="-177"/>
    </contour>
  </outline>
</glyph>
<glyph name="u103F" format="2">
  <advance width="1356"/>
  <unicode hex="103F"/>
  <anchor x="0" y="0" name="_R"/>
  <anchor x="1061" y="-53" name="BS"/>
  <anchor x="1061" y="-53" name="L"/>
  <anchor x="671" y="-53" name="BD"/>
  <anchor x="1061" y="495" name="U"/>
  <outline>
    <contour>
      <point x="1302" y="222" type="curve" smooth="yes"/>
      <point x="1302" y="90"/>
      <point x="1193" y="-20"/>
      <point x="1061" y="-20" type="curve" smooth="yes"/>
      <point x="976" y="-20"/>
      <point x="910" y="28"/>
      <point x="869" y="90" type="curve"/>
      <point x="827" y="24"/>
      <point x="753" y="-20"/>
      <point x="671" y="-20" type="curve" smooth="yes"/>
      <point x="586" y="-20"/>
      <point x="519" y="30"/>
      <point x="477" y="90" type="curve"/>
      <point x="436" y="24"/>
      <point x="362" y="-20"/>
      <point x="279" y="-20" type="curve" smooth="yes"/>
      <point x="198" y="-20"/>
      <point x="102" y="19"/>
      <point x="55" y="112" type="curve"/>
      <point x="138" y="156" type="line"/>
      <point x="175" y="93"/>
      <point x="228" y="73"/>
      <point x="279" y="73" type="curve" smooth="yes"/>
      <point x="362" y="73"/>
      <point x="426" y="141"/>
      <point x="426" y="223" type="curve" smooth="yes"/>
      <point x="426" y="303"/>
      <point x="360" y="370"/>
      <point x="279" y="370" type="curve" smooth="yes"/>
      <point x="228" y="370"/>
      <point x="170" y="345"/>
      <point x="138" y="288" type="curve"/>
      <point x="55" y="331" type="line"/>
      <point x="101" y="424"/>
      <point x="197" y="464"/>
      <point x="279" y="464" type="curve" smooth="yes"/>
      <point x="408" y="464"/>
      <point x="519" y="354"/>
      <point x="519" y="226" type="curve"/>
      <point x="525" y="173"/>
      <point x="584" y="73"/>
      <point x="671" y="73" type="curve" smooth="yes"/>
      <point x="753" y="73"/>
      <point x="818" y="141"/>
      <point x="818" y="223" type="curve" smooth="yes"/>
      <point x="818" y="297"/>
      <point x="754" y="370"/>
      <point x="671" y="370" type="curve" smooth="yes"/>
      <point x="658" y="370"/>
      <point x="647" y="368"/>
      <point x="636" y="365" type="curve"/>
      <point x="600" y="450" type="line"/>
      <point x="617" y="459"/>
      <point x="645" y="464"/>
      <point x="671" y="464" type="curve" smooth="yes"/>
      <point x="806" y="464"/>
      <point x="910" y="351"/>
      <point x="910" y="226" type="curve"/>
      <point x="915" y="172"/>
      <point x="975" y="73"/>
      <point x="1061" y="73" type="curve" smooth="yes"/>
      <point x="1142" y="73"/>
      <point x="1209" y="140"/>
      <point x="1209" y="222" type="curve" smooth="yes"/>
      <point x="1209" y="302"/>
      <point x="1142" y="370"/>
      <point x="1061" y="370" type="curve" smooth="yes"/>
      <point x="1048" y="370"/>
      <point x="1037" y="368"/>
      <point x="1028" y="365" type="curve"/>
      <point x="991" y="450" type="line"/>
      <point x="1008" y="459"/>
      <point x="1035" y="464"/>
      <point x="1061" y="464" type="curve" smooth="yes"/>
      <point x="1193" y="464"/>
      <point x="1302" y="356"/>
    </contour>
  </outline>
</glyph>
<glyph name="u1040" format="2">
  <advance width="585"/>
  <unicode hex="1040"/>
  <anchor x="293" y="-53" name="BS"/>
  <anchor x="293" y="-53" name="L"/>
  <anchor x="293" y="495" name="U"/>
  <anchor x="292" y="-53" name="BD"/>
  <outline>
    <contour>
      <point x="437" y="222" type="curve" smooth="yes"/>
      <point x="437" y="302"/>
      <point x="372" y="370"/>
      <point x="294" y="370" type="curve" smooth="yes"/>
      <point x="213" y="370"/>
      <point x="148" y="302"/>
      <point x="148" y="222" type="curve" smooth="yes"/>
      <point x="148" y="141"/>
      <point x="213" y="73"/>
      <point x="291" y="73" type="curve" smooth="yes"/>
      <point x="372" y="73"/>
      <point x="437" y="141"/>
    </contour>
    <contour>
      <point x="530" y="222" type="curve" smooth="yes"/>
      <point x="530" y="88"/>
      <point x="424" y="-20"/>
      <point x="294" y="-20" type="curve" smooth="yes"/>
      <point x="159" y="-20"/>
      <point x="55" y="88"/>
      <point x="55" y="222" type="curve" smooth="yes"/>
      <point x="55" y="354"/>
      <point x="160" y="464"/>
      <point x="291" y="464" type="curve" smooth="yes"/>
      <point x="425" y="464"/>
      <point x="530" y="354"/>
    </contour>
  </outline>
</glyph>
<glyph name="u1043" format="2">
  <advance width="592"/>
  <unicode hex="1043"/>
  <anchor x="284" y="-53" name="BS"/>
  <anchor x="284" y="-53" name="L"/>
  <anchor x="284" y="495" name="U"/>
  <anchor x="279" y="-53" name="BD"/>
  <outline>
    <contour>
      <point x="525" y="222" type="curve" smooth="yes"/>
      <point x="525" y="88"/>
      <point x="415" y="-20"/>
      <point x="284" y="-20" type="curve" smooth="yes"/>
      <point x="272" y="-20"/>
      <point x="256" y="-19"/>
      <point x="243" y="-15" type="curve"/>
      <point x="511" y="-464" type="line"/>
      <point x="402" y="-464" type="line"/>
      <point x="77" y="83" type="line" smooth="yes"/>
      <point x="70" y="94"/>
      <point x="64" y="103"/>
      <point x="60" y="112" type="curve"/>
      <point x="143" y="156" type="line"/>
      <point x="176" y="97"/>
      <point x="231" y="73"/>
      <point x="284" y="73" type="curve" smooth="yes"/>
      <point x="365" y="73"/>
      <point x="432" y="140"/>
      <point x="432" y="222" type="curve" smooth="yes"/>
      <point x="432" y="302"/>
      <point x="365" y="370"/>
      <point x="284" y="370" type="curve" smooth="yes"/>
      <point x="231" y="370"/>
      <point x="180" y="347"/>
      <point x="143" y="288" type="curve"/>
      <point x="60" y="331" type="line"/>
      <point x="107" y="425"/>
      <point x="203" y="464"/>
      <point x="284" y="464" type="curve" smooth="yes"/>
      <point x="415" y="464"/>
      <point x="525" y="354"/>
    </contour>
  </outline>
</glyph>
<glyph name="u1045" format="2">
  <advance width="592"/>
  <unicode hex="1045"/>
  <anchor x="294" y="-53" name="BS"/>
  <anchor x="294" y="-53" name="L"/>
  <anchor x="294" y="495" name="U"/>
  <anchor x="283" y="-53" name="BD"/>
  <outline>
    <contour>
      <point x="231" y="224" type="curve" smooth="yes"/>
      <point x="231" y="250"/>
      <point x="208" y="273"/>
      <point x="182" y="273" type="curve" smooth="yes"/>
      <point x="152" y="273"/>
      <point x="132" y="250"/>
      <point x="132" y="224" type="curve" smooth="yes"/>
      <point x="132" y="195"/>
      <point x="153" y="172"/>
      <point x="180" y="172" type="curve" smooth="yes"/>
      <point x="208" y="172"/>
      <point x="231" y="195"/>
    </contour>
    <contour>
      <point x="533" y="-223" type="line" smooth="yes"/>
      <point x="533" y="-340"/>
      <point x="447" y="-464"/>
      <point x="294" y="-464" type="curve" smooth="yes"/>
      <point x="144" y="-464"/>
      <point x="58" y="-340"/>
      <point x="58" y="-222" type="curve"/>
      <point x="152" y="-222" type="line"/>
      <point x="152" y="-302"/>
      <point x="212" y="-371"/>
      <point x="294" y="-371" type="curve" smooth="yes"/>
      <point x="377" y="-371"/>
      <point x="440" y="-309"/>
      <point x="440" y="-222" type="curve" smooth="yes"/>
      <point x="440" y="222" type="line" smooth="yes"/>
      <point x="440" y="307"/>
      <point x="377" y="370"/>
      <point x="294" y="370" type="curve" smooth="yes"/>
      <point x="261" y="370"/>
      <point x="232" y="356"/>
      <point x="210" y="337" type="curve"/>
      <point x="258" y="327"/>
      <point x="307" y="283"/>
      <point x="307" y="224" type="curve" smooth="yes"/>
      <point x="307" y="155"/>
      <point x="245" y="98"/>
      <point x="180" y="98" type="curve" smooth="yes"/>
      <point x="110" y="98"/>
      <point x="58" y="156"/>
      <point x="58" y="224" type="curve" smooth="yes"/>
      <point x="58" y="230" type="line" smooth="yes"/>
      <point x="60" y="356"/>
      <point x="156" y="464"/>
      <point x="294" y="464" type="curve" smooth="yes"/>
      <point x="447" y="464"/>
      <point x="533" y="340"/>
      <point x="533" y="224" type="curve" smooth="yes"/>
    </contour>
  </outline>
</glyph>
<glyph name="u1046" format="2">
  <advance width="592"/>
  <unicode hex="1046"/>
  <anchor x="297" y="-53" name="BS"/>
  <anchor x="297" y="-53" name="L"/>
  <anchor x="301" y="495" name="U"/>
  <anchor x="292" y="-53" name="BD"/>
  <outline>
    <contour>
      <point x="389" y="333" type="curve" smooth="yes"/>
      <point x="389" y="362"/>
      <point x="367" y="383"/>
      <point x="340" y="383" type="curve" smooth="yes"/>
      <point x="312" y="383"/>
      <point x="290" y="362"/>
      <point x="290" y="333" type="curve" smooth="yes"/>
      <point x="290" y="306"/>
      <point x="312" y="282"/>
      <point x="338" y="282" type="curve" smooth="yes"/>
      <point x="367" y="282"/>
      <point x="389" y="306"/>
    </contour>
    <contour>
      <point x="533" y="222" type="line"/>
      <point x="533" y="105"/>
      <point x="446" y="-20"/>
      <point x="297" y="-20" type="curve" smooth="yes"/>
      <point x="143" y="-20"/>
      <point x="58" y="103"/>
      <point x="58" y="221" type="curve" smooth="yes"/>
      <point x="58" y="668" type="line" smooth="yes"/>
      <point x="58" y="783"/>
      <point x="143" y="907"/>
      <point x="297" y="907" type="curve" smooth="yes"/>
      <point x="438" y="907"/>
      <point x="533" y="795"/>
      <point x="533" y="667" type="curve"/>
      <point x="440" y="667" type="line"/>
      <point x="440" y="748"/>
      <point x="378" y="816"/>
      <point x="297" y="816" type="curve" smooth="yes"/>
      <point x="215" y="816"/>
      <point x="152" y="751"/>
      <point x="152" y="666" type="curve" smooth="yes"/>
      <point x="152" y="222" type="line" smooth="yes"/>
      <point x="152" y="135"/>
      <point x="215" y="72"/>
      <point x="297" y="72" type="curve" smooth="yes"/>
      <point x="360" y="72"/>
      <point x="411" y="115"/>
      <point x="429" y="169" type="curve"/>
      <point x="303" y="216" type="line" smooth="yes"/>
      <point x="251" y="235"/>
      <point x="215" y="278"/>
      <point x="215" y="333" type="curve" smooth="yes"/>
      <point x="215" y="399"/>
      <point x="274" y="458"/>
      <point x="340" y="458" type="curve" smooth="yes"/>
      <point x="409" y="458"/>
      <point x="463" y="398"/>
      <point x="463" y="333" type="curve" smooth="yes"/>
      <point x="463" y="304"/>
      <point x="453" y="278"/>
      <point x="437" y="257" type="curve"/>
    </contour>
  </outline>
</glyph>
<glyph name="u1047" format="2">
  <advance width="586"/>
  <unicode hex="1047"/>
  <anchor x="291" y="-53" name="BS"/>
  <anchor x="291" y="-53" name="L"/>
  <anchor x="291" y="495" name="U"/>
  <anchor x="286" y="-53" name="BD"/>
  <outline>
    <contour>
      <point x="485" y="-404" type="line"/>
      <point x="451" y="-451"/>
      <point x="400" y="-464"/>
      <point x="348" y="-464" type="curve" smooth="yes"/>
      <point x="214" y="-464"/>
      <point x="185" y="-355"/>
      <point x="185" y="-284" type="curve" smooth="yes"/>
      <point x="185" y="-141"/>
      <point x="437" y="140"/>
      <point x="437" y="232" type="curve" smooth="yes"/>
      <point x="437" y="331"/>
      <point x="351" y="370"/>
      <point x="291" y="370" type="curve" smooth="yes"/>
      <point x="198" y="370"/>
      <point x="148" y="298"/>
      <point x="148" y="222" type="curve"/>
      <point x="55" y="222" type="line"/>
      <point x="55" y="337"/>
      <point x="142" y="464"/>
      <point x="291" y="464" type="curve" smooth="yes"/>
      <point x="395" y="464"/>
      <point x="530" y="380"/>
      <point x="530" y="232" type="curve" smooth="yes"/>
      <point x="530" y="101"/>
      <point x="278" y="-173"/>
      <point x="278" y="-284" type="curve" smooth="yes"/>
      <point x="278" y="-327"/>
      <point x="302" y="-370"/>
      <point x="348" y="-370" type="curve" smooth="yes"/>
      <point x="384" y="-370"/>
      <point x="405" y="-353"/>
      <point x="423" y="-337" type="curve"/>
    </contour>
  </outline>
</glyph>
<glyph name="u1048" format="2">
  <advance width="595"/>
  <unicode hex="1048"/>
  <anchor x="297" y="-53" name="BS"/>
  <anchor x="303" y="-53" name="L"/>
  <anchor x="297" y="495" name="U"/>
  <anchor x="292" y="-53" name="BD"/>
  <outline>
    <contour>
      <point x="228" y="199" type="curve" smooth="yes"/>
      <point x="228" y="244"/>
      <point x="207" y="276"/>
      <point x="176" y="302" type="curve"/>
      <point x="159" y="275"/>
      <point x="148" y="242"/>
      <point x="148" y="205" type="curve" smooth="yes"/>
      <point x="148" y="155"/>
      <point x="169" y="124"/>
      <point x="196" y="95" type="curve"/>
      <point x="218" y="126"/>
      <point x="228" y="159"/>
    </contour>
    <contour>
      <point x="539" y="205" type="curve" smooth="yes"/>
      <point x="539" y="105"/>
      <point x="513" y="33"/>
      <point x="447" y="-20" type="curve"/>
      <point x="393" y="56" type="line"/>
      <point x="427" y="94"/>
      <point x="446" y="130"/>
      <point x="446" y="205" type="curve" smooth="yes"/>
      <point x="446" y="301"/>
      <point x="378" y="370"/>
      <point x="297" y="370" type="curve" smooth="yes"/>
      <point x="274" y="370"/>
      <point x="254" y="365"/>
      <point x="238" y="354" type="curve"/>
      <point x="281" y="311"/>
      <point x="307" y="259"/>
      <point x="307" y="200" type="curve" smooth="yes"/>
      <point x="307" y="79"/>
      <point x="226" y="2"/>
      <point x="180" y="-20" type="curve"/>
      <point x="111" y="36"/>
      <point x="55" y="104"/>
      <point x="55" y="205" type="curve" smooth="yes"/>
      <point x="55" y="351"/>
      <point x="164" y="463"/>
      <point x="297" y="463" type="curve" smooth="yes"/>
      <point x="432" y="463"/>
      <point x="539" y="351"/>
    </contour>
  </outline>
</glyph>
<glyph name="u104F" format="2">
  <advance width="1017"/>
  <unicode hex="104F"/>
  <outline>
    <contour>
      <point x="429" y="320" type="curve"/>
      <point x="397" y="358"/>
      <point x="342" y="376"/>
      <point x="306" y="376" type="curve" smooth="yes"/>
      <point x="283" y="376"/>
      <point x="265" y="372"/>
      <point x="245" y="364" type="curve"/>
      <point x="273" y="331"/>
      <point x="307" y="307"/>
      <point x="363" y="307" type="curve" smooth="yes"/>
      <point x="386" y="307"/>
      <point x="406" y="310"/>
    </contour>
    <contour>
      <point x="430" y="123" type="curve"/>
      <point x="402" y="133"/>
      <point x="386" y="137"/>
      <point x="364" y="137" type="curve" smooth="yes"/>
      <point x="309" y="137"/>
      <point x="276" y="115"/>
      <point x="245" y="78" type="curve"/>
      <point x="265" y="71"/>
      <point x="285" y="68"/>
      <point x="306" y="68" type="curve" smooth="yes"/>
      <point x="348" y="68"/>
      <point x="401" y="87"/>
    </contour>
    <contour>
      <point x="955" y="-5" type="line"/>
      <point x="862" y="-5" type="line"/>
      <point x="862" y="386" type="line" smooth="yes"/>
      <point x="862" y="557"/>
      <point x="612" y="564"/>
      <point x="612" y="731" type="curve" smooth="yes"/>
      <point x="612" y="843"/>
      <point x="696" y="918"/>
      <point x="801" y="918" type="curve" smooth="yes"/>
      <point x="880" y="918"/>
      <point x="938" y="876"/>
      <point x="959" y="816" type="curve"/>
      <point x="880" y="768" type="line"/>
      <point x="865" y="804"/>
      <point x="839" y="825"/>
      <point x="801" y="825" type="curve" smooth="yes"/>
      <point x="738" y="825"/>
      <point x="706" y="784"/>
      <point x="706" y="731" type="curve" smooth="yes"/>
      <point x="706" y="634"/>
      <point x="955" y="609"/>
      <point x="955" y="386" type="curve" smooth="yes"/>
    </contour>
    <contour>
      <point x="751" y="-5" type="line"/>
      <point x="658" y="-5" type="line"/>
      <point x="658" y="304" type="line" smooth="yes"/>
      <point x="658" y="350"/>
      <point x="630" y="370"/>
      <point x="596" y="370" type="curve" smooth="yes"/>
      <point x="562" y="370"/>
      <point x="540" y="353"/>
      <point x="524" y="335" type="curve"/>
      <point x="530" y="324"/>
      <point x="535" y="311"/>
      <point x="539" y="298" type="curve"/>
      <point x="475" y="252"/>
      <point x="418" y="238"/>
      <point x="363" y="238" type="curve" smooth="yes"/>
      <point x="281" y="238"/>
      <point x="224" y="275"/>
      <point x="183" y="319" type="curve"/>
      <point x="160" y="291"/>
      <point x="148" y="257"/>
      <point x="148" y="222" type="curve" smooth="yes"/>
      <point x="148" y="187"/>
      <point x="161" y="152"/>
      <point x="183" y="123" type="curve"/>
      <point x="223" y="170"/>
      <point x="283" y="206"/>
      <point x="364" y="206" type="curve" smooth="yes"/>
      <point x="421" y="206"/>
      <point x="487" y="187"/>
      <point x="539" y="145" type="curve"/>
      <point x="518" y="50"/>
      <point x="425" y="-20"/>
      <point x="306" y="-20" type="curve" smooth="yes"/>
      <point x="143" y="-20"/>
      <point x="55" y="105"/>
      <point x="55" y="222" type="curve" smooth="yes"/>
      <point x="55" y="338"/>
      <point x="143" y="464"/>
      <point x="306" y="464" type="curve" smooth="yes"/>
      <point x="365" y="464"/>
      <point x="420" y="448"/>
      <point x="464" y="412" type="curve"/>
      <point x="503" y="451"/>
      <point x="541" y="464"/>
      <point x="596" y="464" type="curve" smooth="yes"/>
      <point x="679" y="464"/>
      <point x="751" y="410"/>
      <point x="751" y="304" type="curve" smooth="yes"/>
    </contour>
  </outline>
</glyph>
<glyph name="u1051" format="2">
  <advance width="595"/>
  <unicode hex="1051"/>
  <anchor x="0" y="0" name="_R"/>
  <anchor x="297" y="-53" name="BS"/>
  <anchor x="297" y="-53" name="L"/>
  <anchor x="297" y="495" name="U"/>
  <anchor x="292" y="-53" name="BD"/>
  <outline>
    <contour>
      <point x="318" y="237" type="curve" smooth="yes"/>
      <point x="318" y="248"/>
      <point x="308" y="258"/>
      <point x="297" y="258" type="curve" smooth="yes"/>
      <point x="286" y="258"/>
      <point x="277" y="248"/>
      <point x="277" y="237" type="curve" smooth="yes"/>
      <point x="277" y="226"/>
      <point x="286" y="216"/>
      <point x="297" y="216" type="curve" smooth="yes"/>
      <point x="308" y="216"/>
      <point x="318" y="226"/>
    </contour>
    <contour>
      <point x="372" y="237" type="curve" smooth="yes"/>
      <point x="372" y="197"/>
      <point x="339" y="163"/>
      <point x="297" y="163" type="curve" smooth="yes"/>
      <point x="258" y="163"/>
      <point x="224" y="196"/>
      <point x="224" y="237" type="curve" smooth="yes"/>
      <point x="224" y="279"/>
      <point x="258" y="312"/>
      <point x="297" y="312" type="curve" smooth="yes"/>
      <point x="338" y="312"/>
      <point x="372" y="279"/>
    </contour>
    <contour>
      <point x="540" y="237" type="curve" smooth="yes"/>
      <point x="540" y="94"/>
      <point x="434" y="-20"/>
      <point x="297" y="-20" type="curve" smooth="yes"/>
      <point x="160" y="-20"/>
      <point x="55" y="94"/>
      <point x="55" y="237" type="curve" smooth="yes"/>
      <point x="55" y="338"/>
      <point x="81" y="406"/>
      <point x="148" y="463" type="curve"/>
      <point x="202" y="387" type="line"/>
      <point x="165" y="344"/>
      <point x="148" y="313"/>
      <point x="148" y="237" type="curve" smooth="yes"/>
      <point x="148" y="151"/>
      <point x="207" y="73"/>
      <point x="297" y="73" type="curve" smooth="yes"/>
      <point x="387" y="73"/>
      <point x="446" y="151"/>
      <point x="446" y="237" type="curve" smooth="yes"/>
      <point x="446" y="313"/>
      <point x="430" y="344"/>
      <point x="393" y="387" type="curve"/>
      <point x="447" y="463" type="line"/>
      <point x="514" y="406"/>
      <point x="540" y="338"/>
    </contour>
  </outline>
</glyph>
<glyph name="u1052" format="2">
  <advance width="587"/>
  <unicode hex="1052"/>
  <anchor x="0" y="0" name="_R"/>
  <anchor x="290" y="-53" name="BS"/>
  <anchor x="290" y="-53" name="L"/>
  <anchor x="290" y="495" name="U"/>
  <anchor x="285" y="-53" name="BD"/>
  <outline>
    <contour>
      <point x="532" y="167" type="curve" smooth="yes"/>
      <point x="532" y="83"/>
      <point x="441" y="-20"/>
      <point x="297" y="-20" type="curve" smooth="yes"/>
      <point x="168" y="-20"/>
      <point x="55" y="85"/>
      <point x="55" y="240" type="curve" smooth="yes"/>
      <point x="55" y="349"/>
      <point x="90" y="419"/>
      <point x="148" y="463" type="curve"/>
      <point x="202" y="387" type="line"/>
      <point x="165" y="350"/>
      <point x="148" y="300"/>
      <point x="148" y="240" type="curve" smooth="yes"/>
      <point x="148" y="120"/>
      <point x="238" y="73"/>
      <point x="297" y="73" type="curve" smooth="yes"/>
      <point x="391" y="73"/>
      <point x="439" y="137"/>
      <point x="439" y="167" type="curve" smooth="yes"/>
      <point x="439" y="243"/>
      <point x="310" y="234"/>
      <point x="310" y="341" type="curve" smooth="yes"/>
      <point x="310" y="423"/>
      <point x="368" y="463"/>
      <point x="434" y="463" type="curve" smooth="yes"/>
      <point x="475" y="463"/>
      <point x="515" y="439"/>
      <point x="532" y="406" type="curve"/>
      <point x="461" y="363" type="line"/>
      <point x="457" y="372"/>
      <point x="446" y="380"/>
      <point x="434" y="380" type="curve" smooth="yes"/>
      <point x="412" y="380"/>
      <point x="395" y="371"/>
      <point x="395" y="341" type="curve" smooth="yes"/>
      <point x="395" y="286"/>
      <point x="532" y="311"/>
    </contour>
  </outline>
</glyph>
<glyph name="u1053" format="2">
  <advance width="662"/>
  <unicode hex="1053"/>
  <anchor x="40" y="0" name="_R"/>
  <anchor x="330" y="-53" name="BS"/>
  <anchor x="330" y="-53" name="L"/>
  <anchor x="330" y="495" name="U"/>
  <anchor x="315" y="-53" name="BD"/>
  <outline>
    <contour>
      <point x="606" y="406" type="curve"/>
      <point x="546" y="353" type="line"/>
      <point x="538" y="364"/>
      <point x="527" y="380"/>
      <point x="503" y="380" type="curve" smooth="yes"/>
      <point x="485" y="380"/>
      <point x="468" y="369"/>
      <point x="468" y="341" type="curve" smooth="yes"/>
      <point x="468" y="294"/>
      <point x="566" y="291"/>
      <point x="566" y="167" type="curve" smooth="yes"/>
      <point x="566" y="83"/>
      <point x="474" y="-20"/>
      <point x="330" y="-20" type="curve" smooth="yes"/>
      <point x="186" y="-20"/>
      <point x="95" y="83"/>
      <point x="95" y="167" type="curve" smooth="yes"/>
      <point x="95" y="291"/>
      <point x="194" y="286"/>
      <point x="194" y="341" type="curve" smooth="yes"/>
      <point x="194" y="369"/>
      <point x="176" y="380"/>
      <point x="158" y="380" type="curve" smooth="yes"/>
      <point x="135" y="380"/>
      <point x="123" y="363"/>
      <point x="116" y="353" type="curve"/>
      <point x="55" y="406" type="line"/>
      <point x="73" y="435"/>
      <point x="108" y="463"/>
      <point x="153" y="463" type="curve" smooth="yes"/>
      <point x="219" y="463"/>
      <point x="277" y="424"/>
      <point x="277" y="341" type="curve" smooth="yes"/>
      <point x="277" y="235"/>
      <point x="188" y="242"/>
      <point x="188" y="167" type="curve" smooth="yes"/>
      <point x="188" y="137"/>
      <point x="237" y="73"/>
      <point x="330" y="73" type="curve" smooth="yes"/>
      <point x="423" y="73"/>
      <point x="473" y="137"/>
      <point x="473" y="167" type="curve" smooth="yes"/>
      <point x="473" y="242"/>
      <point x="385" y="242"/>
      <point x="385" y="341" type="curve" smooth="yes"/>
      <point x="385" y="424"/>
      <point x="442" y="463"/>
      <point x="508" y="463" type="curve" smooth="yes"/>
      <point x="554" y="463"/>
      <point x="588" y="435"/>
    </contour>
  </outline>
</glyph>
<glyph name="u1054" format="2">
  <advance width="592"/>
  <unicode hex="1054"/>
  <anchor x="0" y="0" name="_R"/>
  <anchor x="294" y="-53" name="BS"/>
  <anchor x="294" y="495" name="U"/>
  <anchor x="283" y="-53" name="L"/>
  <anchor x="283" y="-53" name="BD"/>
  <outline>
    <contour>
      <point x="431" y="299" type="curve"/>
      <point x="391" y="354"/>
      <point x="337" y="370"/>
      <point x="296" y="370" type="curve" smooth="yes"/>
      <point x="268" y="370"/>
      <point x="244" y="363"/>
      <point x="222" y="352" type="curve"/>
      <point x="252" y="311"/>
      <point x="300" y="284"/>
      <point x="353" y="284" type="curve" smooth="yes"/>
      <point x="376" y="284"/>
      <point x="400" y="287"/>
    </contour>
    <contour>
      <point x="535" y="264" type="curve"/>
      <point x="459" y="217"/>
      <point x="398" y="204"/>
      <point x="354" y="204" type="curve" smooth="yes"/>
      <point x="295" y="204"/>
      <point x="218" y="234"/>
      <point x="169" y="290" type="curve"/>
      <point x="156" y="270"/>
      <point x="148" y="247"/>
      <point x="148" y="221" type="curve" smooth="yes"/>
      <point x="148" y="152"/>
      <point x="202" y="73"/>
      <point x="296" y="73" type="curve" smooth="yes"/>
      <point x="353" y="73"/>
      <point x="400" y="99"/>
      <point x="437" y="156" type="curve"/>
      <point x="517" y="112" type="line"/>
      <point x="472" y="20"/>
      <point x="377" y="-20"/>
      <point x="296" y="-20" type="curve" smooth="yes"/>
      <point x="150" y="-20"/>
      <point x="55" y="106"/>
      <point x="55" y="221" type="curve" smooth="yes"/>
      <point x="55" y="350"/>
      <point x="154" y="464"/>
      <point x="296" y="464" type="curve" smooth="yes"/>
      <point x="417" y="464"/>
      <point x="534" y="373"/>
    </contour>
  </outline>
</glyph>
<glyph name="u1055" format="2">
  <advance width="592"/>
  <unicode hex="1055"/>
  <anchor x="0" y="0" name="_R"/>
  <anchor x="294" y="-53" name="BS"/>
  <anchor x="294" y="495" name="U"/>
  <anchor x="283" y="-53" name="L"/>
  <anchor x="283" y="-53" name="BD"/>
  <outline>
    <contour>
      <point x="431" y="299" type="curve"/>
      <point x="391" y="354"/>
      <point x="337" y="370"/>
      <point x="296" y="370" type="curve" smooth="yes"/>
      <point x="268" y="370"/>
      <point x="244" y="363"/>
      <point x="222" y="352" type="curve"/>
      <point x="252" y="310"/>
      <point x="299" y="284"/>
      <point x="353" y="284" type="curve" smooth="yes"/>
      <point x="376" y="284"/>
      <point x="400" y="287"/>
    </contour>
    <contour>
      <point x="535" y="264" type="curve"/>
      <point x="463" y="220"/>
      <point x="399" y="205"/>
      <point x="354" y="205" type="curve" smooth="yes"/>
      <point x="294" y="205"/>
      <point x="218" y="233"/>
      <point x="169" y="290" type="curve"/>
      <point x="156" y="272"/>
      <point x="148" y="252"/>
      <point x="148" y="221" type="curve" smooth="yes"/>
      <point x="148" y="167"/>
      <point x="179" y="79"/>
      <point x="223" y="78" type="curve" smooth="yes"/>
      <point x="245" y="78"/>
      <point x="259" y="148"/>
      <point x="306" y="148" type="curve" smooth="yes"/>
      <point x="353" y="148"/>
      <point x="367" y="78"/>
      <point x="389" y="78" type="curve" smooth="yes"/>
      <point x="412" y="78"/>
      <point x="428" y="105"/>
      <point x="444" y="140" type="curve"/>
      <point x="522" y="101" type="line"/>
      <point x="496" y="43"/>
      <point x="451" y="-15"/>
      <point x="389" y="-15" type="curve" smooth="yes"/>
      <point x="332" y="-15"/>
      <point x="321" y="54"/>
      <point x="306" y="54" type="curve" smooth="yes"/>
      <point x="291" y="54"/>
      <point x="279" y="-15"/>
      <point x="223" y="-15" type="curve" smooth="yes"/>
      <point x="117" y="-15"/>
      <point x="55" y="125"/>
      <point x="55" y="221" type="curve" smooth="yes"/>
      <point x="55" y="344"/>
      <point x="154" y="464"/>
      <point x="296" y="464" type="curve" smooth="yes"/>
      <point x="423" y="464"/>
      <point x="534" y="373"/>
    </contour>
  </outline>
</glyph>
<glyph name="u1057" format="2">
  <advance width="511"/>
  <unicode hex="1057"/>
  <anchor x="0" y="0" name="_R"/>
  <anchor x="259" y="-53" name="BS"/>
  <anchor x="259" y="-53" name="L"/>
  <anchor x="292" y="495" name="U"/>
  <anchor x="238" y="-53" name="BD"/>
  <outline>
    <contour>
      <point x="475" y="157" type="curve" smooth="yes"/>
      <point x="475" y="86"/>
      <point x="433" y="-15"/>
      <point x="351" y="-15" type="curve" smooth="yes"/>
      <point x="295" y="-15"/>
      <point x="283" y="54"/>
      <point x="268" y="54" type="curve" smooth="yes"/>
      <point x="253" y="54"/>
      <point x="242" y="-15"/>
      <point x="185" y="-15" type="curve" smooth="yes"/>
      <point x="138" y="-15"/>
      <point x="94" y="18"/>
      <point x="52" y="101" type="curve"/>
      <point x="130" y="140" type="line"/>
      <point x="148" y="97"/>
      <point x="166" y="78"/>
      <point x="185" y="78" type="curve" smooth="yes"/>
      <point x="207" y="78"/>
      <point x="221" y="148"/>
      <point x="268" y="148" type="curve" smooth="yes"/>
      <point x="315" y="148"/>
      <point x="329" y="78"/>
      <point x="351" y="78" type="curve" smooth="yes"/>
      <point x="370" y="78"/>
      <point x="380" y="120"/>
      <point x="380" y="157" type="curve" smooth="yes"/>
      <point x="380" y="232"/>
      <point x="187" y="226"/>
      <point x="187" y="352" type="curve" smooth="yes"/>
      <point x="187" y="426"/>
      <point x="259" y="464"/>
      <point x="306" y="464" type="curve" smooth="yes"/>
      <point x="351" y="464"/>
      <point x="386" y="457"/>
      <point x="435" y="407" type="curve"/>
      <point x="386" y="342" type="line"/>
      <point x="353" y="375"/>
      <point x="327" y="381"/>
      <point x="306" y="381" type="curve" smooth="yes"/>
      <point x="296" y="381"/>
      <point x="281" y="372"/>
      <point x="281" y="352" type="curve"/>
      <point x="291" y="312"/>
      <point x="475" y="289"/>
    </contour>
  </outline>
</glyph>
<glyph name="u1059" format="2">
  <advance width="482"/>
  <unicode hex="1059"/>
  <anchor x="244" y="-53" name="_BS"/>
  <anchor x="244" y="-53" name="_BSM"/>
  <anchor x="-495" y="-53" name="BDM"/>
  <anchor x="25" y="-53" name="_LM"/>
  <anchor x="-620" y="-53" name="_LLM"/>
  <anchor x="-293" y="495" name="UM"/>
  <anchor x="25" y="-53" name="BSM"/>
  <outline>
    <contour>
      <point x="346" y="-216" type="curve"/>
      <point x="315" y="-173"/>
      <point x="274" y="-161"/>
      <point x="242" y="-161" type="curve" smooth="yes"/>
      <point x="220" y="-161"/>
      <point x="202" y="-167"/>
      <point x="186" y="-176" type="curve"/>
      <point x="209" y="-208"/>
      <point x="244" y="-227"/>
      <point x="287" y="-227" type="curve" smooth="yes"/>
      <point x="304" y="-227"/>
      <point x="323" y="-225"/>
    </contour>
    <contour>
      <point x="426" y="-243" type="curve"/>
      <point x="371" y="-277"/>
      <point x="322" y="-289"/>
      <point x="287" y="-289" type="curve" smooth="yes"/>
      <point x="240" y="-289"/>
      <point x="183" y="-267"/>
      <point x="144" y="-223" type="curve"/>
      <point x="134" y="-238"/>
      <point x="129" y="-256"/>
      <point x="129" y="-276" type="curve" smooth="yes"/>
      <point x="129" y="-305"/>
      <point x="147" y="-387"/>
      <point x="186" y="-387" type="curve" smooth="yes"/>
      <point x="203" y="-387"/>
      <point x="214" y="-333"/>
      <point x="250" y="-333" type="curve" smooth="yes"/>
      <point x="286" y="-333"/>
      <point x="297" y="-387"/>
      <point x="313" y="-387" type="curve" smooth="yes"/>
      <point x="332" y="-387"/>
      <point x="347" y="-358"/>
      <point x="359" y="-331" type="curve"/>
      <point x="418" y="-363" type="line"/>
      <point x="398" y="-408"/>
      <point x="362" y="-459"/>
      <point x="313" y="-459" type="curve" smooth="yes"/>
      <point x="270" y="-459"/>
      <point x="262" y="-405"/>
      <point x="250" y="-405" type="curve" smooth="yes"/>
      <point x="238" y="-405"/>
      <point x="229" y="-459"/>
      <point x="186" y="-459" type="curve" smooth="yes"/>
      <point x="105" y="-459"/>
      <point x="56" y="-351"/>
      <point x="56" y="-276" type="curve" smooth="yes"/>
      <point x="56" y="-182"/>
      <point x="133" y="-89"/>
      <point x="242" y="-89" type="curve" smooth="yes"/>
      <point x="340" y="-89"/>
      <point x="425" y="-159"/>
    </contour>
  </outline>
</glyph>
<glyph name="u105A" format="2">
  <advance width="574"/>
  <unicode hex="105A"/>
  <anchor x="0" y="0" name="_R"/>
  <anchor x="296" y="-53" name="BS"/>
  <anchor x="296" y="-53" name="L"/>
  <anchor x="296" y="495" name="U"/>
  <anchor x="292" y="-53" name="BD"/>
  <outline>
    <contour>
      <point x="387" y="-189" type="curve" smooth="yes"/>
      <point x="387" y="-243"/>
      <point x="291" y="-313"/>
      <point x="291" y="-351" type="curve" smooth="yes"/>
      <point x="291" y="-365"/>
      <point x="300" y="-372"/>
      <point x="312" y="-372" type="curve" smooth="yes"/>
      <point x="326" y="-372"/>
      <point x="339" y="-365"/>
      <point x="347" y="-357" type="curve"/>
      <point x="373" y="-426" type="line"/>
      <point x="357" y="-439"/>
      <point x="335" y="-447"/>
      <point x="312" y="-447" type="curve" smooth="yes"/>
      <point x="276" y="-447"/>
      <point x="216" y="-429"/>
      <point x="216" y="-351" type="curve" smooth="yes"/>
      <point x="216" y="-285"/>
      <point x="313" y="-216"/>
      <point x="313" y="-189" type="curve" smooth="yes"/>
      <point x="313" y="-171"/>
      <point x="302" y="-161"/>
      <point x="286" y="-161" type="curve" smooth="yes"/>
      <point x="267" y="-161"/>
      <point x="254" y="-179"/>
      <point x="254" y="-202" type="curve"/>
      <point x="180" y="-202" type="line"/>
      <point x="180" y="-148"/>
      <point x="219" y="-86"/>
      <point x="286" y="-86" type="curve" smooth="yes"/>
      <point x="331" y="-86"/>
      <point x="387" y="-111"/>
    </contour>
    <contour>
      <point x="519" y="112" type="line"/>
      <point x="473" y="18"/>
      <point x="375" y="-20"/>
      <point x="296" y="-20" type="curve" smooth="yes"/>
      <point x="164" y="-20"/>
      <point x="55" y="88"/>
      <point x="55" y="222" type="curve" smooth="yes"/>
      <point x="55" y="354"/>
      <point x="164" y="464"/>
      <point x="296" y="464" type="curve" smooth="yes"/>
      <point x="375" y="464"/>
      <point x="473" y="425"/>
      <point x="519" y="331" type="curve"/>
      <point x="436" y="288" type="line"/>
      <point x="400" y="348"/>
      <point x="347" y="370"/>
      <point x="296" y="370" type="curve" smooth="yes"/>
      <point x="216" y="370"/>
      <point x="148" y="302"/>
      <point x="148" y="222" type="curve" smooth="yes"/>
      <point x="148" y="141"/>
      <point x="216" y="73"/>
      <point x="296" y="73" type="curve" smooth="yes"/>
      <point x="347" y="73"/>
      <point x="398" y="92"/>
      <point x="436" y="156" type="curve"/>
    </contour>
  </outline>
</glyph>
<glyph name="u1061" format="2">
  <advance width="629"/>
  <unicode hex="1061"/>
  <anchor x="0" y="0" name="_R"/>
  <anchor x="281" y="-53" name="BS"/>
  <anchor x="239" y="-53" name="LL"/>
  <anchor x="720" y="-53" name="L"/>
  <anchor x="94" y="-53" name="BD"/>
  <anchor x="297" y="495" name="U"/>
  <outline>
    <contour>
      <point x="402" y="-464" type="line"/>
      <point x="230" y="-464" type="line"/>
      <point x="230" y="-380" type="line"/>
      <point x="318" y="-380" type="line"/>
      <point x="318" y="-101" type="line"/>
      <point x="402" y="-101" type="line"/>
    </contour>
    <contour>
      <point x="330" y="77" type="curve"/>
      <point x="313" y="110"/>
      <point x="293" y="139"/>
      <point x="257" y="158" type="curve" smooth="yes"/>
      <point x="225" y="175"/>
      <point x="191" y="185"/>
      <point x="154" y="185" type="curve"/>
      <point x="169" y="119"/>
      <point x="226" y="74"/>
      <point x="296" y="74" type="curve" smooth="yes"/>
      <point x="312" y="74"/>
      <point x="319" y="74"/>
    </contour>
    <contour>
      <point x="574" y="-464" type="line"/>
      <point x="480" y="-464" type="line"/>
      <point x="480" y="159" type="line" smooth="yes"/>
      <point x="480" y="306"/>
      <point x="373" y="370"/>
      <point x="296" y="370" type="curve" smooth="yes"/>
      <point x="223" y="370"/>
      <point x="171" y="323"/>
      <point x="156" y="265" type="curve"/>
      <point x="210" y="264"/>
      <point x="265" y="247"/>
      <point x="305" y="221" type="curve" smooth="yes"/>
      <point x="376" y="174"/>
      <point x="416" y="106"/>
      <point x="432" y="17" type="curve"/>
      <point x="394" y="-10"/>
      <point x="351" y="-20"/>
      <point x="296" y="-20" type="curve" smooth="yes"/>
      <point x="165" y="-20"/>
      <point x="55" y="89"/>
      <point x="55" y="222" type="curve" smooth="yes"/>
      <point x="55" y="344"/>
      <point x="155" y="463"/>
      <point x="296" y="463" type="curve" smooth="yes"/>
      <point x="435" y="463"/>
      <point x="574" y="363"/>
      <point x="574" y="167" type="curve" smooth="yes"/>
    </contour>
  </outline>
</glyph>
<glyph name="u1066" format="2">
  <advance width="595"/>
  <unicode hex="1066"/>
  <anchor x="0" y="0" name="_R"/>
  <anchor x="297" y="-53" name="BS"/>
  <anchor x="297" y="-53" name="L"/>
  <anchor x="297" y="495" name="U"/>
  <anchor x="292" y="-53" name="BD"/>
  <outline>
    <contour>
      <point x="340" y="-464" type="line"/>
      <point x="168" y="-464" type="line"/>
      <point x="168" y="-380" type="line"/>
      <point x="256" y="-380" type="line"/>
      <point x="256" y="-101" type="line"/>
      <point x="340" y="-101" type="line"/>
    </contour>
    <contour>
      <point x="540" y="237" type="curve" smooth="yes"/>
      <point x="540" y="94"/>
      <point x="434" y="-20"/>
      <point x="297" y="-20" type="curve" smooth="yes"/>
      <point x="160" y="-20"/>
      <point x="55" y="94"/>
      <point x="55" y="237" type="curve" smooth="yes"/>
      <point x="55" y="338"/>
      <point x="81" y="406"/>
      <point x="148" y="463" type="curve"/>
      <point x="202" y="387" type="line"/>
      <point x="165" y="344"/>
      <point x="148" y="313"/>
      <point x="148" y="237" type="curve" smooth="yes"/>
      <point x="148" y="151"/>
      <point x="207" y="73"/>
      <point x="297" y="73" type="curve" smooth="yes"/>
      <point x="387" y="73"/>
      <point x="446" y="151"/>
      <point x="446" y="237" type="curve" smooth="yes"/>
      <point x="446" y="313"/>
      <point x="430" y="344"/>
      <point x="393" y="387" type="curve"/>
      <point x="447" y="463" type="line"/>
      <point x="514" y="405"/>
      <point x="540" y="338"/>
    </contour>
  </outline>
</glyph>
<glyph name="u1069" format="2">
  <advance width="382"/>
  <unicode hex="1069"/>
  <anchor x="0" y="0" name="_R"/>
  <anchor x="192" y="-53" name="BS"/>
  <anchor x="192" y="-53" name="L"/>
  <anchor x="194" y="495" name="U"/>
  <anchor x="180" y="-53" name="BD"/>
  <outline>
    <contour>
      <point x="337" y="328" type="curve" smooth="yes"/>
      <point x="337" y="299"/>
      <point x="331" y="264"/>
      <point x="295" y="236" type="curve" smooth="yes"/>
      <point x="254" y="203"/>
      <point x="198" y="201"/>
      <point x="165" y="185" type="curve" smooth="yes"/>
      <point x="148" y="177"/>
      <point x="133" y="162"/>
      <point x="133" y="141" type="curve" smooth="yes"/>
      <point x="133" y="95"/>
      <point x="164" y="73"/>
      <point x="191" y="73" type="curve" smooth="yes"/>
      <point x="217" y="73"/>
      <point x="247" y="81"/>
      <point x="273" y="109" type="curve"/>
      <point x="332" y="37" type="line"/>
      <point x="291" y="-13"/>
      <point x="220" y="-20"/>
      <point x="191" y="-20" type="curve" smooth="yes"/>
      <point x="137" y="-20"/>
      <point x="40" y="21"/>
      <point x="40" y="145" type="curve" smooth="yes"/>
      <point x="40" y="190"/>
      <point x="64" y="233"/>
      <point x="109" y="257" type="curve" smooth="yes"/>
      <point x="140" y="273"/>
      <point x="196" y="283"/>
      <point x="229" y="301" type="curve" smooth="yes"/>
      <point x="239" y="307"/>
      <point x="244" y="316"/>
      <point x="244" y="328" type="curve" smooth="yes"/>
      <point x="244" y="350"/>
      <point x="227" y="374"/>
      <point x="197" y="374" type="curve" smooth="yes"/>
      <point x="172" y="374"/>
      <point x="147" y="364"/>
      <point x="121" y="340" type="curve"/>
      <point x="62" y="409" type="line"/>
      <point x="110" y="457"/>
      <point x="168" y="464"/>
      <point x="197" y="464" type="curve" smooth="yes"/>
      <point x="271" y="464"/>
      <point x="337" y="409"/>
    </contour>
  </outline>
</glyph>
<glyph name="u106A" format="2">
  <advance width="352"/>
  <unicode hex="106A"/>
  <anchor x="179" y="-53" name="BS"/>
  <anchor x="179" y="-53" name="L"/>
  <anchor x="252" y="495" name="U"/>
  <anchor x="154" y="-53" name="BD"/>
  <outline>
    <contour>
      <point x="303" y="464" type="line"/>
      <point x="303" y="108" type="line" smooth="yes"/>
      <point x="303" y="25"/>
      <point x="246" y="-20"/>
      <point x="179" y="-20" type="curve" smooth="yes"/>
      <point x="109" y="-20"/>
      <point x="55" y="37"/>
      <point x="55" y="109" type="curve"/>
      <point x="148" y="109" type="line"/>
      <point x="148" y="83"/>
      <point x="165" y="68"/>
      <point x="179" y="68" type="curve" smooth="yes"/>
      <point x="196" y="68"/>
      <point x="209" y="82"/>
      <point x="209" y="108" type="curve" smooth="yes"/>
      <point x="209" y="464" type="line"/>
    </contour>
  </outline>
</glyph>
<glyph name="u106C" format="2">
  <advance width="352"/>
  <unicode hex="106C"/>
  <anchor x="173" y="-53" name="BS"/>
  <anchor x="173" y="-53" name="L"/>
  <anchor x="96" y="495" name="U"/>
  <anchor x="138" y="-53" name="BD"/>
  <outline>
    <contour>
      <point x="297" y="109" type="line"/>
      <point x="297" y="37"/>
      <point x="245" y="-20"/>
      <point x="174" y="-20" type="curve" smooth="yes"/>
      <point x="107" y="-20"/>
      <point x="50" y="25"/>
      <point x="50" y="108" type="curve" smooth="yes"/>
      <point x="50" y="464" type="line"/>
      <point x="143" y="464" type="line"/>
      <point x="143" y="108" type="line" smooth="yes"/>
      <point x="143" y="84"/>
      <point x="157" y="68"/>
      <point x="174" y="68" type="curve" smooth="yes"/>
      <point x="188" y="68"/>
      <point x="205" y="84"/>
      <point x="205" y="109" type="curve"/>
    </contour>
  </outline>
</glyph>
<glyph name="u1071" format="2">
  <advance width="558"/>
  <unicode hex="1071"/>
  <anchor x="279" y="495" name="_U"/>
  <anchor x="-495" y="-53" name="BDM"/>
  <anchor x="231" y="495" name="_UM"/>
  <outline>
    <contour>
      <point x="450" y="639" type="curve" smooth="yes"/>
      <point x="450" y="660"/>
      <point x="431" y="683"/>
      <point x="405" y="683" type="curve" smooth="yes"/>
      <point x="377" y="683"/>
      <point x="360" y="660"/>
      <point x="360" y="639" type="curve" smooth="yes"/>
      <point x="360" y="618"/>
      <point x="377" y="593"/>
      <point x="405" y="593" type="curve" smooth="yes"/>
      <point x="431" y="593"/>
      <point x="450" y="616"/>
    </contour>
    <contour>
      <point x="504" y="639" type="curve" smooth="yes"/>
      <point x="504" y="585"/>
      <point x="458" y="541"/>
      <point x="405" y="541" type="curve" smooth="yes"/>
      <point x="352" y="541"/>
      <point x="306" y="585"/>
      <point x="306" y="639" type="curve" smooth="yes"/>
      <point x="306" y="693"/>
      <point x="352" y="738"/>
      <point x="405" y="738" type="curve" smooth="yes"/>
      <point x="458" y="738"/>
      <point x="504" y="693"/>
    </contour>
    <contour>
      <point x="199" y="639" type="curve" smooth="yes"/>
      <point x="199" y="660"/>
      <point x="180" y="683"/>
      <point x="154" y="683" type="curve" smooth="yes"/>
      <point x="126" y="683"/>
      <point x="109" y="660"/>
      <point x="109" y="639" type="curve" smooth="yes"/>
      <point x="109" y="618"/>
      <point x="126" y="593"/>
      <point x="154" y="593" type="curve" smooth="yes"/>
      <point x="180" y="593"/>
      <point x="199" y="616"/>
    </contour>
    <contour>
      <point x="253" y="639" type="curve" smooth="yes"/>
      <point x="253" y="585"/>
      <point x="207" y="541"/>
      <point x="154" y="541" type="curve" smooth="yes"/>
      <point x="101" y="541"/>
      <point x="55" y="585"/>
      <point x="55" y="639" type="curve" smooth="yes"/>
      <point x="55" y="693"/>
      <point x="101" y="738"/>
      <point x="154" y="738" type="curve" smooth="yes"/>
      <point x="207" y="738"/>
      <point x="253" y="693"/>
    </contour>
  </outline>
</glyph>
<glyph name="u1072" format="2">
  <advance width="0"/>
  <unicode hex="1072"/>
  <anchor x="-286" y="483" name="_U"/>
  <anchor x="-286" y="495" name="UM"/>
  <outline>
    <contour>
      <point x="-55" y="841" type="curve"/>
      <point x="-106" y="799" type="line"/>
      <point x="-124" y="828"/>
      <point x="-156" y="849"/>
      <point x="-190" y="849" type="curve" smooth="yes"/>
      <point x="-248" y="849"/>
      <point x="-306" y="805"/>
      <point x="-306" y="733" type="curve" smooth="yes"/>
      <point x="-306" y="649"/>
      <point x="-223" y="611"/>
      <point x="-190" y="611" type="curve"/>
      <point x="-190" y="540" type="line"/>
      <point x="-277" y="540"/>
      <point x="-377" y="621"/>
      <point x="-377" y="733" type="curve" smooth="yes"/>
      <point x="-377" y="847"/>
      <point x="-284" y="920"/>
      <point x="-190" y="920" type="curve" smooth="yes"/>
      <point x="-144" y="920"/>
      <point x="-87" y="897"/>
    </contour>
  </outline>
</glyph>
<glyph name="u1073" format="2">
  <advance width="462"/>
  <unicode hex="1073"/>
  <anchor x="426" y="495" name="_Y"/>
  <anchor x="232" y="495" name="_U"/>
  <anchor x="-293" y="495" name="UM"/>
  <outline>
    <contour>
      <point x="462" y="619" type="line"/>
      <point x="410" y="569" type="line"/>
      <point x="231" y="747" type="line"/>
      <point x="51" y="569" type="line"/>
      <point x="0" y="619" type="line"/>
      <point x="231" y="851" type="line"/>
    </contour>
  </outline>
</glyph>
<glyph name="u1076" format="2">
  <advance width="592"/>
  <unicode hex="1076"/>
  <anchor x="0" y="0" name="_R"/>
  <anchor x="294" y="-53" name="BS"/>
  <anchor x="294" y="-53" name="L"/>
  <anchor x="304" y="495" name="U"/>
  <anchor x="289" y="-53" name="BD"/>
  <outline>
    <contour>
      <point x="372" y="94" type="curve"/>
      <point x="343" y="132"/>
      <point x="296" y="160"/>
      <point x="243" y="160" type="curve" smooth="yes"/>
      <point x="218" y="160"/>
      <point x="194" y="156"/>
      <point x="165" y="144" type="curve"/>
      <point x="203" y="89"/>
      <point x="249" y="73"/>
      <point x="294" y="73" type="curve" smooth="yes"/>
      <point x="325" y="73"/>
      <point x="350" y="81"/>
    </contour>
    <contour>
      <point x="536" y="222" type="curve" smooth="yes"/>
      <point x="536" y="91"/>
      <point x="431" y="-20"/>
      <point x="294" y="-20" type="curve" smooth="yes"/>
      <point x="131" y="-20"/>
      <point x="63" y="102"/>
      <point x="61" y="179" type="curve"/>
      <point x="133" y="224"/>
      <point x="197" y="239"/>
      <point x="242" y="239" type="curve" smooth="yes"/>
      <point x="299" y="239"/>
      <point x="374" y="212"/>
      <point x="424" y="157" type="curve"/>
      <point x="435" y="175"/>
      <point x="443" y="196"/>
      <point x="443" y="223" type="curve" smooth="yes"/>
      <point x="443" y="277"/>
      <point x="410" y="370"/>
      <point x="309" y="370" type="curve" smooth="yes"/>
      <point x="257" y="370"/>
      <point x="274" y="269"/>
      <point x="173" y="269" type="curve" smooth="yes"/>
      <point x="109" y="269"/>
      <point x="55" y="309"/>
      <point x="55" y="370" type="curve" smooth="yes"/>
      <point x="55" y="412"/>
      <point x="68" y="441"/>
      <point x="109" y="464" type="curve"/>
      <point x="158" y="411" type="line"/>
      <point x="145" y="404"/>
      <point x="136" y="392"/>
      <point x="136" y="380" type="curve" smooth="yes"/>
      <point x="136" y="362"/>
      <point x="147" y="348"/>
      <point x="173" y="348" type="curve" smooth="yes"/>
      <point x="220" y="348"/>
      <point x="200" y="464"/>
      <point x="309" y="464" type="curve" smooth="yes"/>
      <point x="438" y="464"/>
      <point x="536" y="341"/>
    </contour>
  </outline>
</glyph>
<glyph name="u107D" format="2">
  <advance width="976"/>
  <unicode hex="107D"/>
  <anchor x="0" y="0" name="_R"/>
  <anchor x="681" y="-53" name="BS"/>
  <anchor x="681" y="-53" name="L"/>
  <anchor x="491" y="-53" name="BD"/>
  <anchor x="681" y="495" name="U"/>
  <outline>
    <contour>
      <point x="817" y="144" type="curve"/>
      <point x="788" y="156"/>
      <point x="763" y="160"/>
      <point x="738" y="160" type="curve" smooth="yes"/>
      <point x="685" y="160"/>
      <point x="637" y="131"/>
      <point x="607" y="92" type="curve"/>
      <point x="629" y="80"/>
      <point x="654" y="73"/>
      <point x="682" y="73" type="curve" smooth="yes"/>
      <point x="723" y="73"/>
      <point x="776" y="89"/>
    </contour>
    <contour>
      <point x="920" y="179" type="curve"/>
      <point x="919" y="70"/>
      <point x="795" y="-20"/>
      <point x="682" y="-20" type="curve" smooth="yes"/>
      <point x="597" y="-20"/>
      <point x="526" y="21"/>
      <point x="485" y="82" type="curve"/>
      <point x="446" y="27"/>
      <point x="386" y="-20"/>
      <point x="292" y="-20" type="curve" smooth="yes"/>
      <point x="148" y="-20"/>
      <point x="57" y="83"/>
      <point x="57" y="167" type="curve" smooth="yes"/>
      <point x="57" y="311"/>
      <point x="196" y="286"/>
      <point x="196" y="341" type="curve" smooth="yes"/>
      <point x="196" y="371"/>
      <point x="177" y="380"/>
      <point x="160" y="380" type="curve" smooth="yes"/>
      <point x="145" y="380"/>
      <point x="135" y="372"/>
      <point x="128" y="363" type="curve"/>
      <point x="57" y="406" type="line"/>
      <point x="75" y="440"/>
      <point x="115" y="463"/>
      <point x="156" y="463" type="curve" smooth="yes"/>
      <point x="222" y="463"/>
      <point x="279" y="423"/>
      <point x="279" y="341" type="curve" smooth="yes"/>
      <point x="279" y="234"/>
      <point x="151" y="243"/>
      <point x="151" y="167" type="curve" smooth="yes"/>
      <point x="151" y="137"/>
      <point x="199" y="73"/>
      <point x="292" y="73" type="curve" smooth="yes"/>
      <point x="352" y="73"/>
      <point x="441" y="120"/>
      <point x="441" y="240" type="curve" smooth="yes"/>
      <point x="441" y="301"/>
      <point x="429" y="345"/>
      <point x="388" y="387" type="curve"/>
      <point x="442" y="463" type="line"/>
      <point x="469" y="442"/>
      <point x="491" y="416"/>
      <point x="506" y="383" type="curve"/>
      <point x="543" y="428"/>
      <point x="605" y="464"/>
      <point x="682" y="464" type="curve" smooth="yes"/>
      <point x="752" y="464"/>
      <point x="858" y="427"/>
      <point x="903" y="331" type="curve"/>
      <point x="822" y="288" type="line"/>
      <point x="780" y="351"/>
      <point x="731" y="370"/>
      <point x="682" y="370" type="curve" smooth="yes"/>
      <point x="597" y="370"/>
      <point x="533" y="301"/>
      <point x="533" y="223" type="curve" smooth="yes"/>
      <point x="533" y="196"/>
      <point x="542" y="171"/>
      <point x="555" y="153" type="curve"/>
      <point x="602" y="210"/>
      <point x="680" y="239"/>
      <point x="738" y="239" type="curve" smooth="yes"/>
      <point x="783" y="239"/>
      <point x="849" y="224"/>
    </contour>
  </outline>
</glyph>
<glyph name="u1082" format="2">
  <advance width="435"/>
  <unicode hex="1082"/>
  <anchor x="245" y="-53" name="_BS"/>
  <anchor x="575" y="-53" name="BSM"/>
  <anchor x="-495" y="-53" name="BDM"/>
  <anchor x="25" y="-53" name="_LM"/>
  <anchor x="238" y="-53" name="_BSM"/>
  <anchor x="-770" y="-53" name="_LLM"/>
  <outline>
    <contour>
      <point x="475" y="-393" type="line"/>
      <point x="447" y="-448"/>
      <point x="390" y="-469"/>
      <point x="338" y="-469" type="curve" smooth="yes"/>
      <point x="244" y="-469"/>
      <point x="151" y="-397"/>
      <point x="151" y="-283" type="curve" smooth="yes"/>
      <point x="151" y="-170"/>
      <point x="242" y="-91"/>
      <point x="338" y="-91" type="curve"/>
      <point x="338" y="-162" type="line"/>
      <point x="305" y="-162"/>
      <point x="222" y="-189"/>
      <point x="222" y="-283" type="curve" smooth="yes"/>
      <point x="222" y="-359"/>
      <point x="287" y="-398"/>
      <point x="338" y="-398" type="curve" smooth="yes"/>
      <point x="373" y="-398"/>
      <point x="400" y="-382"/>
      <point x="422" y="-349" type="curve"/>
    </contour>
  </outline>
</glyph>
<glyph name="u1083" format="2">
  <advance width="319"/>
  <unicode hex="1083"/>
  <anchor x="202" y="495" name="U"/>
  <outline>
    <contour>
      <point x="370" y="-464" type="line"/>
      <point x="158" y="-464" type="line"/>
      <point x="158" y="351" type="line"/>
      <point x="33" y="351" type="line"/>
      <point x="33" y="444" type="line"/>
      <point x="246" y="444" type="line"/>
      <point x="246" y="-371" type="line"/>
      <point x="370" y="-371" type="line"/>
    </contour>
  </outline>
</glyph>
<glyph name="u1084" format="2">
  <advance width="546"/>
  <unicode hex="1084"/>
  <outline>
    <contour>
      <point x="490" y="119" type="line"/>
      <point x="490" y="39"/>
      <point x="420" y="-20"/>
      <point x="274" y="-20" type="curve" smooth="yes"/>
      <point x="122" y="-20"/>
      <point x="55" y="48"/>
      <point x="55" y="130" type="curve" smooth="yes"/>
      <point x="55" y="167"/>
      <point x="76" y="201"/>
      <point x="107" y="221" type="curve"/>
      <point x="76" y="240"/>
      <point x="55" y="274"/>
      <point x="55" y="313" type="curve" smooth="yes"/>
      <point x="55" y="395"/>
      <point x="122" y="464"/>
      <point x="274" y="464" type="curve" smooth="yes"/>
      <point x="414" y="464"/>
      <point x="490" y="404"/>
      <point x="490" y="324" type="curve"/>
      <point x="402" y="291" type="line"/>
      <point x="402" y="330"/>
      <point x="357" y="370"/>
      <point x="274" y="370" type="curve" smooth="yes"/>
      <point x="213" y="370"/>
      <point x="148" y="356"/>
      <point x="148" y="313" type="curve" smooth="yes"/>
      <point x="148" y="281"/>
      <point x="195" y="262"/>
      <point x="272" y="260" type="curve"/>
      <point x="272" y="183" type="line"/>
      <point x="195" y="182"/>
      <point x="148" y="163"/>
      <point x="148" y="131" type="curve" smooth="yes"/>
      <point x="148" y="88"/>
      <point x="213" y="73"/>
      <point x="274" y="73" type="curve" smooth="yes"/>
      <point x="357" y="73"/>
      <point x="402" y="113"/>
      <point x="402" y="152" type="curve"/>
    </contour>
  </outline>
</glyph>
<glyph name="u1085" format="2">
  <advance width="0"/>
  <unicode hex="1085"/>
  <anchor x="-93" y="495" name="_Y"/>
  <anchor x="-222" y="495" name="_U"/>
  <anchor x="-219" y="495" name="UM"/>
  <outline>
    <contour>
      <point x="-55" y="652" type="line"/>
      <point x="-55" y="590"/>
      <point x="-109" y="544"/>
      <point x="-222" y="544" type="curve" smooth="yes"/>
      <point x="-338" y="544"/>
      <point x="-389" y="597"/>
      <point x="-389" y="661" type="curve" smooth="yes"/>
      <point x="-389" y="689"/>
      <point x="-374" y="717"/>
      <point x="-350" y="730" type="curve"/>
      <point x="-374" y="745"/>
      <point x="-389" y="771"/>
      <point x="-389" y="801" type="curve" smooth="yes"/>
      <point x="-389" y="866"/>
      <point x="-338" y="918"/>
      <point x="-222" y="918" type="curve" smooth="yes"/>
      <point x="-113" y="918"/>
      <point x="-55" y="872"/>
      <point x="-55" y="810" type="curve"/>
      <point x="-122" y="785" type="line"/>
      <point x="-122" y="812"/>
      <point x="-155" y="847"/>
      <point x="-222" y="847" type="curve" smooth="yes"/>
      <point x="-269" y="847"/>
      <point x="-318" y="835"/>
      <point x="-318" y="801" type="curve" smooth="yes"/>
      <point x="-318" y="775"/>
      <point x="-279" y="761"/>
      <point x="-223" y="761" type="curve"/>
      <point x="-223" y="702" type="line"/>
      <point x="-278" y="701"/>
      <point x="-318" y="686"/>
      <point x="-318" y="662" type="curve" smooth="yes"/>
      <point x="-318" y="628"/>
      <point x="-269" y="615"/>
      <point x="-222" y="615" type="curve" smooth="yes"/>
      <point x="-157" y="615"/>
      <point x="-122" y="651"/>
      <point x="-122" y="678" type="curve"/>
    </contour>
  </outline>
</glyph>
<glyph name="u1088" format="2">
  <advance width="303"/>
  <unicode hex="1088"/>
  <outline>
    <contour>
      <point x="196" y="366" type="curve" smooth="yes"/>
      <point x="196" y="387"/>
      <point x="177" y="409"/>
      <point x="151" y="409" type="curve" smooth="yes"/>
      <point x="124" y="409"/>
      <point x="106" y="387"/>
      <point x="106" y="366" type="curve" smooth="yes"/>
      <point x="106" y="344"/>
      <point x="124" y="319"/>
      <point x="151" y="319" type="curve" smooth="yes"/>
      <point x="177" y="319"/>
      <point x="196" y="342"/>
    </contour>
    <contour>
      <point x="250" y="366" type="curve" smooth="yes"/>
      <point x="250" y="312"/>
      <point x="205" y="267"/>
      <point x="151" y="267" type="curve" smooth="yes"/>
      <point x="98" y="267"/>
      <point x="52" y="312"/>
      <point x="52" y="366" type="curve" smooth="yes"/>
      <point x="52" y="420"/>
      <point x="98" y="464"/>
      <point x="151" y="464" type="curve" smooth="yes"/>
      <point x="205" y="464"/>
      <point x="250" y="420"/>
    </contour>
    <contour>
      <point x="196" y="93" type="curve" smooth="yes"/>
      <point x="196" y="115"/>
      <point x="177" y="137"/>
      <point x="151" y="137" type="curve" smooth="yes"/>
      <point x="124" y="137"/>
      <point x="106" y="115"/>
      <point x="106" y="93" type="curve" smooth="yes"/>
      <point x="106" y="72"/>
      <point x="124" y="46"/>
      <point x="151" y="46" type="curve" smooth="yes"/>
      <point x="177" y="46"/>
      <point x="196" y="70"/>
    </contour>
    <contour>
      <point x="250" y="81" type="line" smooth="yes"/>
      <point x="250" y="-17"/>
      <point x="170" y="-109"/>
      <point x="130" y="-125" type="curve"/>
      <point x="116" y="-112" type="line"/>
      <point x="147" y="-92"/>
      <point x="179" y="-38"/>
      <point x="186" y="1" type="curve"/>
      <point x="175" y="-3"/>
      <point x="163" y="-5"/>
      <point x="151" y="-5" type="curve" smooth="yes"/>
      <point x="98" y="-5"/>
      <point x="52" y="40"/>
      <point x="52" y="93" type="curve" smooth="yes"/>
      <point x="52" y="148"/>
      <point x="98" y="191"/>
      <point x="151" y="191" type="curve" smooth="yes"/>
      <point x="205" y="191"/>
      <point x="250" y="147"/>
      <point x="250" y="91" type="curve" smooth="yes"/>
    </contour>
  </outline>
</glyph>
<glyph name="u108D" format="2">
  <advance width="550"/>
  <unicode hex="108D"/>
  <anchor x="275" y="-53" name="_BS"/>
  <anchor x="-101" y="-53" name="LLM"/>
  <anchor x="275" y="-53" name="_BSM"/>
  <anchor x="372" y="-53" name="LM"/>
  <anchor x="-495" y="-53" name="BDM"/>
  <anchor x="-293" y="495" name="UM"/>
  <anchor x="-89" y="-53" name="BSM"/>
  <outline>
    <contour>
      <point x="495" y="-177" type="line"/>
      <point x="55" y="-177" type="line"/>
      <point x="55" y="-84" type="line"/>
      <point x="495" y="-84" type="line"/>
    </contour>
  </outline>
</glyph>
<glyph name="u1093" format="2">
  <advance width="673"/>
  <unicode hex="1093"/>
  <anchor x="187" y="535" name="U"/>
  <outline>
    <contour>
      <point x="618" y="-464" type="line"/>
      <point x="525" y="-464" type="line"/>
      <point x="525" y="-229" type="line" smooth="yes"/>
      <point x="525" y="-144"/>
      <point x="461" y="-81"/>
      <point x="379" y="-81" type="curve" smooth="yes"/>
      <point x="369" y="-81"/>
      <point x="318" y="-82"/>
      <point x="277" y="-115" type="curve"/>
      <point x="253" y="-183"/>
      <point x="176" y="-398"/>
      <point x="154" y="-464" type="curve"/>
      <point x="55" y="-464" type="line"/>
      <point x="386" y="461" type="line"/>
      <point x="481" y="461" type="line"/>
      <point x="319" y="3" type="line"/>
      <point x="340" y="9"/>
      <point x="360" y="12"/>
      <point x="379" y="12" type="curve" smooth="yes"/>
      <point x="532" y="12"/>
      <point x="616" y="-114"/>
      <point x="617" y="-229" type="curve" smooth="yes"/>
    </contour>
  </outline>
</glyph>
<glyph name="u1094" format="2">
  <advance width="750"/>
  <unicode hex="1094"/>
  <anchor x="219" y="535" name="U"/>
  <outline>
    <contour>
      <point x="695" y="-318" type="line"/>
      <point x="390" y="-464" type="line"/>
      <point x="390" y="176" type="line"/>
      <point x="346" y="61"/>
      <point x="194" y="-354"/>
      <point x="152" y="-464" type="curve"/>
      <point x="55" y="-464" type="line"/>
      <point x="398" y="461" type="line"/>
      <point x="483" y="461" type="line"/>
      <point x="483" y="-318" type="line"/>
      <point x="659" y="-233" type="line"/>
    </contour>
  </outline>
</glyph>
<glyph name="u1097" format="2">
  <advance width="540"/>
  <unicode hex="1097"/>
  <anchor x="224" y="535" name="U"/>
  <outline>
    <contour>
      <point x="485" y="-464" type="line"/>
      <point x="94" y="-464" type="line"/>
      <point x="325" y="351" type="line"/>
      <point x="55" y="351" type="line"/>
      <point x="55" y="445" type="line"/>
      <point x="446" y="445" type="line"/>
      <point x="215" y="-372" type="line"/>
      <point x="485" y="-372" type="line"/>
    </contour>
  </outline>
</glyph>
<glyph name="u1098" format="2">
  <advance width="594"/>
  <unicode hex="1098"/>
  <anchor x="298" y="-28" name="BS"/>
  <anchor x="298" y="-28" name="L"/>
  <anchor x="298" y="535" name="U"/>
  <anchor x="290" y="-53" name="BD"/>
  <outline>
    <contour>
      <point x="439" y="-207" type="curve" smooth="yes"/>
      <point x="439" y="-125"/>
      <point x="371" y="-40"/>
      <point x="296" y="-40" type="curve" smooth="yes"/>
      <point x="218" y="-40"/>
      <point x="150" y="-125"/>
      <point x="150" y="-207" type="curve" smooth="yes"/>
      <point x="150" y="-304"/>
      <point x="218" y="-371"/>
      <point x="294" y="-371" type="curve" smooth="yes"/>
      <point x="373" y="-371"/>
      <point x="439" y="-303"/>
    </contour>
    <contour>
      <point x="532" y="-207" type="curve" smooth="yes"/>
      <point x="532" y="-348"/>
      <point x="430" y="-464"/>
      <point x="296" y="-464" type="curve" smooth="yes"/>
      <point x="170" y="-464"/>
      <point x="57" y="-348"/>
      <point x="57" y="-207" type="curve" smooth="yes"/>
      <point x="57" y="-123"/>
      <point x="99" y="-40"/>
      <point x="171" y="7" type="curve"/>
      <point x="111" y="52"/>
      <point x="55" y="131"/>
      <point x="55" y="238" type="curve" smooth="yes"/>
      <point x="55" y="338"/>
      <point x="81" y="405"/>
      <point x="148" y="463" type="curve"/>
      <point x="202" y="387" type="line"/>
      <point x="165" y="344"/>
      <point x="148" y="312"/>
      <point x="148" y="238" type="curve" smooth="yes"/>
      <point x="148" y="150"/>
      <point x="207" y="56"/>
      <point x="297" y="56" type="curve" smooth="yes"/>
      <point x="387" y="56"/>
      <point x="446" y="150"/>
      <point x="446" y="238" type="curve" smooth="yes"/>
      <point x="446" y="312"/>
      <point x="430" y="344"/>
      <point x="393" y="387" type="curve"/>
      <point x="447" y="463" type="line"/>
      <point x="514" y="405"/>
      <point x="539" y="338"/>
      <point x="539" y="238" type="curve" smooth="yes"/>
      <point x="539" y="129"/>
      <point x="480" y="48"/>
      <point x="420" y="4" type="curve"/>
      <point x="493" y="-43"/>
      <point x="532" y="-125"/>
    </contour>
  </outline>
</glyph>
<glyph name="u1099" format="2">
  <advance width="594"/>
  <unicode hex="1099"/>
  <anchor x="298" y="-28" name="BS"/>
  <anchor x="298" y="-28" name="L"/>
  <anchor x="299" y="535" name="U"/>
  <anchor x="290" y="-53" name="BD"/>
  <outline>
    <contour>
      <point x="439" y="206" type="curve" smooth="yes"/>
      <point x="439" y="302"/>
      <point x="373" y="370"/>
      <point x="294" y="370" type="curve" smooth="yes"/>
      <point x="218" y="370"/>
      <point x="150" y="303"/>
      <point x="150" y="206" type="curve" smooth="yes"/>
      <point x="150" y="124"/>
      <point x="218" y="39"/>
      <point x="296" y="39" type="curve" smooth="yes"/>
      <point x="371" y="39"/>
      <point x="439" y="124"/>
    </contour>
    <contour>
      <point x="539" y="-239" type="curve" smooth="yes"/>
      <point x="539" y="-339"/>
      <point x="514" y="-406"/>
      <point x="447" y="-464" type="curve"/>
      <point x="393" y="-388" type="line"/>
      <point x="430" y="-345"/>
      <point x="446" y="-313"/>
      <point x="446" y="-239" type="curve" smooth="yes"/>
      <point x="446" y="-151"/>
      <point x="387" y="-57"/>
      <point x="297" y="-57" type="curve" smooth="yes"/>
      <point x="207" y="-57"/>
      <point x="148" y="-151"/>
      <point x="148" y="-239" type="curve" smooth="yes"/>
      <point x="148" y="-313"/>
      <point x="165" y="-345"/>
      <point x="202" y="-388" type="curve"/>
      <point x="148" y="-464" type="line"/>
      <point x="81" y="-406"/>
      <point x="55" y="-339"/>
      <point x="55" y="-239" type="curve" smooth="yes"/>
      <point x="55" y="-132"/>
      <point x="111" y="-53"/>
      <point x="171" y="-8" type="curve"/>
      <point x="99" y="39"/>
      <point x="57" y="122"/>
      <point x="57" y="206" type="curve" smooth="yes"/>
      <point x="57" y="347"/>
      <point x="170" y="463"/>
      <point x="296" y="463" type="curve" smooth="yes"/>
      <point x="430" y="463"/>
      <point x="532" y="347"/>
      <point x="532" y="206" type="curve" smooth="yes"/>
      <point x="532" y="124"/>
      <point x="493" y="42"/>
      <point x="420" y="-5" type="curve"/>
      <point x="480" y="-49"/>
      <point x="539" y="-130"/>
    </contour>
  </outline>
</glyph>
<glyph name="u109B" format="2">
  <advance width="303"/>
  <unicode hex="109B"/>
  <outline>
    <contour>
      <point x="196" y="654" type="curve" smooth="yes"/>
      <point x="196" y="676"/>
      <point x="177" y="698"/>
      <point x="151" y="698" type="curve" smooth="yes"/>
      <point x="123" y="698"/>
      <point x="106" y="676"/>
      <point x="106" y="654" type="curve" smooth="yes"/>
      <point x="106" y="633"/>
      <point x="123" y="607"/>
      <point x="151" y="607" type="curve" smooth="yes"/>
      <point x="177" y="607"/>
      <point x="196" y="631"/>
    </contour>
    <contour>
      <point x="250" y="649" type="curve" smooth="yes"/>
      <point x="250" y="547"/>
      <point x="185" y="466"/>
      <point x="130" y="436" type="curve"/>
      <point x="116" y="448" type="line"/>
      <point x="146" y="467"/>
      <point x="180" y="523"/>
      <point x="186" y="562" type="curve"/>
      <point x="174" y="558"/>
      <point x="163" y="555"/>
      <point x="151" y="555" type="curve" smooth="yes"/>
      <point x="98" y="555"/>
      <point x="52" y="599"/>
      <point x="52" y="654" type="curve" smooth="yes"/>
      <point x="52" y="708"/>
      <point x="98" y="752"/>
      <point x="151" y="752" type="curve" smooth="yes"/>
      <point x="205" y="752"/>
      <point x="250" y="712"/>
    </contour>
  </outline>
</glyph>
<glyph name="u109C" format="2">
  <advance width="427"/>
  <unicode hex="109C"/>
  <outline>
    <contour>
      <point x="199" y="92" type="curve" smooth="yes"/>
      <point x="199" y="118"/>
      <point x="178" y="139"/>
      <point x="153" y="139" type="curve" smooth="yes"/>
      <point x="128" y="139"/>
      <point x="109" y="116"/>
      <point x="109" y="92" type="curve" smooth="yes"/>
      <point x="109" y="69"/>
      <point x="128" y="49"/>
      <point x="153" y="49" type="curve" smooth="yes"/>
      <point x="178" y="49"/>
      <point x="199" y="69"/>
    </contour>
    <contour>
      <point x="371" y="71" type="curve"/>
      <point x="359" y="58" type="line"/>
      <point x="339" y="91"/>
      <point x="284" y="121"/>
      <point x="244" y="127" type="curve"/>
      <point x="249" y="118"/>
      <point x="252" y="106"/>
      <point x="252" y="92" type="curve" smooth="yes"/>
      <point x="252" y="40"/>
      <point x="208" y="-5"/>
      <point x="153" y="-5" type="curve" smooth="yes"/>
      <point x="99" y="-5"/>
      <point x="55" y="40"/>
      <point x="55" y="92" type="curve" smooth="yes"/>
      <point x="55" y="145"/>
      <point x="99" y="191"/>
      <point x="153" y="191" type="curve" smooth="yes"/>
      <point x="164" y="191" type="line" smooth="yes"/>
      <point x="265" y="191"/>
      <point x="355" y="112"/>
    </contour>
    <contour>
      <point x="199" y="365" type="curve" smooth="yes"/>
      <point x="199" y="390"/>
      <point x="178" y="411"/>
      <point x="153" y="411" type="curve" smooth="yes"/>
      <point x="128" y="411"/>
      <point x="109" y="388"/>
      <point x="109" y="365" type="curve" smooth="yes"/>
      <point x="109" y="341"/>
      <point x="128" y="321"/>
      <point x="153" y="321" type="curve" smooth="yes"/>
      <point x="178" y="321"/>
      <point x="199" y="341"/>
    </contour>
    <contour>
      <point x="371" y="344" type="curve"/>
      <point x="359" y="330" type="line"/>
      <point x="340" y="362"/>
      <point x="284" y="394"/>
      <point x="244" y="400" type="curve"/>
      <point x="249" y="389"/>
      <point x="252" y="378"/>
      <point x="252" y="365" type="curve" smooth="yes"/>
      <point x="252" y="312"/>
      <point x="208" y="266"/>
      <point x="153" y="266" type="curve" smooth="yes"/>
      <point x="99" y="266"/>
      <point x="55" y="312"/>
      <point x="55" y="365" type="curve" smooth="yes"/>
      <point x="55" y="418"/>
      <point x="99" y="464"/>
      <point x="153" y="464" type="curve" smooth="yes"/>
      <point x="162" y="464" type="line" smooth="yes"/>
      <point x="265" y="464"/>
      <point x="353" y="384"/>
    </contour>
  </outline>
</glyph>
<glyph name="endash" format="2">
  <advance width="475"/>
  <unicode hex="2013"/>
  <outline>
    <contour>
      <point x="475" y="174" type="line"/>
      <point x="0" y="174" type="line"/>
      <point x="0" y="267" type="line"/>
      <point x="475" y="267" type="line"/>
    </contour>
  </outline>
</glyph>
<glyph name="quotedblright" format="2">
  <advance width="503"/>
  <unicode hex="201D"/>
  <outline>
    <contour>
      <point x="208" y="788" type="curve" smooth="yes"/>
      <point x="208" y="695"/>
      <point x="151" y="609"/>
      <point x="95" y="578" type="curve"/>
      <point x="77" y="593" type="line"/>
      <point x="109" y="617"/>
      <point x="141" y="668"/>
      <point x="141" y="723" type="curve" smooth="yes"/>
      <point x="141" y="733"/>
      <point x="141" y="738"/>
      <point x="140" y="743" type="curve"/>
      <point x="123" y="735"/>
      <point x="84" y="721"/>
      <point x="70" y="721" type="curve" smooth="yes"/>
      <point x="48" y="725"/>
      <point x="40" y="755"/>
      <point x="40" y="788" type="curve" smooth="yes"/>
      <point x="40" y="836"/>
      <point x="79" y="876"/>
      <point x="123" y="876" type="curve" smooth="yes"/>
      <point x="174" y="876"/>
      <point x="208" y="834"/>
    </contour>
    <contour>
      <point x="452" y="788" type="curve" smooth="yes"/>
      <point x="452" y="695"/>
      <point x="394" y="609"/>
      <point x="339" y="578" type="curve"/>
      <point x="320" y="593" type="line"/>
      <point x="352" y="617"/>
      <point x="385" y="668"/>
      <point x="385" y="723" type="curve" smooth="yes"/>
      <point x="385" y="733"/>
      <point x="385" y="738"/>
      <point x="383" y="743" type="curve"/>
      <point x="366" y="735"/>
      <point x="327" y="721"/>
      <point x="312" y="721" type="curve" smooth="yes"/>
      <point x="292" y="725"/>
      <point x="284" y="755"/>
      <point x="284" y="788" type="curve" smooth="yes"/>
      <point x="284" y="836"/>
      <point x="323" y="876"/>
      <point x="367" y="876" type="curve" smooth="yes"/>
      <point x="418" y="876"/>
      <point x="452" y="834"/>
    </contour>
  </outline>
</glyph>
<glyph name="circledash" format="2">
  <advance width="648"/>
  <unicode hex="25CC"/>
  <anchor x="0" y="0" name="_R"/>
  <anchor x="324" y="-53" name="BS"/>
  <anchor x="324" y="-53" name="L"/>
  <anchor x="324" y="495" name="U"/>
  <anchor x="318" y="-53" name="BD"/>
  <outline>
    <contour>
      <point x="572" y="137" type="curve" smooth="yes"/>
      <point x="572" y="121"/>
      <point x="564" y="113"/>
      <point x="549" y="113" type="curve" smooth="yes"/>
      <point x="533" y="113"/>
      <point x="525" y="121"/>
      <point x="525" y="137" type="curve" smooth="yes"/>
      <point x="525" y="155"/>
      <point x="533" y="162"/>
      <point x="549" y="162" type="curve" smooth="yes"/>
      <point x="564" y="162"/>
      <point x="572" y="155"/>
    </contour>
    <contour>
      <point x="520" y="58" type="curve" smooth="yes"/>
      <point x="520" y="41"/>
      <point x="512" y="33"/>
      <point x="496" y="33" type="curve" smooth="yes"/>
      <point x="479" y="33"/>
      <point x="471" y="41"/>
      <point x="471" y="58" type="curve" smooth="yes"/>
      <point x="471" y="75"/>
      <point x="479" y="82"/>
      <point x="496" y="82" type="curve" smooth="yes"/>
      <point x="512" y="82"/>
      <point x="520" y="75"/>
    </contour>
    <contour>
      <point x="441" y="6" type="curve" smooth="yes"/>
      <point x="441" y="-10"/>
      <point x="433" y="-17"/>
      <point x="416" y="-17" type="curve" smooth="yes"/>
      <point x="401" y="-17"/>
      <point x="393" y="-10"/>
      <point x="393" y="6" type="curve" smooth="yes"/>
      <point x="393" y="23"/>
      <point x="401" y="30"/>
      <point x="416" y="30" type="curve" smooth="yes"/>
      <point x="433" y="30"/>
      <point x="441" y="23"/>
    </contour>
    <contour>
      <point x="347" y="-13" type="curve" smooth="yes"/>
      <point x="347" y="-28"/>
      <point x="340" y="-35"/>
      <point x="325" y="-35" type="curve" smooth="yes"/>
      <point x="307" y="-35"/>
      <point x="300" y="-28"/>
      <point x="300" y="-13" type="curve" smooth="yes"/>
      <point x="300" y="3"/>
      <point x="307" y="11"/>
      <point x="325" y="11" type="curve" smooth="yes"/>
      <point x="340" y="11"/>
      <point x="347" y="3"/>
    </contour>
    <contour>
      <point x="255" y="6" type="curve" smooth="yes"/>
      <point x="255" y="-10"/>
      <point x="248" y="-17"/>
      <point x="231" y="-17" type="curve" smooth="yes"/>
      <point x="214" y="-17"/>
      <point x="206" y="-10"/>
      <point x="206" y="6" type="curve" smooth="yes"/>
      <point x="206" y="23"/>
      <point x="214" y="30"/>
      <point x="231" y="30" type="curve" smooth="yes"/>
      <point x="248" y="30"/>
      <point x="255" y="23"/>
    </contour>
    <contour>
      <point x="176" y="58" type="curve" smooth="yes"/>
      <point x="176" y="41"/>
      <point x="169" y="33"/>
      <point x="151" y="33" type="curve" smooth="yes"/>
      <point x="135" y="33"/>
      <point x="127" y="41"/>
      <point x="127" y="58" type="curve" smooth="yes"/>
      <point x="127" y="75"/>
      <point x="135" y="82"/>
      <point x="151" y="82" type="curve" smooth="yes"/>
      <point x="169" y="82"/>
      <point x="176" y="75"/>
    </contour>
    <contour>
      <point x="123" y="137" type="curve" smooth="yes"/>
      <point x="123" y="121"/>
      <point x="114" y="113"/>
      <point x="99" y="113" type="curve" smooth="yes"/>
      <point x="83" y="113"/>
      <point x="75" y="121"/>
      <point x="75" y="137" type="curve" smooth="yes"/>
      <point x="75" y="155"/>
      <point x="83" y="162"/>
      <point x="99" y="162" type="curve" smooth="yes"/>
      <point x="114" y="162"/>
      <point x="123" y="155"/>
    </contour>
    <contour>
      <point x="104" y="231" type="curve" smooth="yes"/>
      <point x="104" y="214"/>
      <point x="96" y="207"/>
      <point x="80" y="207" type="curve" smooth="yes"/>
      <point x="64" y="207"/>
      <point x="56" y="214"/>
      <point x="55" y="231" type="curve" smooth="yes"/>
      <point x="56" y="247"/>
      <point x="64" y="256"/>
      <point x="80" y="256" type="curve" smooth="yes"/>
      <point x="96" y="256"/>
      <point x="104" y="247"/>
    </contour>
    <contour>
      <point x="123" y="324" type="curve" smooth="yes"/>
      <point x="123" y="308"/>
      <point x="114" y="299"/>
      <point x="99" y="299" type="curve" smooth="yes"/>
      <point x="83" y="299"/>
      <point x="75" y="308"/>
      <point x="75" y="324" type="curve" smooth="yes"/>
      <point x="75" y="339"/>
      <point x="83" y="347"/>
      <point x="99" y="347" type="curve" smooth="yes"/>
      <point x="114" y="347"/>
      <point x="123" y="339"/>
    </contour>
    <contour>
      <point x="176" y="402" type="curve" smooth="yes"/>
      <point x="176" y="385"/>
      <point x="169" y="378"/>
      <point x="151" y="378" type="curve" smooth="yes"/>
      <point x="135" y="378"/>
      <point x="127" y="385"/>
      <point x="127" y="402" type="curve" smooth="yes"/>
      <point x="127" y="419"/>
      <point x="135" y="427"/>
      <point x="151" y="427" type="curve" smooth="yes"/>
      <point x="169" y="427"/>
      <point x="176" y="419"/>
    </contour>
    <contour>
      <point x="255" y="456" type="curve" smooth="yes"/>
      <point x="255" y="439"/>
      <point x="248" y="431"/>
      <point x="231" y="431" type="curve" smooth="yes"/>
      <point x="214" y="431"/>
      <point x="206" y="439"/>
      <point x="206" y="456" type="curve" smooth="yes"/>
      <point x="206" y="473"/>
      <point x="214" y="480"/>
      <point x="231" y="480" type="curve" smooth="yes"/>
      <point x="248" y="480"/>
      <point x="255" y="473"/>
    </contour>
    <contour>
      <point x="347" y="474" type="curve" smooth="yes"/>
      <point x="347" y="458"/>
      <point x="340" y="449"/>
      <point x="325" y="449" type="curve" smooth="yes"/>
      <point x="307" y="449"/>
      <point x="300" y="458"/>
      <point x="300" y="474" type="curve" smooth="yes"/>
      <point x="300" y="491"/>
      <point x="307" y="498"/>
      <point x="325" y="498" type="curve" smooth="yes"/>
      <point x="340" y="498"/>
      <point x="347" y="491"/>
    </contour>
    <contour>
      <point x="441" y="456" type="curve" smooth="yes"/>
      <point x="441" y="439"/>
      <point x="433" y="431"/>
      <point x="416" y="431" type="curve" smooth="yes"/>
      <point x="401" y="431"/>
      <point x="393" y="439"/>
      <point x="393" y="456" type="curve" smooth="yes"/>
      <point x="393" y="473"/>
      <point x="401" y="480"/>
      <point x="416" y="480" type="curve" smooth="yes"/>
      <point x="433" y="480"/>
      <point x="441" y="473"/>
    </contour>
    <contour>
      <point x="520" y="402" type="curve" smooth="yes"/>
      <point x="520" y="385"/>
      <point x="512" y="378"/>
      <point x="496" y="378" type="curve" smooth="yes"/>
      <point x="479" y="378"/>
      <point x="471" y="385"/>
      <point x="471" y="402" type="curve" smooth="yes"/>
      <point x="471" y="419"/>
      <point x="479" y="427"/>
      <point x="496" y="427" type="curve" smooth="yes"/>
      <point x="512" y="427"/>
      <point x="520" y="419"/>
    </contour>
    <contour>
      <point x="572" y="324" type="curve" smooth="yes"/>
      <point x="572" y="308"/>
      <point x="564" y="299"/>
      <point x="549" y="299" type="curve" smooth="yes"/>
      <point x="533" y="299"/>
      <point x="525" y="308"/>
      <point x="525" y="324" type="curve" smooth="yes"/>
      <point x="525" y="339"/>
      <point x="533" y="347"/>
      <point x="549" y="347" type="curve" smooth="yes"/>
      <point x="564" y="347"/>
      <point x="572" y="339"/>
    </contour>
    <contour>
      <point x="592" y="231" type="curve" smooth="yes"/>
      <point x="592" y="214"/>
      <point x="585" y="207"/>
      <point x="567" y="207" type="curve" smooth="yes"/>
      <point x="551" y="207"/>
      <point x="543" y="214"/>
      <point x="543" y="231" type="curve" smooth="yes"/>
      <point x="543" y="247"/>
      <point x="551" y="256"/>
      <point x="567" y="256" type="curve" smooth="yes"/>
      <point x="585" y="256"/>
      <point x="592" y="247"/>
    </contour>
  </outline>
</glyph>
<glyph name="uA9E0" format="2">
  <advance width="588"/>
  <unicode hex="A9E0"/>
  <anchor x="3" y="0" name="_R"/>
  <anchor x="290" y="-53" name="BS"/>
  <anchor x="290" y="-53" name="L"/>
  <anchor x="290" y="495" name="U"/>
  <anchor x="283" y="-53" name="BD"/>
  <outline>
    <contour>
      <point x="195" y="320" type="curve" smooth="yes"/>
      <point x="195" y="338"/>
      <point x="179" y="352"/>
      <point x="163" y="352" type="curve" smooth="yes"/>
      <point x="145" y="352"/>
      <point x="130" y="336"/>
      <point x="130" y="320" type="curve" smooth="yes"/>
      <point x="130" y="302"/>
      <point x="145" y="287"/>
      <point x="163" y="287" type="curve" smooth="yes"/>
      <point x="179" y="287"/>
      <point x="195" y="303"/>
    </contour>
    <contour>
      <point x="356" y="85" type="curve"/>
      <point x="331" y="118"/>
      <point x="279" y="136"/>
      <point x="232" y="136" type="curve" smooth="yes"/>
      <point x="212" y="136"/>
      <point x="189" y="132"/>
      <point x="166" y="122" type="curve"/>
      <point x="191" y="84"/>
      <point x="247" y="70"/>
      <point x="290" y="70" type="curve" smooth="yes"/>
      <point x="315" y="70"/>
      <point x="340" y="76"/>
    </contour>
    <contour>
      <point x="533" y="222" type="curve" smooth="yes"/>
      <point x="533" y="93"/>
      <point x="433" y="-20"/>
      <point x="290" y="-20" type="curve" smooth="yes"/>
      <point x="173" y="-20"/>
      <point x="70" y="49"/>
      <point x="55" y="151" type="curve"/>
      <point x="117" y="194"/>
      <point x="185" y="209"/>
      <point x="229" y="209" type="curve" smooth="yes"/>
      <point x="304" y="209"/>
      <point x="374" y="185"/>
      <point x="414" y="143" type="curve"/>
      <point x="430" y="163"/>
      <point x="440" y="193"/>
      <point x="440" y="222" type="curve" smooth="yes"/>
      <point x="440" y="299"/>
      <point x="375" y="370"/>
      <point x="287" y="370" type="curve" smooth="yes"/>
      <point x="272" y="370"/>
      <point x="256" y="367"/>
      <point x="244" y="361" type="curve"/>
      <point x="254" y="351"/>
      <point x="260" y="335"/>
      <point x="260" y="320" type="curve" smooth="yes"/>
      <point x="260" y="265"/>
      <point x="217" y="222"/>
      <point x="163" y="222" type="curve" smooth="yes"/>
      <point x="109" y="222"/>
      <point x="65" y="265"/>
      <point x="65" y="320" type="curve" smooth="yes"/>
      <point x="65" y="340"/>
      <point x="72" y="359"/>
      <point x="83" y="374" type="curve" smooth="yes"/>
      <point x="119" y="425"/>
      <point x="204" y="464"/>
      <point x="287" y="464" type="curve" smooth="yes"/>
      <point x="442" y="464"/>
      <point x="533" y="338"/>
    </contour>
  </outline>
</glyph>
<glyph name="uA9E1" format="2">
  <advance width="964"/>
  <unicode hex="A9E1"/>
  <anchor x="0" y="0" name="_R"/>
  <anchor x="667" y="-53" name="BS"/>
  <anchor x="667" y="-53" name="L"/>
  <anchor x="486" y="-53" name="BD"/>
  <anchor x="667" y="495" name="U"/>
  <outline>
    <contour>
      <point x="909" y="222" type="curve" smooth="yes"/>
      <point x="909" y="89"/>
      <point x="799" y="-20"/>
      <point x="667" y="-20" type="curve" smooth="yes"/>
      <point x="587" y="-20"/>
      <point x="518" y="13"/>
      <point x="473" y="61" type="curve"/>
      <point x="431" y="13"/>
      <point x="370" y="-20"/>
      <point x="294" y="-20" type="curve" smooth="yes"/>
      <point x="200" y="-20"/>
      <point x="105" y="24"/>
      <point x="68" y="111" type="curve"/>
      <point x="148" y="155" type="line"/>
      <point x="183" y="100"/>
      <point x="236" y="73"/>
      <point x="294" y="73" type="curve" smooth="yes"/>
      <point x="405" y="73"/>
      <point x="443" y="177"/>
      <point x="443" y="221" type="curve" smooth="yes"/>
      <point x="443" y="249"/>
      <point x="435" y="272"/>
      <point x="422" y="290" type="curve"/>
      <point x="372" y="233"/>
      <point x="295" y="204"/>
      <point x="235" y="204" type="curve" smooth="yes"/>
      <point x="184" y="204"/>
      <point x="111" y="225"/>
      <point x="55" y="268" type="curve"/>
      <point x="59" y="363"/>
      <point x="166" y="464"/>
      <point x="294" y="464" type="curve" smooth="yes"/>
      <point x="438" y="464"/>
      <point x="536" y="346"/>
      <point x="536" y="223" type="curve" smooth="yes"/>
      <point x="536" y="197"/>
      <point x="532" y="170"/>
      <point x="523" y="145" type="curve"/>
      <point x="557" y="102"/>
      <point x="607" y="73"/>
      <point x="667" y="73" type="curve" smooth="yes"/>
      <point x="749" y="73"/>
      <point x="816" y="141"/>
      <point x="816" y="222" type="curve" smooth="yes"/>
      <point x="816" y="303"/>
      <point x="752" y="370"/>
      <point x="668" y="370" type="curve" smooth="yes"/>
      <point x="654" y="370"/>
      <point x="640" y="369"/>
      <point x="626" y="364" type="curve"/>
      <point x="589" y="450" type="line"/>
      <point x="613" y="459"/>
      <point x="641" y="464"/>
      <point x="668" y="464" type="curve" smooth="yes"/>
      <point x="802" y="464"/>
      <point x="909" y="354"/>
    </contour>
    <contour>
      <point x="368" y="352" type="curve"/>
      <point x="346" y="363"/>
      <point x="322" y="370"/>
      <point x="294" y="370" type="curve" smooth="yes"/>
      <point x="253" y="370"/>
      <point x="199" y="354"/>
      <point x="159" y="299" type="curve"/>
      <point x="187" y="289"/>
      <point x="212" y="284"/>
      <point x="236" y="284" type="curve" smooth="yes"/>
      <point x="290" y="284"/>
      <point x="339" y="310"/>
    </contour>
  </outline>
</glyph>
